<svg width="50" height="50" fill="none" xmlns="http://www.w3.org/2000/svg"><rect width="50" height="50" rx="25" fill="#9DBE39"/><path d="M38.044 19.452l-11.392 6.802a.386.386 0 00-.188.332v12.672a.384.384 0 00.387.386.388.388 0 00.194-.052l11.392-6.548a.388.388 0 00.193-.334V19.78a.385.385 0 00-.393-.383.389.389 0 00-.193.055zm-25.096 0a.388.388 0 00-.587.33v12.934a.384.384 0 00.195.334l11.391 6.548a.388.388 0 00.58-.334V26.591a.386.386 0 00-.187-.33l-11.392-6.81zM19.9 31.195l-.576-.308v1.937c0 .26-.212.357-.473.218l-1.473-.786c-.26-.14-.472-.463-.472-.723V29.59l-.576-.308c-.406-.216-.623-.806-.357-.969l1.781-1.098c.189-.115.526.064.714.382l1.782 3.002c.276.452.055.81-.35.596zm10.053-18.348l-4.264-2.45a.39.39 0 00-.387 0l-11.53 6.627a.387.387 0 00-.006.665l4.4 2.629a.389.389 0 00.399 0l11.394-6.807a.386.386 0 00-.006-.664zm7.693 4.191l-1.942-4.213a.384.384 0 00-.398-.221.388.388 0 00-.153.053L23.62 19.544a.385.385 0 00-.156.483l1.855 4.265a.387.387 0 00.555.177l11.622-6.94a.387.387 0 00.149-.492z" fill="#fff"/><path d="M14.912 25.124l7.292 3.18-.807 6.266-4.71-1.22-1.775-2.796v-5.43z" fill="#fff"/></svg>