<svg width="33" height="33" fill="none" xmlns="http://www.w3.org/2000/svg"><path d="M11.344 26.813v4.125M5.156 2.063h12.375a2.063 2.063 0 012.063 2.062V30.68a.258.258 0 01-.258.258H3.094V4.125a2.063 2.063 0 012.062-2.063v0zm15.469 10.312h7.219a2.062 2.062 0 012.062 2.063v16.5H19.594V13.405a1.031 1.031 0 011.031-1.031z" stroke="#9DBE39" stroke-width="2" stroke-linecap="round" stroke-linejoin="round"/><path d="M6.321 27.835a1.031 1.031 0 11-.267-2.045 1.031 1.031 0 01.267 2.045zm0-5.155a1.032 1.032 0 11-.267-2.047 1.032 1.032 0 01.267 2.046zm0-5.157a1.031 1.031 0 11-.267-2.045 1.031 1.031 0 01.267 2.045zm0-5.156a1.032 1.032 0 11-.267-2.047 1.032 1.032 0 01.267 2.047zm0-5.157a1.031 1.031 0 11-.267-2.045A1.031 1.031 0 016.32 7.21zm5.156 15.47a1.032 1.032 0 11-.267-2.048 1.032 1.032 0 01.267 2.047zm0-5.157a1.031 1.031 0 11-.267-2.045 1.031 1.031 0 01.267 2.045zm0-5.156a1.032 1.032 0 11-.267-2.047 1.032 1.032 0 01.267 2.047zm0-5.157a1.031 1.031 0 11-.267-2.045 1.031 1.031 0 01.267 2.045zm5.157 20.625a1.031 1.031 0 11-.268-2.045 1.031 1.031 0 01.268 2.045zm0-5.155a1.032 1.032 0 11-.267-2.047 1.032 1.032 0 01.267 2.046zm0-5.157a1.031 1.031 0 11-.268-2.045 1.031 1.031 0 01.268 2.045zm.597-5.449a1.03 1.03 0 00-.004-1.458 1.03 1.03 0 00-1.457-.003 1.03 1.03 0 00.004 1.457 1.03 1.03 0 001.457.004zm-.597-4.864a1.031 1.031 0 11-.268-2.045 1.031 1.031 0 01.268 2.045zm9.147 18.571a1.032 1.032 0 100 2.063 1.032 1.032 0 000-2.063zm0-5.156a1.032 1.032 0 100 2.063 1.032 1.032 0 000-2.063zm0-5.156a1.031 1.031 0 100 2.063 1.031 1.031 0 000-2.063zm-4.125 10.312a1.032 1.032 0 100 2.063 1.032 1.032 0 000-2.063zm0-10.312a1.031 1.031 0 100 2.063 1.031 1.031 0 000-2.063zm.375 5.161a1.032 1.032 0 100 2.063 1.032 1.032 0 000-2.063z" fill="#9DBE39"/></svg>