<svg width="32" height="30" fill="none" xmlns="http://www.w3.org/2000/svg"><g clip-path="url(#clip0)" fill="#9DBE39"><path d="M25.413 19.628a1.043 1.043 0 00-.113-.303c-.06-.107-.236-.407-.468-.806l.581 1.11zM16.589 8.895l2.21.609 2.856.79 2.211.609a1.45 1.45 0 001.104-.125c.164-.092.308-.216.42-.364a1.29 1.29 0 00.232-.493l.51-2.13c.178-.753.474-1.996.655-2.754l.509-2.13c.181-.752-.339-1.005-1.142-.554l-1.387.776c-.508-.822-1.016-1.64-1.212-1.935-.452-.68-1.305-1.2-2.991-1.19l-6.68.037 2.793 4.645c.07.068.128.147.173.233a85.73 85.73 0 001.142 2.003l-1.355.758c-.815.446-.834.997-.048 1.215z"/><path d="M8.858 1.585a330.44 330.44 0 00-2.532 3.78 1.219 1.219 0 00.06 1.453c.108.139.245.254.401.34l4.455 2.473a1.49 1.49 0 001.061.141c.36-.086.67-.301.865-.601l2.745-4.282c.24-.376.528-.43.76-.21L13.886.032l-1.61.009c-1.16.01-2.482.202-3.417 1.544zM.98 18.954c.502.924 1.891 3.303 2.91 5.045l3.16-4.897c.37-.603 1.061-1.72 1.636-2.646l1.616.852c.82.43 1.328.172 1.128-.581l-.564-2.118-.729-2.736-.564-2.117a1.295 1.295 0 00-.246-.488 1.37 1.37 0 00-.43-.353 1.437 1.437 0 00-1.106-.099l-2.194.662-2.834.86L.57 11c-.78.236-.747.783.073 1.215l1.192.63c-.62 1.113-1.33 2.432-1.512 2.806-.326.687-.123 1.867.657 3.303z"/><path d="M7.046 19.102l-3.16 4.897c.564.968 1.015 1.745 1.138 1.96.34.601.81 1.778 3.824 1.762l4.38-.025a1.43 1.43 0 00.98-.393c.26-.249.405-.586.405-.937l-.03-4.905a1.298 1.298 0 00-.415-.933 1.43 1.43 0 00-.986-.381l-5.982.032c-.54 0-.608-.337-.418-.653l.264-.424zm18.368.526l2.61 4.945c.912-1.597 2.463-4.37 3.097-5.57.848-1.603 1.088-2.994.697-3.725-.392-.731-2.324-4.287-2.324-4.287a1.228 1.228 0 00-.33-.395 1.339 1.339 0 00-1.496-.088l-4.426 2.58a1.404 1.404 0 00-.637.828c-.095.343-.049.708.128 1.02a2227.169 2227.169 0 002.562 4.384c.056.096.096.2.119.308z"/><path d="M27.377 25.68c.103-.166.339-.571.646-1.109l-2.61-4.945c.055.288-.098.484-.473.485l-2.699.015-.014-1.533c-.01-.891-.5-1.182-1.09-.645l-1.662 1.512-2.144 1.952-1.67 1.511c-.14.124-.25.275-.325.442a1.26 1.26 0 00.009 1.057c.078.166.192.314.333.436l1.693 1.483 2.185 1.915 1.693 1.484c.6.527 1.086.229 1.077-.661l-.015-1.458 2.068-.012c1.877-.01 2.587-1.272 2.998-1.93z"/></g><defs><clipPath id="clip0"><path fill="#fff" d="M0 0h32v30H0z"/></clipPath></defs></svg>