<svg width="50" height="50" fill="none" xmlns="http://www.w3.org/2000/svg"><rect width="50" height="50" rx="25" fill="#9DBE39"/><g clip-path="url(#clip0)" fill="#FDFFF9"><path d="M32.649 29.011a.939.939 0 00-.092-.262c-.048-.094-.191-.354-.38-.7l.472.962zm-7.171-9.302l1.796.528 2.32.684 1.797.528a1.107 1.107 0 00.897-.108 1.133 1.133 0 00.53-.743l.413-1.846.533-2.386.414-1.846c.147-.652-.275-.872-.928-.48l-1.127.672a90.326 90.326 0 00-.985-1.677c-.367-.589-1.06-1.04-2.43-1.031l-5.427.032 2.269 4.025c.057.06.104.128.14.202.107.222.52.983.928 1.736l-1.1.657c-.662.387-.678.864-.04 1.053z"/><path d="M19.198 13.373c-.582.896-2.058 3.277-2.058 3.277a1.118 1.118 0 00.375 1.554l3.62 2.143c.26.153.57.197.861.122.293-.074.545-.261.704-.521l2.23-3.71c.194-.327.429-.374.618-.183l-2.266-4.027-1.308.007c-.942.01-2.017.175-2.776 1.338zm-6.401 15.054c.408.8 1.537 2.862 2.364 4.372l2.568-4.244c.301-.523.862-1.491 1.33-2.293L20.37 27c.667.372 1.08.148.917-.504l-.458-1.836c-.162-.652-.43-1.719-.593-2.37l-.458-1.836a1.152 1.152 0 00-.549-.729 1.114 1.114 0 00-.899-.085l-1.783.573-2.302.746-1.782.574c-.633.204-.607.678.06 1.053l.968.544a82.945 82.945 0 00-1.229 2.433c-.265.595-.1 1.618.534 2.863z"/><path d="M17.725 28.555L15.157 32.8c.459.838.825 1.512.925 1.698.276.52.659 1.541 3.107 1.527l3.559-.021c.3-.003.586-.125.796-.341.211-.216.33-.508.33-.812l-.025-4.251a1.16 1.16 0 00-.338-.809 1.123 1.123 0 00-.8-.33l-4.86.027c-.439 0-.495-.291-.34-.565l.214-.368zm14.924.456l2.12 4.286a240.744 240.744 0 002.517-4.827c.688-1.39.884-2.596.566-3.23-.319-.633-1.888-3.715-1.888-3.715a1.053 1.053 0 00-.65-.543 1.023 1.023 0 00-.834.125l-3.596 2.236a1.21 1.21 0 00-.518.718c-.077.297-.04.613.105.884a1946.371 1946.371 0 002.081 3.799.94.94 0 01.097.267z"/><path d="M34.244 34.256c.084-.144.275-.495.525-.96l-2.12-4.287c.044.25-.08.42-.386.42l-2.192.014-.012-1.329c-.007-.772-.405-1.025-.885-.559l-1.35 1.31-1.743 1.692-1.356 1.31a1.139 1.139 0 00-.356.841 1.154 1.154 0 00.37.836l1.375 1.285 1.775 1.66 1.376 1.286c.488.456.882.198.875-.573l-.012-1.264 1.68-.01c1.525-.008 2.102-1.102 2.436-1.672z"/></g><defs><clipPath id="clip0"><path fill="#fff" transform="translate(12 12)" d="M0 0h26v26H0z"/></clipPath></defs></svg>