<svg width="93" height="74" fill="none" xmlns="http://www.w3.org/2000/svg"><path fill-rule="evenodd" clip-rule="evenodd" d="M54.397 15.267C30.179 7.6 14.323 7.238.177 15.787c9.95-3.77 20.657-4.972 30.743-2.805 10.855 2.333 21.132 8.242 33.004 9.387 8.733.841 18.217-2.419 24.658-9.611 2.52-2.815 2.62-3.163 4.18-5.596-2.194.453-2.206.59-3.73.719C67.308 9.727 51.978-5.326 48.335 2.276c-1.682 3.511.003 5.996 4.39 8.044 2.757 1.287 12.55 3.07 12.63 2.972-3.65-1.076-7.58-2.76-8.32-4.562-.69-1.683.46-3.102 2.733-2.643 7.347 1.486 14.837 5.22 25.445 4.507-7.175 9.108-22.627 7.266-30.815 4.673z" fill="#9DBE39"/><path fill-rule="evenodd" clip-rule="evenodd" d="M3.218 71.875v1.9h-.502v-3.901h.502v1.56h2.11v-1.56h.501v3.901h-.502v-1.9H3.218zm5.456-1.63c-.912 0-1.213.247-1.213 1.576 0 1.267.3 1.583 1.213 1.583.919 0 1.22-.316 1.22-1.583 0-1.329-.301-1.576-1.22-1.576zm0 3.638c-1.213 0-1.77-.48-1.77-2.078 0-1.591.564-2.04 1.77-2.04 1.212 0 1.777.449 1.777 2.04 0 1.599-.557 2.078-1.777 2.078zm5.501-1.229c0-.47-.186-.757-.626-.757h-1.522v1.414h1.545c.456 0 .603-.209.603-.657zm-.093-1.784c0-.394-.124-.533-.572-.533h-1.483v1.12h1.483c.448 0 .572-.247.572-.587zm.649 1.8c0 .734-.387 1.105-1.074 1.105h-2.133v-3.902h2.063c.858 0 1.028.44 1.028.927 0 .464-.1.812-.773.866.695.023.889.479.889 1.004zm2.721-2.425c-.912 0-1.213.247-1.213 1.576 0 1.267.301 1.583 1.213 1.583.92 0 1.22-.316 1.22-1.583 0-1.329-.3-1.576-1.22-1.576zm0 3.638c-1.213 0-1.77-.48-1.77-2.078 0-1.591.565-2.04 1.77-2.04 1.213 0 1.777.449 1.777 2.04 0 1.599-.556 2.078-1.777 2.078zm3.314-2.464h2.21c-.046-.973-.301-1.182-1.02-1.182-.819 0-1.128.263-1.19 1.182zm2.782.456h-2.79c.008 1.266.41 1.537 1.314 1.537.278 0 .788-.085 1.12-.209l.116.464c-.402.123-.958.216-1.282.216-1.182 0-1.824-.48-1.824-2.078 0-1.53.595-2.04 1.754-2.04 1.105 0 1.592.449 1.592 2.11zm5.672 1.9c-.865-1.537-1.46-1.823-1.985-1.908v1.908h-.503v-3.901h.503v1.877c.34-.286 1.035-.996 1.83-1.877h.65c-.912 1.011-1.491 1.614-1.739 1.777.425.162.812.332 1.862 2.124h-.618zm3.717-.525v-1.422c-.286-.07-.664-.1-1.05-.1-.78 0-1.044.085-1.044.803 0 .78.224.896 1.044.896.378 0 .749-.07 1.05-.177zm.502.324c-.424.193-1.081.31-1.576.31-1.12 0-1.584-.302-1.584-1.314 0-1.112.673-1.29 1.546-1.29.409 0 .71.038 1.112.123 0-.957-.247-1.159-1.151-1.159-.37 0-.811.055-1.12.186l-.147-.471a4.85 4.85 0 011.298-.193c1.136 0 1.622.332 1.622 1.514v2.294zm.951-2.889v-.811h.502v.71c0 1.19.247 1.43 1.027 1.43.557 0 1.082-.194 1.082-.549v-1.591h.502v3.9h-.502v-1.598c-.193.155-.641.317-1.136.317-1.058 0-1.475-.387-1.475-1.808zm4.752.734h2.21c-.046-.973-.301-1.182-1.02-1.182-.819 0-1.128.263-1.19 1.182zm2.782.456h-2.79c.008 1.266.41 1.537 1.314 1.537.278 0 .788-.085 1.12-.209l.116.464c-.402.123-.958.216-1.282.216-1.182 0-1.824-.48-1.824-2.078 0-1.53.595-2.04 1.754-2.04 1.105 0 1.592.449 1.592 2.11zm3.871 1.792c-.294.131-.78.216-1.113.216-1.213 0-1.885-.479-1.885-2.078 0-1.591.68-2.04 1.885-2.04.325 0 .834.086 1.113.194l-.163.471c-.278-.132-.625-.186-.95-.186-.912 0-1.329.248-1.329 1.577 0 1.267.417 1.583 1.329 1.583.332 0 .672-.077.95-.2l.163.463zm2.225.108h-.502v-3.438h-1.53v-.463h3.562v.463h-1.53v3.438zm4.846-1.121c0-.47-.185-.757-.626-.757h-1.522v1.414h1.545c.456 0 .603-.209.603-.657zm-.093-1.784c0-.394-.123-.533-.572-.533h-1.483v1.12h1.483c.449 0 .572-.247.572-.587zm.649 1.8c0 .734-.386 1.105-1.074 1.105h-2.132v-3.902h2.063c.857 0 1.027.44 1.027.927 0 .464-.1.812-.772.866.695.023.888.479.888 1.004zm2.72-2.425c-.912 0-1.213.247-1.213 1.576 0 1.267.301 1.583 1.213 1.583.92 0 1.221-.316 1.221-1.583 0-1.329-.301-1.576-1.22-1.576zm0 3.638c-1.213 0-1.769-.48-1.769-2.078 0-1.591.564-2.04 1.77-2.04 1.212 0 1.776.449 1.776 2.04 0 1.599-.556 2.078-1.777 2.078zm5.563-3.546v3.438h-.502v-3.901h3.114v3.901h-.502v-3.438h-2.11zm4.251 1.082h2.21c-.047-.973-.302-1.182-1.02-1.182-.82 0-1.129.263-1.19 1.182zm2.781.456h-2.79c.009 1.266.41 1.537 1.314 1.537a3.87 3.87 0 001.12-.209l.117.464c-.402.123-.959.216-1.283.216-1.182 0-1.823-.48-1.823-2.078 0-1.53.595-2.04 1.753-2.04 1.105 0 1.592.449 1.592 2.11zm.75-1.19v-.811h.503v.71c0 1.19.247 1.43 1.027 1.43.556 0 1.082-.194 1.082-.549v-1.591h.502v3.9h-.502v-1.598c-.193.155-.641.317-1.136.317-1.058 0-1.476-.387-1.476-1.808zm6.8 2.565v-1.422c-.286-.07-.665-.1-1.051-.1-.78 0-1.043.085-1.043.803 0 .78.224.896 1.043.896.379 0 .75-.07 1.05-.177zm.502.324c-.425.193-1.082.31-1.576.31-1.12 0-1.584-.302-1.584-1.314 0-1.112.672-1.29 1.545-1.29.41 0 .711.038 1.113.123 0-.957-.248-1.159-1.151-1.159-.371 0-.812.055-1.12.186l-.147-.471a4.85 4.85 0 011.297-.193c1.136 0 1.623.332 1.623 1.514v2.294zm2.697.201h-.502v-3.438h-1.53v-.463h3.562v.463h-1.53v3.438zm4.806-3.067c-.603 1.05-1.383 2.132-2.11 3.067h-.501v-3.901h.502v3.175c.734-.958 1.437-2.047 2.11-3.175h.501v3.9h-.502v-3.066zm-61.504-36.33c-.025-.756-.343-1.319-.953-1.685-.342-.22-.813-.36-1.41-.421-.6-.061-1.327-.093-2.181-.093h-5.975c-.855 0-1.582.032-2.18.093-.6.06-1.07.2-1.411.42-.612.367-.93.93-.953 1.686h15.063zm-15.1 3.628c.024.27.092.532.201.788.11.257.276.47.495.642.342.268.825.452 1.448.55.623.098 1.497.146 2.62.146h16.2v4.361H11.39c-1.907 0-3.507-.19-4.801-.568-1.296-.379-2.359-.972-3.189-1.777-1.418-1.368-2.126-3.372-2.126-6.01 0-1.393.22-2.56.66-3.5.44-.94 1.013-1.728 1.723-2.364.928-.855 2.156-1.466 3.683-1.832 1.527-.367 3.256-.55 5.186-.55h4.984c2.028 0 3.787.16 5.278.477 1.49.317 2.75.94 3.775 1.868.733.66 1.313 1.503 1.74 2.53.428 1.025.643 2.234.643 3.627 0 .27-.013.556-.037.861a4.696 4.696 0 01-.11.751H7.688zm49.517 6.487H42.362c-1.98 0-3.66-.19-5.04-.568-1.38-.379-2.523-1.008-3.427-1.887a7.387 7.387 0 01-1.649-2.547c-.39-.99-.586-2.107-.586-3.353 0-1.222.201-2.32.604-3.3a7.669 7.669 0 011.668-2.527c.904-.88 2.046-1.503 3.427-1.869 1.38-.367 3.06-.55 5.04-.55h14.806V32.4H43.388c-1.1 0-2.01.062-2.73.184-.721.122-1.29.379-1.705.77-.66.635-.99 1.587-.99 2.858 0 1.295.33 2.248.99 2.859.415.39.984.64 1.704.75.721.11 1.631.166 2.731.166h13.817v4.507zm22.925-8.649c0 .855-.067 1.533-.201 2.034-.135.5-.35.898-.643 1.191-.366.367-.879.604-1.538.715-.66.11-1.528.165-2.603.165H66.57V36.54c0-.854.067-1.532.201-2.033.135-.501.349-.898.642-1.192.366-.366.88-.604 1.54-.715.659-.109 1.526-.164 2.6-.164h8.578v3.408zm-9.786-7.952c-2.248 0-4.013.178-5.297.532-1.282.354-2.277.897-2.986 1.63a5.091 5.091 0 00-1.32 2.308c-.243.905-.366 2.114-.366 3.629v8.502h15.98c2.247 0 4.013-.178 5.296-.532 1.282-.355 2.278-.898 2.987-1.63a5.09 5.09 0 001.32-2.309c.243-.904.366-2.114.366-3.628v-8.502h-15.98zM15.69 54.042c0 .597-.126 1.03-.37 1.285-.16.159-.38.274-.657.342-.302.074-.735.111-1.287.111H6.177v-3.46h7.199c.552 0 .985.038 1.287.111.276.068.497.183.654.34.247.257.373.684.373 1.27zm2.395-3.37c-.454-.418-1.043-.738-1.75-.949-.695-.209-1.588-.314-2.655-.314H2.606v12.748h3.571v-3.465h7.503c1.068 0 1.962-.109 2.657-.324.707-.218 1.296-.54 1.747-.956.422-.386.737-.874.935-1.451.194-.563.292-1.209.292-1.92 0-.71-.098-1.356-.292-1.92a3.467 3.467 0 00-.934-1.45zm7.294 1.648h7.266c.552 0 .985.038 1.287.111.276.068.497.183.654.34.247.257.373.684.373 1.27 0 .598-.126 1.031-.37 1.286-.159.159-.38.274-.657.342-.302.074-.735.111-1.287.111H25.38v-3.46zm10.456 6.344a4.305 4.305 0 00-.407-.258c.8-.208 1.445-.541 1.925-.994.423-.386.738-.874.935-1.45.194-.564.292-1.21.292-1.92 0-.712-.098-1.358-.291-1.92a3.458 3.458 0 00-.935-1.45c-.454-.418-1.043-.738-1.75-.949-.694-.209-1.588-.314-2.655-.314H21.808v12.748h3.57v-3.465h4.241c.36 0 .678.016.943.048.255.032.496.092.72.18.219.087.445.216.67.383.235.175.511.403.821.68l2.4 2.174h4.578l-2.854-2.613a12.066 12.066 0 00-1.062-.88zm6.105 3.493h3.57V49.409h-3.57v12.748zm21.382-4.335L52.147 49.41H48.92v12.748h3.452v-8.483l11.311 8.483h3.09V49.409h-3.452v8.413zm5.848-8.413v2.911h6.56v9.836h3.57V52.32h6.559v-2.91H69.171z" fill="#68727E"/></svg>