<svg width="781" height="400" fill="none" xmlns="http://www.w3.org/2000/svg"><path opacity=".2" d="M394.813 350.369l-1.745 1.753.267 2.161-1.707 1.772-1.911.86-.994 2.327-.778 1.071-2.268 1.198v2.346l-2.032 2.033-1.911.408-1.969-.44-.994.351.319 2.473.713 2.308 2.434 2.428 1.949 1.874-.477 1.517-1.752.395-.797.797 1.593 1.594v1.753l.796 1.491-.879.204h-.56a1.435 1.435 0 00-.892.338l-.166.038-1.529 1.562a8.36 8.36 0 00-1.593.172l-1.809-.057-2.651 1.485-.662.707a8.1 8.1 0 01-.873.274 4.64 4.64 0 01-1.007.23l-1.599-.313a3.898 3.898 0 01-.42-.293l-.854-1.351-.866-1.568c-.306-.873-.58-1.817-.886-2.735l-.134.141-1.344 1.338c-.121.09-.246.173-.376.249l-1.911.739c-.358.064-.721.09-1.083.077l-2.071-.689-2.287-.593a4.555 4.555 0 01-.427-2.281 2.725 2.725 0 00-.153-.268v-.153l-.146-.089a12.974 12.974 0 00-2.651-2.55l-.274-.637-.911-.587a4.905 4.905 0 01-.949-2.071 4.342 4.342 0 00-.344-.925v-.127l-.096-.089a5.485 5.485 0 00-3.822-2.607l-.93-.88h-2.708l-.478.478c-1.395.147-2.701.567-4.116.637l-.452-.452-1.663.306a8.449 8.449 0 01-.726-.204 3.126 3.126 0 01-.389-.121l-1.522-1.524a11.895 11.895 0 01-.472-1.51v-.555l-.287-.338a4.641 4.641 0 00-.516-1.045h-1.274a3.607 3.607 0 00-.567.465l-.223.07-.159.332c-1.223 1.415-1.835 3.238-2.873 1.682a11.719 11.719 0 01-2.307-3.403l-.28-.937-.535-2.767-.943-1.663c-.293-1.129-.561-2.257-.86-3.36v-.707l-.249-.23a1.037 1.037 0 00-.344-.318l-1.064-.995a.506.506 0 01-.044-.083v-3.461l-.185-.637a3.824 3.824 0 00-.191-1.186 16.262 16.262 0 00-.389-.739l-.509-1.696-1.466-1.466a43.101 43.101 0 00-2.07-2.715l-.637-1.383-1.358-1.339-.688-.28a47.253 47.253 0 00-1.121-1.154v-.637a.909.909 0 01.733-.58h.758l.083-.109h.28c.419-.418.716-.943.86-1.517l.051-.07v-.07a1.014 1.014 0 00-.248-.886l-.09-.045-.172-.478h-.783l-.23-.115-.248.115h-.637l-.452.453c-1.517.542-3.039.79-4.556 1.275h-.446l-.223.223a9.322 9.322 0 00-1.057.459l-.548 1.09-.726.21a10.474 10.474 0 00-4.887 1.753l-.217-.319c0-.433-.127-.79-.56-.816l-.217-.318-1.784.854c-.732.102-1.452.134-1.994.185.637-.153.057-.899-.204-.141.344-1.179.867-1.81.943-2.862l.325-.146c.745.21 1.274-.268 1.695-.778l.178-.083v-.134c.128-.146.242-.287.363-.408a2.777 2.777 0 01-.363-.452v-.497h-.382a.635.635 0 00-.586-.325.826.826 0 00-.637.325h-.574l-.382-.23a1.276 1.276 0 00-1-.637l-.523-.319-.637.637a3.87 3.87 0 01-1.274.319l-.867-.261-.445-.446v-.109c1.185-1.275.547-3.754-.701-3.754-.253.078-.48.224-.656.421l-1.625.975h-.057l-1.874-.51a1.958 1.958 0 01-.637-.727l-.159-.503v-.281c.147-.357.287-.726.421-1.096l.7-.701v-1.6a8.64 8.64 0 00.16-.861l.369-1.032-.847-2.658-1.593-.746h-1.911l-.956-1.912h-2.657l-2.121-1.275-2.338-.211-1.274 1.804h-2.715l-2.338.638-1.911-1.058-2.338.42h-2.867l-2.746-1.415h-1.115l-1.223 1.224-2.122.427-2.019-1.064h-1.803l-2.453-.765-3.613.108-2.656-.529-1.912.529-1.694-1.485-2.447-1.275h-2.23l-.739 2.333.746 1.594-1.485 1.491 1.166.74 1.166 1.172 1.434 1.435-1.326 1.325h-1.484l-1.803-1.803-2.765.102-1.803.745.745 2.658-.745 1.913-1.803.529-2.128-.529-.847 2.231-.319-1.677h-1.134l-.159-1.345 1.994-.969.535-1.345-.752-1.351h-1.076l-1.727-.752-1.236.484h-3.772l.638-1.128 1.669-.758.267-1.562 1.453-2.639h1.172v-1.829l1.402-1.913v-1.185l2.179-2.187 1.643-.561v-.758l1.778-.159.752 1.026h1.236v-2.046l-.752-2.32-2.587-.81-1.127.752-2.638-.268-1.351-2.154-.318-2.856-1.026-1.026-.433-2.046 2.319-1.721 1.612.484 1.726.861 1.185 1.186v1.453l2.205.809 1.427-1.427 2.402-.568v-1.275l1.274-2.377.484-1.613-.433-1.778-1.351 1.383-1.274-1.836h-1.523l-2.465-1.785-1.364-1.912 1.396-1.542.834-.835v-1.836l.714-1.434.637.637h2.07l1.752-.873.478-1.995 1.153-1.823h1.434l1.274 1.912.796-.797 1.16-1.16-.841-.835-.076-1.032 1.911-1.275 1.828.395 1.319-1.077 1.313-1.313-1.198-1.192v-.759l1.07-1.077.72-2.39-1.357-2.149v-2.709l1.752-1.517h1.835l1.433-1.434 1.593-2.39 2.147-1.912 1.198-2.945v-2.155l2.147-1.115v-1.67l.561-1.517.994-.995.363-1.874 2.625-2.626v-1.434l.879-1.676-.402-1.83 1.434-2.709 2.147-1.357.236-1.913 2.548-1.593-.395-2.308.956-1.835 2.185-2.193 1.637-1.632 1.351.478v1.676l1.835-.242 1.988-1.988 1.987-1.039 1.115-1.275 2.039-.313h.051l2.714.109h.045v-2.34l3.395-1.912 3.396-.739h3.612l.746-2.34h2.02l1.911-1.912 2.548-1.275-1.65-1.644 1.969-.797v-1.383l-2.128-1.065.165-.796.16-1.167.847-.427.478-1.166h1.007v-3.615l-.797-.261-.21-.797-1.039-.988 1.676-1.67.841-1.236.809 1.657 2.498 2.499 1.694 2.658 1.81 2.441v2.123l1.484 2.339h.038l2.122-1.275v-2.231l2.44-2.231-1.701-.529-1.166-2.76.427-2.977-2.02-1.383-1.115-2.282 1.007-1.007 2.128-1.064v-1.702l.529-2.55.955-1.275v-1.593l-1.382-.421.745-2.129 1.166-1.485 2.128-.746 2.281-1.115 2.599-2.601 1.383-3.079 1.064-2.549 1.166-2.55 1.981-1.045 1.274 1.784h2.549l1.274 1.275h2.23l.955 3.614-1.064 1.065-.477 3.875-2.995 3.022-.847 2.76 1.803 1.593-.637 3.614-.529 2.869-2.122 3.187-.745 4.57-1.166 4.035-.854 2.02.797 2.812 1.86 1.861-.319 1.702-2.338 1.804-.42 3.932-2.338.638-2.759 2.76-1.593 2.339-1.478.842-2.618-.523h-.045l-1.574 1.045-1.726-1.103-1.115-1.115-1.593-.529h-.044v2.021l1.592 2.441 1.593.746 2.122 1.485h.051l1.752-.109 1.274 1.811h1.962s.797-1.434.37-1.862c-.427-.427 1.115-1.115 1.115-1.115h1.382l.637-.637 2.657-.746 2.121-1.167v-2.231l3.931-3.932.638-2.55-.536-2.231-.21-2.014 2.867-2.869h2.23l2.395-.312.689 2.065 1.006 1.007 1.274 3.296-1.694 1.695.108 2.55v1.593l2.121 2.129 2.441.53h.044v-1.486l-2.383-.675-.898-.899V211.1l-.216-1.912 1.701-.536.637-1.376-.637-2.021.745-1.702-1.064-2.123-1.382-1.274-.848-.848-2.599-.905-1.491-1.505-1.274 1.218-1.561.733-.835-1.154h-1.911l-.319-2.02 1.275-1.275-.319-3.398 1.485-2.339.955-2.76 2.122-2.129-.746-2.333-.637-2.021.268-2.179-1.542-1.537 1.701-1.702 2.657-2.658h2.23l1.274-2.014.847-2.231-.745-1.81.745-1.594h1.657l-.536 2.231v3.085l-.42 2.76-1.911 1.913v4.57l2.23 1.696 1.274 1.064 1.612-.994 1.631 1.631 1.803 1.702v-.038l.051.051v-1.275l-.695-1.651-1.217-1.217-1.911-.956v-.854l-1.593-1.594-.745-2.333 2.204-1.472 1.045 1.045 1.695 1.702.229-.217h.032c.637-.516.771-.675.478-.44l.535-.497-.421-1.377v-.191a3.454 3.454 0 01.223-1.383l.44-.44h.057c-.242.338.077.217.242-.064a.268.268 0 01.102-.031l.083.968h.586c.203.284.438.543.701.772l.147.401.904.899 1.217.249c.351.204.701.414 1.051.637.359.365.641.799.829 1.275-.011.19-.065.376-.16.542l-.771.765.083.427a1.7 1.7 0 00.134.682l-.382.063-.414.064-.255.045-.956.146-.497.498a2.377 2.377 0 00-.713.713l-.249.249.236.497c.057.141.134.306.229.491l.198.414c.057-.089.388-.274.497-.452l.637 1.198 2.007 1.122.216.198c0 .051.032.089.045.14l-.198 2.358v3.665l-1.032.925-1.369-.383a47.03 47.03 0 01-3.039 3.041l-.899.682.102 1.963.147.147a6.018 6.018 0 001.038 1.772l.038.153 1.428 1.427h.541l1.376.217c-.023.438.06.876.242 1.275v.134a.41.41 0 00.465-.204.317.317 0 000-.223l.332-.262.535-.07.229.281.204.229.121-.102h.064v.039c.083.127.287.127.338.127a.148.148 0 01-.044.046.135.135 0 01-.058.024c-.083 0-.185-.102-.185-.102h.115a.71.71 0 00.21-.701c.299 0 .637-.032.962 0h.535v.599a1.068 1.068 0 00-.312.682c.072.144.166.275.28.389v.363l.898.172c.295.101.552.287.739.536v1.313c.367.914.642 1.862.822 2.83l-.414 1.096h-.796l.159.3a3.57 3.57 0 01.523 1.778l-.453 1.339a5.985 5.985 0 01-.216.344l-.931.899-.305 1.007a1.782 1.782 0 01-.223.121c-.098.049-.2.088-.306.115l.089.134-.191.108-.44.07-.452-.191-.083 1.275.809.803a6.918 6.918 0 010 3.142l-.35.638.312.312c.098.492.317.953.637 1.339v.797l2.013 1.185c.213.222.407.461.58.714l.484.994c.02.057.037.114.051.172a.91.91 0 01-.089.351l-1.261 1.173v1.064l.057.096a.875.875 0 00.312.529l.312.535a.435.435 0 010 .102c0 .606-.579 1.792-.637 2.455l-.267.21 1.166 2.122h.637c.605.408 1.274.785 1.834 1.218l.058.057.956 1.913.076.847c-.121.74-.401 1.511-.586 2.314l-.338.338.166.701a3.83 3.83 0 00.095 1.198.7.7 0 00.255.287v.039h.07c.213.094.443.144.676.146a1.965 1.965 0 011.172.07c.185.068.358.167.51.293l.828.485.07-.312.548-.166h1l.421 2.499-.421 2.186a.994.994 0 01-.064.146c0 .396.249.549.434.759l.197.446a.229.229 0 010 .064 3.502 3.502 0 01-.306.797l-.962.962-.624.95c-.949.784-1.911 1.447-1.911 2.48l.114.325-.165.318.841 1.173c.503 1.058.898 2.033.484 3.276-.153.377-.293.753-.427 1.129l-.841.841-.108 1.657c-.185.447-.389.874-.606 1.275l-2.822 2.824.038 3.257 2.682 1.766 3.008 1.313-1.561 2.658-3.791 1.638-2.421 2.416.217.44 1.841 3.862-1.912 1.913.638 2.122 2.331.74 2.867-.74h3.415l2.549.638 1.274 1.912 2.013 2.014.637 2.441 3.077-.21 1.064 1.065c-.46.64-.96 1.251-1.497 1.829a20.088 20.088 0 01-1.956 1.836c-.331.899-.669 1.804-1.006 2.709l1.592 2.549.529 1.696h1.809l2.867.956.319 2.441-2.338 1.167-1.376 2.46v3.187l-.529 2.219.318 1.695.854.746 1.485.529 1.121 2.161.153 3.047-1.274.529-1.912 1.912 1.185 2.046 2.014 2.193 1.803-.638 1.274.083 3.09-.223 2.038-.159.638 1.275-.714 2.849 2.16 2.161.681 2.549 2.224 2.225v2.046l.637 1.721-.682 2.199z" fill="#9DBE39"/><g opacity=".7" fill="#9DBE39"><path d="M500.655 116.699l-1.835-.382-.574.478 1.058.484 1.351 1.058.573-.771-.573-.867zm-56.403 25.548l-1.058.197-1.783 1.779v1.204h1.49l.485 1.161 1.274-.58 1.446-1.447v-2.314h-1.854zm47.146-37.308l-.867-.867-1.542-.096 1.013 1.014.637 2.263h1.275v-1.275l-.516-1.039zm28.427 2.798h-1.828l-2.6-.873-1.21 1.109-1.102 1.109-1.109 1.109.637 1.498 1.058 1.058-.676 1.543.58.58.867-1.83 2.217-.484 1.911-.771 2.599-1.543-1.344-2.505zm-9.556-.484l-1.16.095-.841.752.675 1.913 1.109 1.109.917-1.785v-1.447l-.7-.637zm-3.275-9.16l-1.446-1.058-1.708-1.045-1.739-1.275.58-1.275.917-.918.72 2.46 1.109 1.11 1.911.337 1.159-.484h.962l.963-.963-.485-2.027h-1.541l.388-1.733v-1.275l-1.274.382h-3.115l-1.013 1.014-1.536 1.16-1.159-1.16-2.791.867.191 1.74.726.72 1.058 1.064.72.72-1.058.868-1.446-1.275-.771.765-1.057-1.058-2.409.484-1.063-.58-.478 1.275.771.771-1.447.771v1.83l1.154 1.153-.287 1.352h1.057l1.351 1.351-.389 1.543 1.74.867 2.312.095.962.963h1.676l2.026-.574v-1.504l-1.274-1.16.675-.676 1.013 1.013 1.784-3.225 1.682-1.689.726.72 1.542-1.542.478-1.447-1.733-.574-1.134 1.122zm14.354-15.425l-2.115.962-1.109 1.275-1.21 1.204h-.478L515.518 85l-3.223 3.226-1.447-.676.191.771.485.676 1.057 1.543 2.071.726 1.274-1.275h1.739l1.733-.675 1.587-.727 1.013-1.013v-1.339l.866-2.41-1.516-1.16zm96.623 168.851l-1.746.37-.924 1.007v2.664l1.561-.637.828.828.924-.917.363-1.843-1.006-1.472zm-20.84-224.11l-.248-2.211v-2.633l-1.383-1.09-.841-.318-.739.771-1.605.848-1.313 1.313.121 2.27-.56.56.28 1.83 1.051 1.542 1.09 2.55 1.688.357 1.14-1.148.86-1.561-.949-1.02 1.408-2.06zm120.61 181.014l-1.274-1.275.095-1.657-.924-.918-.547 1.651-.873.873 1.013 1.014.592 1.243-.185 1.651-.089 2.116.962.963 1.058-.593v-2.212l.968-.963-.796-1.893zm-41.367-75.189l-.637-1.275.637-2.116v-2.55l-1.746-.733-1.102.637v2.021l-.185 1.842 1.102.733.733.918.096 1.657 1.471.548-.369-1.682zm19.017 157.269l-1.274-1.651-2.16-1.243-1.242 1.243-2.02-.095-.828-1.747h-1.561l-1.376-1.376h-2.389l-1.561-1.014-3.032-3.034s-.37-2.55-.09-2.849c.281-.3-1.197-1.913-1.197-1.913l-1.523-2.403v-1.102l.369-1.384-.369-1.912h1.376l1.746-.548.917-.918.37-1.198-2.549-1.007-1.471-1.199-2.294-1.376-2.714-1.422-2.02-1.746-3.128-1.747-2.293-2.027-2.39-.918-1.745-.459-2.714-2.804-1.421-1.422-.917-2.486-1.103-1.561h-1.382l-2.549-1.651-.554-1.473-2.293-.459-1.275-1.275-.637-1.472-1.197-.548-2.383-.638v1.377l.548 1.562.732-.185 1.771.637 1.217 1.218v.688l1.275 1.275-.37 1.836-2.115-.637v1.383l-.637 1.835 2.548.829 1.274 2.39 2.389 2.391v1.377l2.205 3.034 1.656.185 2.753 1.191 3.491 1.562 1.274 2.116 2.026 2.754 2.294 2.301 2.758 2.76 3.396 4.685 1.561 3.308 1.841.555 1.911 1.096 1.835 1.753 1.472 2.849 1.191 1.562 1.746 1.747 1.841 1.835v1.747l2.753 2.549 1.561 1.562 1.197 1.473 1.466-1.199-1.103-2.39-1.465-1.466-.459-1.842.733-1.881h2.345l1.051-1.058c.947.477 1.931.876 2.943 1.192.453-.019-.006-1.122-.006-1.122h-.026z"/><path d="M715.065 196.504l-.599-2.55c-1.096-3.863-3.077-7.413-6.81-9.651a3.415 3.415 0 01-.287-.235l-.185-.077-.038-.147a4.09 4.09 0 01-.968-3.473l-.058-.204.115-.255c.159-1.039.484-2.091.733-3.066v-.504l.324-.044c.88-.797 2.772-.421 1.638-1.556l-.077-.102-2.624-.637-.905-.899-1.86-.695-.192-.293a4.62 4.62 0 01-1.35-1.198 6.247 6.247 0 01-1.102-4.768l-.223-1.275 1.063-2.339 1.02-.638c.357-.586.745-1.179 1.153-1.791.234-.22.381-.516.414-.835l-.248-.637-2.103-1.709-3.606.428-.866-.867a8.976 8.976 0 01-2.09-1.02l-.548-.134-.337-.555a6.235 6.235 0 01-2.052-3.786l-.478-1.912.567-.172c.287-.478 1.128-.555 1.746-.918l.637-1.485a1.45 1.45 0 00-.089-.211l-1.912-1.944h-1.803l-1.083 1.09-.637-.146c-1.707.637-2.312-.638-3.3-1.11a3.088 3.088 0 01-1.121-.981l-.414-.287-.153-.714c-.338-.727-.593-1.536-.918-2.269l-2.108-2.116c.879.969-.478.682-.109-.109l-.745 1.594-.37.37a3.704 3.704 0 00-.235 2.466l.388.874a4.854 4.854 0 01-1.631 0h-1.338l-.879-.861c-.981-.58-1.911-1.332-2.899-1.95l-.923-.485-.319-2.339-.198-1.396c-1.019-2.269-3.096-3.895-4.529-5.877l-.459-.459-1.593-2.658.911-.912c.077-.191.172-.382.255-.58v-2.441h.835c.796-.274 1.35-1.077 2.077-1.708.197-.083.216-.255.165-.287a1.968 1.968 0 01-1.019-.504l-.803-.369v-2.014l-1.166-3.086 1.274-.102.574.574c.968.529 1.879 1.371 2.931 1.868-.313-1.243-.797-2.397-1.185-3.519l-.638-.943v-1.402a5.85 5.85 0 01.364-3.066 1.829 1.829 0 00-.376-.963l-.306-.306.777-1.115a53.606 53.606 0 001.81-2.894l1.019-2.365.395-.128a1.834 1.834 0 011.752-.554l.51-.166 1.834.918a.57.57 0 00.172-.051l.223-.198c.436-.47.916-.897 1.434-1.274-.382.133-1.504-1.333-.898-.886-.311-.326-.6-.67-.867-1.033l-1.159-1.275-.3-1.192a11.163 11.163 0 01-.93-6.253 3.834 3.834 0 01-.223-.236l-1.631-1.46-.541-1.689a23.214 23.214 0 01-2.001-7.272l-.115-.28-.637-2.971v-3.825l-.414-1.912c-.605-1.32-1.644-2.632-2.083-3.946a.655.655 0 010-.197l-.019-.153.796-.797-2.491-1.644.637-.957h.886a5.437 5.437 0 011.395-.114l.108-.23a3.252 3.252 0 01.988-2.129l.229-.497.599-.242a4.83 4.83 0 001.312-1.364 2.282 2.282 0 00-.433-2.078l-.943-.944-.312-.733a3.338 3.338 0 01-.427-.867c0 .173-.274 0-.114-.203a1.707 1.707 0 01-.466.331l-1.127.886-.898-.74c-.325-.038-.638-.076-1.039-.095l-.637.096-.637.637c-.147.274-.3.516-.58.516h-1.274c-1.274 1.275-1.911 1.913-2.549 1.275a2.317 2.317 0 01-.261-.312h-.108v-.172a1.365 1.365 0 01-.159-.829c-.325.261-.943-.433.159-.484l-2.332.102-1.274.216-.796-.057a5.71 5.71 0 00-1.064.395l-.37.638-1.331 1.325-2.007.045a4.465 4.465 0 00-1.549 2.135v.835l-.713.274c-.272.207-.597.33-.937.357a1.217 1.217 0 00-.102-.471l-.688-.689 1.695-2.02h-.707a4.356 4.356 0 00-1.236.318h-.045l-.637.268-.337.14c.062-.283.179-.552.344-.79l.407-.892.637-.275.051-.05.281-.09 1.274-.542h.803a2.906 2.906 0 001.095-.497l.364-.593a.874.874 0 000-.19 6.19 6.19 0 00.503-4.24l-.217-.764a11.104 11.104 0 00-1.694-3.15l-1.912-1.912c-.362.32-.801.54-1.274.638l-.076-1.422a.782.782 0 00-.829-.599h-.331c-.522.07-.56.638-1.159.638a2.397 2.397 0 01-1.568 0h-.076l-.077-.077a2.582 2.582 0 01-1.541-2.824l-1.67-.286a2.5 2.5 0 01.536-.536l.102-.102.133-.057c.255-.162.532-.286.822-.37a1.858 1.858 0 01-.637-.637l-.14-.14v-.179a1.276 1.276 0 01.134-.829l1.057.638h.039c.971.56 2.065.872 3.185.911l1.363-1.051 1.313 1.007a.914.914 0 00.178-.051l1.644-1.645v-2.715l-.548-1.02a2.822 2.822 0 00-.465-.287c.637-1.275.637-2.55 1.911-3.187 1.517-.504 2.632.593 3.982.752l1.65-.555c.164-.153.315-.32.453-.497l.981-2.141 1.178-1.275c.34-.53.777-.99 1.287-1.358a15.91 15.91 0 011.663.051c.318-.15.578-.401.739-.714l.784-2.09h-.096a5.284 5.284 0 01-1.503-.447l-.204-.064v-.12a.491.491 0 010-.587v-.166h.229a9.12 9.12 0 012.001 0l-.179-.414-.567-1.275v-1.39l-.127.166c-.166.21-.319.415-.472.6l-.108.133-.459.587-1.165.318-.51-.784c-.981-1.051-1.778-2.25-2.823-3.295a2.59 2.59 0 010 .67v.445l-1.274-.484a6.504 6.504 0 00-1.86.16l-.542.541-1.911-.319 2.013-1.364a3.14 3.14 0 00.376-.49v-1.983c.114-.344.203-.695.268-1.051a.772.772 0 00-.287-.185c-.637.637-2.204.637-2.204.637l1.051-2.212a1.67 1.67 0 00-.076-.42l-.848-.912-1.382-1.173s0-.064.038-.166l-.121-.05a.729.729 0 01.229-.542c.056-.24.098-.483.128-.727-.256 0-.511.015-.765.045a9.402 9.402 0 01-1.548.675 8.991 8.991 0 01-1.274 1.352l-1.039 1.434h-.745l-.765.287a30.222 30.222 0 00-2.886 1.772l-.382.382-.542.765a4.83 4.83 0 00-.579 2.205l-.115.102-.038.332-.542-.051a.962.962 0 01-.637-.058v.759a.64.64 0 00.287.268l1.274.306.166.044-.803.549a4.16 4.16 0 00-1.739 2.409l-.115.331c2.418.713 4.98.785 7.435.21v1.276l-.389.21c-.637 1.039-1.911 1.275-2.854 2.225a1.748 1.748 0 01-.637.274l-.102.102-.102-.077c-.975.058-1.816-.88-2.733-1.364l-1.784.542-.637-.638a16.81 16.81 0 00-1.95-.535l-.586.331-1.707.759-1.274 1.275-.637.37-.638.681-1.07.313a69.904 69.904 0 00-3.561 2.224l-.886 1.275-1.828.727a30.633 30.633 0 00-4.122 3.952.976.976 0 01-.637.306l-.389.389-2.281 1.332-.599.261a13.24 13.24 0 01-2.969 1.498l-4.88 4.883-2.262 2.16c-.242.41-.455.836-.637 1.275-.325.638-.637 1.275-.962 1.849l-.255.918-.872 1.326a15.67 15.67 0 00-1.096 2.925c-.02.714.036 1.427.165 2.13-.802.42-2.077.42-2.714 1.058a5.104 5.104 0 01-.592 1.198l-.045.93-1.096.549c-.375.414-.739.803-1.019 1.185l-.331 1.243v1.167h2.128l.089.204a.788.788 0 01.248.592l.236.542a11.642 11.642 0 012.071-.172l.637-.102.337.147c1.593.134 3.186.637 4.135 1.6l.306.057.287.765c.093.187.165.384.216.586l.134.35-.038.122c.05.38.05.767 0 1.147l-.363.083-.109.35-2.121.53-1.606.727-.503.229-.229.108-.274.102a9.12 9.12 0 01-.72.274l-.236.083-.452.172h-.191a3.223 3.223 0 01-1.708 0h-.541l-1.593-1.593.503-.504a14.357 14.357 0 00-.153-2.23l-.745-.746a5.388 5.388 0 00-.892.733c-.968 1.026-1.026 2.205-.694 3.537l.707 1.014-.191.567c.191.504.414 1.033.637 1.575l.197.197-.083.338a2.37 2.37 0 01-.426 1.695l-.128.517-1.319.95c-.504.41-.954.883-1.338 1.408v1.677l-.057.057v.255a1.728 1.728 0 01-.605.35l-.752.727h-1.58l-.886 1.67c0 .077-.044.16-.063.242v3.385l-1.523 1.53c-.103.13-.214.253-.331.37a.623.623 0 00-.153.223v1c.12.332.299.638.529.906l.478.478h-.064c-2.23 0-3.912 2.511-5.836 2.383l-.739.326-1.758-1.76c-1.434-1.115-2.925-2.218-4.702-2.55l-.867.045-2.612.395a9.496 9.496 0 00-1.478.842l-1.427 1.734-2.23 2.23-1.765 2.608a15.68 15.68 0 00-.885 2.422v1.963l-1.275 1.625a6.203 6.203 0 01-2.191 2.397l-.637.638-2.23.102-1.911-.988a1.894 1.894 0 00-.319.031l-2.478 1.377a1.444 1.444 0 00-.14.395c.146.638.471 2.219.293 2.18l-.179-.184-.197-.204a.935.935 0 01-.109-.109l-.127-.134c-.236-.235-.465-.484-.688-.726l-.714-.765-.337.389c-.211.248-.395.465-.574.637l-.567.637h-.535c-.421.08-.853.08-1.274 0h-.542s-1.433-.478-.745-1.166c.14-.14.293-.306.44-.478.28-.389.637-.81 1-1.23l.064-.089c-.899.988-1.708-1.186-.249-.338a.96.96 0 01-.121-.109l-.873-.637c-.678.005-1.354.074-2.019.204l-1.746.758-1.911.931a6.447 6.447 0 00-.453.637l-.764 2.129-.089.306a16.062 16.062 0 00.07 3.36l.229 1.223v2.021l-.223.21c0 .102 0 .211-.045.313 0 .637-.637.637-1.535 1.173l.471-3.704a2.055 2.055 0 00-.146-.491l-.988-.312a4.41 4.41 0 00-1.408.325l-1.006 1.007-1.943.956c.051-.752.051-2.027.688-2.664l.051-.204a9.58 9.58 0 001.083-.491 1.633 1.633 0 00.745-1.198l-.592-.593-2.746 1.237-3.294 1.274a1.915 1.915 0 00-.376.638 5.624 5.624 0 01-.975 1.638l-.134.389-.707.35c-.326.222-.679.4-1.051.529l-1.217.606h-1.911c-.088.035-.171.08-.249.134l-1.089 1.052-.14.146.299.185.325.204.261.159 1.345.829.127.637.038.166.153.714-1.013.918h-.032a3.935 3.935 0 00-1.274 1.912v.835a2.748 2.748 0 001.274 1.53l1.064-2.76.739.637v.899c.301.701.651 1.381 1.045 2.034l.765.401 1.593 1.594.739.42c-1.224 2.333-1.861 1.696-3.135 1.696a1.76 1.76 0 00-.847.21l-.784.854-.898.899.331.147a9.813 9.813 0 011.491.669l.669.3v1.593l-.446-.121a16.01 16.01 0 00-2.625-.478l-1.274.07-2.326.536c-.228.12-.441.265-.637.433l-1.013 1.88a8.164 8.164 0 00.121 2.709l.115.638h-2.071c-.943.287-1.803.803-2.835.637h-.089l-.051-.051-.217-.064c-.86-.427-1.433-1.153-2.319-1.51l-1.554-.185c.637.076.185 1.275.038.554v1.141c.128.217.255.428.376.638l.956.956v.88a15.462 15.462 0 011.459 4.901l.242.803-.191 1.773v.248a2.72 2.72 0 01-1.861-.975l-.433-.223a3.863 3.863 0 01-.637.414l-.465.465-.637-.121a2.875 2.875 0 01-1.548-.293h-.064l-.096-.064a7.02 7.02 0 01-1.025-.682l-.446-.299-.44-.44a11.343 11.343 0 00-2.166-1.587h-1.644c-.267-.638.37-1.913-.905-2.55l-.101.096c-.223.459-1.109.86-1.109.86l-1.019-1.02a.86.86 0 01-.204-.204l-.261-.261.159-.159c0-.236.223-.383.503-.51l.185-.185.828-.255c.143-.073.275-.167.389-.281.068-.139.123-.284.165-.433v-1.147a2.628 2.628 0 00-.506-.906 2.637 2.637 0 00-.819-.637l-1.758 1.109a4.866 4.866 0 00-.433-2.454l-.516-.516a1.911 1.911 0 00-.918-.255h-.554c.187-.94.247-1.9.178-2.856l-.713-.236a11.31 11.31 0 01-1.561-.095l-.421.427-1.096-.842a3.382 3.382 0 01-1.127-.835c.242.37-.3.759-.115-.127 0 .102-.217.86-.828.975-.334.39-.62.818-.854 1.275a5.174 5.174 0 000 .682l-.255.191v.23c-.085.006-.17.006-.255 0l-.324.242-.548-.637a1.908 1.908 0 00-.727-.236l-.414.102-.414 1.275-.057-.045a1.005 1.005 0 01-.134-.089l-1.491-1.02-.968-.969c-.155.02-.308.05-.459.089l-1.013.771-.484-.484a.804.804 0 01-.739-.637c0 .325-.274.841-.102.044l-.268 1.065-.427 2.447 1.593 2.442.07.484a3.14 3.14 0 01.338 2.014c.127.561.287 1.537-.089 1.537-.276.015-.55.045-.822.089-.637.879-2.549 1.447-4.052 2.059l-.223.191-1.013.382-.35.134-.861.325-.229-.363a6.038 6.038 0 01-.924-1.453l-.121-.198-.172.637-.044.173-.115.471-.089.721h-3.351l-.727-.727-.051-.045c-.114-.102-.223-.216-.344-.338-.121-.121-.255-.261-.401-.408l-.229-.229v-1.543c-.918.134-1.912.262-2.874.428l-.363.108-2.223.408c-1.634.367-3.197 1-4.626 1.874l-1.803 1.81-1.006 1.007 1.484 1.383h-1.491l-.554-.784c-1.37-1.07-.879-2.862-1.835-4.264l-.35.491a9.626 9.626 0 00-1.402 2.645c-1.153-.357-2.453-.911-3.708-1.224l-.223-.051.274 1.868.847.669-.21 1.02-.732.771.484 1.231.943 1.421.904.905-.369 2.135.758 1.588 2.147.796v1.116l2.867 2.072 1.357 1.351v2.632l1.51 2.869h1.676l.159 2.148h-.879l-.44 1.479-2.032 2.027-1.752 1.198.082 2.148v1.676l-1.592.555-.561 2.072 1.198 1.198v1.753l-.637 1.434-2.154-.637-1.593.478-2.306 3.263-2.23.88v.873l.574 1.434.796 1.855 1.854 1.275.204 3.519 1.854 3.384v1.39l.465 2.658.599 4.111-1.593.466-1.064 1.727-.994 1.033.599 1.791.599-.6 1.988.797v1.728l.72.726-.727.638v1.855l1.854.994.599 2.926 2.192 2.186-.733 2.059-1.274 1.989.535 1.593v1.39l-.637.669v2.116l1.128.536h1.726l.86-.867h1.001l.923 1.122 1.912-.727 1.459.637 1.159-1.16 1.561.096.07 1.275 1.491 1.491v1.358l-1.427.402v2.052l1.72-.134 1.79-.535 1.593 1.128 1.319 2.384.599 2.32.726.733-.637.638v1.523l1.656.79h1.53l1.153 1.16-.217 2.034-.835.828v1.403l1.211 1.217.637 1.434.198 1.275 1.325.459 1.854.797v2.588l-.402 2.645v2.99l-.331 3.187v.261l.255 5.048 2.548 2.55 2.287-.166 1.064-1.58.638-1.996h1.656l3.517-1.325.331-1.715 1.325-.599 1.389 1.383v1.868l1.192 1.651v-2.187l2.784-1.912v-3.723l1.987-1.988.797-2.391-.421-1.459-.172-.593 1.491-1.492.637-2.084 1.274-1.53 2.249.332 2.256-.268 2.382 1.122 2.058.268v1.912l.988.86v1.517l2.312.332 1.491-1.492v-1.625h1.701l1.16 1.16 1.421 1.555v1.517l1.318.134.861 2.39 1.395 1.396 1.618 1.613-.363 1.16 1.089 1.084.497 2.409 2.313.867 1.656 2.186 1.587.536v1.918l1.72.466v1.275l1.274 1.274 1.854.478 1.434-.478.745 1.218-1.274 1.593.688 1.333 2.179.58.637-1.594 1.274-1.275 1.274.345.848.854.108 1.804 1.274.478 1.223-1.702 1.695.854.828 2.059.688 1.217-.261 2.709 1.166.16 1.434 1.542h.847v.746l-1.593.956.905 1.377.529 2.288h1.828l.688 1.377 1.179 2.04c1.274-.925 2.669-1.734 4.007-2.518l1.663-1.218h1.045a32.198 32.198 0 019.257-1.402l.529-.287h2.23l4.243.427.694.695a5.511 5.511 0 012.389 1.396l.319.14.115.306a10.286 10.286 0 011.458 2.123l1.192.325h.255l.095.096h.07l1.695 1.695 2.447 1.912.484 1.16.306.217c.637.504 1.191.975 1.764 1.422l1.058.178s2.013 1.594 2.013 2.014c0 .134.179.325.421.536l.082.07c.417.322.853.618 1.307.886l1.535 1.542.095.185a30.956 30.956 0 011.912 2.091c.181.298.46.523.79.637l.433.083c1.274.096 3.09-.899 4.772-1.23l.847-.854h2.676a11.6 11.6 0 011.682-.204l1.58-.217 2.02.529 2.083.548a8.233 8.233 0 001.134-.688l.446-.446.217.057c.128-.066.269-.105.414-.115a5.53 5.53 0 011.42.587l.23.057.255.255a7.066 7.066 0 011.554 1.505l1.274 1.109v1.115c.148.361.27.731.364 1.109a.808.808 0 00.286.453l.835.299 2.045 1.173h1.274a5.56 5.56 0 01.975-.994l.255-.912 1.911-.637 2.23-1.275 2.166-1.753a.222.222 0 00.051-.083l-.331-1.032a2.276 2.276 0 01-.414-1.275l-.096-.306.867-1.109c.981-1.912 1.911-4.156 3.185-5.622l.178-.599 2.549-1.384h1.803l.344 1.116c.485.44.913.939 1.274 1.485l.319.325 1.331 1.326v1.275a.817.817 0 010 .185v.886l-.828.828c-.217.255-.44.478-.637.638-.01.099-.01.2 0 .299l1.911 2.046.274 1.199c.408.455.728.983.943 1.555 0 .281 0 .561.038.835l.446.765-.191.752c.174.729.386 1.448.637 2.155l.599.809.102 1.122c.379.885.686 1.8.917 2.735l.421.924-.268.707v.032c-.029.351-.16.685-.376.963l-.165.433c.34.456.627.95.854 1.473l.815 1.274-.408.81a3.221 3.221 0 01-.619 1.622c-.35.474-.823.844-1.369 1.068l-.076-.07-1.752-.587-1.637.816a2.721 2.721 0 00-.969 1.728 8.21 8.21 0 01-.579 1.313v.637l-2.498 2.499.038 1.453c.357.312.707.637 1.058.963l.873.293 2.013 2.014.42 1.077c.88.993 1.673 2.059 2.37 3.187l1.619 1.619 1.115 2.499v2.123l-.841 1.682a11.401 11.401 0 01-1.077 3.417l.178.172c.332.108.975.312 1.58.472-.165-.198.867-.396.994.102a3.532 3.532 0 010-.682v-1.976l.905-.899.586-2.072-.427-1.81.109-.676a8.266 8.266 0 01.318-3.04l1.376 1.383.905.899V360.9l.682-1.543.114-.261.797.796v.389c.522.772 1.115 1.454 2.089 1.371l1.676-.963 2.663-1.064h1.045c.168-.082.329-.176.484-.281l1.446-2.696 1.383-2.97 1.988-3.283c.031-.108.051-.223.076-.338l.057-.95v-1.383l.211-5.099-.638-3.927.638-3.824v-9.243l.159-.541c.044-1.466.115-2.913.21-4.354.088-.728.13-1.46.128-2.193l-.497-3.187-.638-3.079-.847-3.403-1.166-3.079v-.637l.089-3.277-1.172-3.824.108-.638v-.032c.16-2.122.79-4.653.153-6.559a34.62 34.62 0 00-1.236-2.67h-.031l-1.95-3.111-.433-1.192a75.248 75.248 0 00-2.479-3.735l-1.236-1.237-.254-.867-1.67-2.333-2.376-2.377-2.172-3.13-1.383-4.251-.166-2.129c-.223-1.027-.446-2.047-.739-3.022l-.471-.905-.937-.93-.159-.064-1.911.248-1.593-1.593-.223-.727a3.623 3.623 0 01-.255-.44.851.851 0 00-.363-.204h-1.981a4.976 4.976 0 01-1.313 0l.637-1.172.739-.74.325-.319.688-.694-1.299-1.326a.273.273 0 01-.07 0 8.23 8.23 0 01-1.912.599c-.427 0-2.128.28-2.746.389a2.129 2.129 0 00-.286.242 5.52 5.52 0 00-2.173-1.358l-1.057-.121h-2.67a11.87 11.87 0 00-2.988 1.084l-.637.637-1.911 1.065 1.172 2.122c.42.64.803 1.304 1.147 1.989l.802.803-.242 1.568v.185l-.082-.064-.071-.044a3.178 3.178 0 00-1.497-.217 3.325 3.325 0 00-1.274 2.55l-.153.134v.082l-.484.192-1.637.637v-2.983a4.908 4.908 0 00-.72-.867l-.555.185-1.274-.956v-1.058c-.478.516-.204.816 0 0l-.388.42v.032a2.084 2.084 0 00.07 2.773l.637.28v.478l.044.045c.637 1.275-.637 1.912-1.274 2.55.01-.136.01-.272 0-.408l-1.128-1.128-1.013-1.855v-.695c-.637-.637-1.662-1.67-2.274-2.32.306.389-.452.414-.134 0a9.782 9.782 0 01-.458.452l-1.007 1.014-1.459 1.377h-1.032c-.413.207-.839.388-1.274.541l-.701.702h-1.618l-.956-2.149.567-1.548c.07-.517.172-1.039.287-1.556v-1.912l.592-.994c.057-.342.086-.687.089-1.033.268-.943.593-1.912.911-2.97v-.638l.956-3.607v-4.462a6.372 6.372 0 00-1.013-2.059l-.038-.038-.166-.211c.064-.248.121-.503.166-.752v-2.639l.331-1.37c0-2.372-.153-4.698.306-6.91v-1.071l.828-1.383c.083-.178.179-.357.28-.535a9.56 9.56 0 01-.7-1.071l-.637-.638-.95-2.441.529-3.397 1.586-1.588a8.296 8.296 0 01-1.65-3.327l-.044-.083v-.083c-.739-3.882 2.211-7.394 5.097-10.836l.528-.898 1.217-1.212c.497-.637.969-1.274 1.383-1.874.885-1.332 2.695-.809 4.09-1.045l1.427-.931c-.382.185-.573-.312-.293-.248a2.13 2.13 0 01-1.019-1.619l-.115-.185.197-.185a.806.806 0 01.172-.248 4.52 4.52 0 01.313-.192l.586-.541h.452c.637-.313 1.313-.638 1.911-1.02l.383-.357 1.433-1.415a2.01 2.01 0 00.134-.51l-.561-1.913-.038-.114c.599-.179 1.618.491 2.332.739l.745-.803a2.335 2.335 0 00-.057-.261 23.07 23.07 0 00-.363-1.275l-.217-.217-.529-2.021.3-.898c.043-.131.098-.257.165-.376l.083-.262.096-.095a4.265 4.265 0 011.121-1.186l.166-.102c1.032-.637 2.058-1.389 3.115-2.142l.07-.089.147-.07a32.197 32.197 0 012.822-1.848v-.415l1.128-.178c.87-.421 1.794-.721 2.746-.893h.038l.35.351c.096 0 .249.134.446.446a4.569 4.569 0 00-1.911 1.173l-.242.79v1.333a.638.638 0 01.153.121c.35.14 1.185.516.803.898a.31.31 0 01.044.096 9.459 9.459 0 011.485-.096l.49-.108.746-2.014v-2.231l1.159-.491c.256-.343.561-.646.905-.899a.303.303 0 00.076-.108l.185-.918a.441.441 0 000-.089l-.694-3.512-.032-.147a6.825 6.825 0 011.854-.306l1.159-.198c-.038-1.007-.407-2.001.172-2.651v-.242l.637-.198c.395-.19.76-.437 1.083-.733l.09-1.581v-.038c-1.376 0-.039.758 0 0h-1.447a13.741 13.741 0 01-1.752 1.543l-.516.471-.458.07a1.605 1.605 0 01-1.339.054 1.625 1.625 0 01-.917-.978 1.964 1.964 0 000-.287l-.133-.134v-.439c-.555-1.626-2.396-3.251-2.396-4.877a27.004 27.004 0 00-.924-7.26l-.93-1.447.115-1.045-.172-.446v-1.728l-1.096-.733-.179-.089v-.045l-.242-.159v-.427a6.32 6.32 0 01-.082-3.716v-.529l.248-.293a39.22 39.22 0 011.707-3.959l.173-.637v-1.702h2.593c.187-.276.341-.574.458-.886l.147-.421a4.762 4.762 0 00-.038-2.46l-.402-1.116 2.969 2.767.491 1.039c.949 1.147 1.911 2.301 3.019 3.423v-2.665l.325.166 1.587.79.592 1.479.262.637.637-2.058c.044-.241.076-.483.095-.727l-.185-3.589a.818.818 0 000-.14l-1.038-2.505v-1.389c-.325-1.014-.669-2.015-.968-2.984l-.357-.357.172-.248c0-.077-.045-.16-.07-.236l.356-.166.548-.777.956.102.064-.402c0-.185.051-.389.121-.784v-.185h-2.096l-.332-.331h-.305c-1.912-.638-1.912-2.55-3.823-3.825-1-.497-.433-2.173.166-3.493v-1.064l.573-.313c.319-.586 1.332-.867 2.23-1.434l1.166-1.16c.268.185.5.418.682.688-.223.593-1.319 1.275-2.007 1.913v1.995c.204.268.42.529.637.797l1.592.988 1.491 1.912.637.637a21 21 0 001.275.854l.637.23h1.376l.637 1.275a6.017 6.017 0 011.395 2.046l.593.593v1.44a7.977 7.977 0 01-.376 4.207c-.414.822 0 1.912.637 3.104l.369.306.204.638c.223.344.459.701.695 1.051.987 1.479 1.21 3.341 1.554 5.285l.771 2.67a104.94 104.94 0 012.262 5.514l.675.886 1.274 3.927.529 3.403 1.064 3.187-.497.498v.127c0 .638-.599.638-1.217 1.218l.102.178a1.662 1.662 0 01.637 1.128l.204.357-.267.574a13.275 13.275 0 01-1.338 2.83l.401.089h1.536c.212.357.409.721.592 1.09l1.274 1.791.217 1.651.478 1.167 1.115 1.115v1.218c.412.762.889 1.487 1.427 2.167l.783 1.166 3.033 2.977c.328.757.703 1.494 1.121 2.206.191.197.395.388.599.567l2.549 1.689 2.268 1.218c3.02 1.019 6.466 1.153 8.824 2.919 3.822 3.824 7.645 4.462 12.105 7.011.163.083.321.176.471.281l.331.153 1.912 1.912h2.121l.962.956a29.644 29.644 0 004.065 1.594h1.535l.153.21c.331.038.465.287.637.638.07 0 .319.255.376.599a50.493 50.493 0 00-.739-5.641z"/></g><g opacity=".5" fill="#9DBE39"><path d="M552.91 342.211c.07.089.134.178.198.274v2.288c-.529.542-1.478.542-1.994 1.186l-.236.063-.981 2.282c-1.912 2.85-5.46 3.825-9.175 4.156l-.77-.064-2.867-.535-1.275.752c-1.592.376-3.013 2.167-4.835 1.709l-1.274-.638a6.85 6.85 0 01-.472-.427h-.637l-.917-.338-2.657 1.167-3.823 3.824-.452 1.575c-.593.905-1.16 1.823-1.733 2.67a19.766 19.766 0 01-3.249 2.55l-3.186 1.479-3.924 3.933h-3.402l-1.803.561c-1.275.108-2.593.242-3.893.395h-1.657l-3.185.427-2.3-.765a10.189 10.189 0 01-1.077-1.141l-.35-.637-1.478-1.492h-.402a2.711 2.711 0 00-.592-.217c-1.491-.497-3.377-.216-5.04-.07l-1.694-.242-.752-.484a1.445 1.445 0 00-.733-.472h-.108c-2.548 0-5.097.637-7.645.637a.47.47 0 01-.051.058h-.16l-1.681 1.695c-.482.36-.991.682-1.523.963l-2.02.465-2.65.746-3.823-.319-2.605-1.115-1.555-1.556c-.21-.44-.44-.879-.637-1.313l-.968-2.02-1.963-1.964-.306-.114a6.22 6.22 0 00-1.032-.638 10.61 10.61 0 00-1.038-.159l-.382-.153h-1.58a36.487 36.487 0 01-5.333-.427l-.841-.848h-1.523a8.04 8.04 0 00-4.249-1.198l-.809-.638-1.179 1.16c-2.211.925-3.345 3.264-4.37 5.737l-.115.115-.038.268c-.083.191-.16.382-.236.573a3.868 3.868 0 00-.045 1.205l-.102.714.364.44c.264.762.585 1.504.962 2.218v1.326l1.089 1.096c.328.807.426 1.69.28 2.55-.01.462-.137.913-.369 1.313l-1.637 1.083-1.835 1.881a6.405 6.405 0 01-.637.248 5.972 5.972 0 01-.765.325h-4.269l-2.866-.745-1.874.337c-.987-.21-1.981-.414-2.968-.554a5.607 5.607 0 01-.733-.051l-2.166-.752a9.693 9.693 0 01-.784-.51l-3.326-3.353-.235-.07a6.733 6.733 0 00-.357-.363 1.146 1.146 0 00-1.453-.192l-.388-.121-2.453.995-.159-.045a3.557 3.557 0 01-1.275-.784l-.758-.752-.044-.051c-.637-.682-1.275-1.275-2.256-.994l-.102.031c-1.051.529-1.675 1.498-2.956 1.811h-1.121l-.108.306a1.553 1.553 0 00-.217.637l-.35 1.033a6.534 6.534 0 00-1.319.21h-1.51l-3.504 2.231-2.007 2.014h-2.275v.115l-.42 2.231-.796-1.492v-1.753l-1.593-1.593.796-.797 1.752-.395.478-1.517-1.949-1.874-2.434-2.429-.714-2.307-.318-2.473.955-.956 1.829.478 2.07.159 2.033-2.033v-2.302l2.268-1.198.771-1.071.955-2.371 1.912-.86 1.752-1.753-.261-2.161 1.739-1.753.637-2.193-.637-1.721v-2.046l-2.224-2.224-.681-2.55-2.154-2.161.707-2.849-.637-1.275-2.013.714-3.115-.325-.982.975-2.07-.414-2.02-2.193-1.178-2.046 1.911-1.912 1.274-.529v-2.76l-.153-.287-1.121-2.161-1.491-.529-.847-.746-.319-1.695.529-2.225v-3.187l1.383-2.448 2.338-1.166-.319-2.442-2.867-.956h-1.784l-.528-1.695-1.593-2.55 1.006-2.709 1.65-1.644 1.803-2.021-1.063-1.077-3.071.21-.637-2.441-2.026-2.014-1.275-1.913-2.548-.637h-3.389l-2.867.746-2.332-.746-.637-2.123 1.911-1.912-.854-1.804-.994-2.059-.216-.44 2.421-2.422 3.822-1.638 1.568-2.613-3.001-1.313-2.689-1.766v-3.27l.077-.076a6.068 6.068 0 002.65-2.658l.637-.638.051-.86c.312-.733.586-1.505.873-2.295l.777-.778v-2.651l-.911-1.275c-.184-.383-.376-.771-.541-1.199l.917-1.752.949-1.205a6.224 6.224 0 001.459-1.619l.567-.568-.235-.535a.492.492 0 00-.051-.115l-.459-1.032.057-.255c.2-.546.31-1.121.325-1.702l.051-.255-.051-.293a8.014 8.014 0 00-.318-1.913l-.064-.344-.038.038v-.038l-.102.102a3.74 3.74 0 00-1.23.956c0-1.797-1.58-1.377-2.739-1.421l-.765-.166-.395-1.651c.026-.289.071-.577.134-.86l.79-.784-.153-1.791a2.489 2.489 0 00-.694-2.238c-.096-.089-.191-.178-.3-.261v-.051l-1.274-1.275h-.669a4.14 4.14 0 01-1.236-1.147v-.032l-.102-.204v-.045a1.866 1.866 0 01-.172-.809v-.064l.733-.567v-1.913l-.121-.216a.813.813 0 00-.16-.274l-.433-.753c0-.516.828-1.446 1.147-2.122l.274-.249-.306-.637-.21-.44-.389-.797-.433-.248c-.637-.638-1.363-1.205-1.911-1.862v-.745l-.695-.701a2.871 2.871 0 01-.038-.472c0-.096.045-.185.057-.274l.638-1.097-.351-1.912-.287-.293c-.146-.606-.35-1.211-.567-1.912.134 0 .255-.408-.089-.523l.223.045.586.127.599.128h.045l.114-.376c.249-.332.918-1.428 1.16-1.804l.261-.262.128-.376c.166-.303.276-.633.325-.975l.229-.637-.841-1.581c.968.274 1.223-.255 1.166-1.014l.197-.542-1-2.441v-.191a1.451 1.451 0 000-.969v-.491l-.93-.369a2.821 2.821 0 01-.796-.472l.031-1.179a.454.454 0 000-.421v-.153l-.044.045v-.039c-.102.096-.886.835-1.172 1.122h-.102l-.58-.58h-.032l-.045.045a.438.438 0 00-.121.102l-.637.554h-.134a1.035 1.035 0 01-.962-.344l-.261-1.351h-.044v-.211h-1.345l-.637-.102-.994-.994a7.281 7.281 0 01-.344-.408l-.274-1.071-.853-.848a1.567 1.567 0 01-.09-.369l-.031-.472v-.312c.014-.177.052-.351.114-.517.204-.306.414-.637.637-.988l1.115-.841 1.574-1.568.452-.72a3.897 3.897 0 012.549-.344c0-1.823.573-4.227.076-6.107v-.319l-.433-.242a13.797 13.797 0 01-2.313-1.982l-.14-.287-.057.051-.064-.134-.401.548-.516-1.096a.637.637 0 01.038-.434l.382-.388.51-.504c.384-.26.818-.437 1.274-.523h.045l.254-.044.415-.064.426-.064-.159-.822c.077-.402.382-.637.605-.943l.344-.345-.382-1.376-1.478-.797-.197-.051a13.595 13.595 0 01-2.154-1.46l-.312-.828h-.459a4.63 4.63 0 01-.586-.995c.225-.054.452-.095.682-.121l1.325.268 1.109-.166c.362.076.718.18 1.064.312l1.013 1.02 1.65.886c.352.454.624.965.802 1.511l-.427 1.217.638.638a3.05 3.05 0 01-.039.331 4.758 4.758 0 011.912 1.913c.497.503 1.401.637 2.382-.313h.542l.229-.918a.093.093 0 01.032-.044c.561-.561.134-1.122-.86-2.123l-.153-.21.051-.599c.19-.261.303-.571.325-.893a7.558 7.558 0 01-3.281-2.377l-.478-.791-.197-.197a5.476 5.476 0 01-.497-1.084c0-.637 1.274-1.912 1.274-2.55a5.161 5.161 0 00-.121-1.058l.287-.637-.599-.599c-.332-1.148-.701-2.276-.459-3.187l1.739-1.556a1.99 1.99 0 01.274-.057h3.549a26.03 26.03 0 013.778.956 7.438 7.438 0 012.039-.637h2.102l.637-.262c1.485-.095 2.931-.216 4.141-.905v-.032c.153-.088.3-.186.44-.293a.919.919 0 00.261-.414l.325-.325-1.051-1.594-1.141-.376-.433-.338-.764-.771.076-.077.096-.102.14-.133.166-.172.095-.096.147-.14c.426-.376.872-.701 1.121-.568.12.271.181.565.178.861l1.275-.319a6.401 6.401 0 01-.638-1.408l.389-.874-.637-.637a3.06 3.06 0 01.051-.689l.758-1.051 1.478-1.167-.548-.038h-.134c-.637-.07-.77-.191-.841-.72v-.931l2.982.108.242-.522a1.07 1.07 0 00.331-.23 4.546 4.546 0 012.16-2.294l1.357-.517.121-.121c1.599-.567 3.358-.886 4.638-1.523l.332-.045.089-.102a11.722 11.722 0 003.663-1.721l.121-.038.281-.332c.127-.13.246-.269.356-.414 2.167-1.173 1.529-2.448 4.078-2.448-.398.203.809-.654 0 0 .398-.202.94.064.94.064l.678.153v1.543l.185-.192c1.331-1.23 3.185-.637 4.523-1.504.276-.185.512-.424.695-.701 1.274-1.912 2.548.637 3.771-.523l-.955-1.275-.637-.484a7.432 7.432 0 01-1.275-1.645 11.761 11.761 0 005.53-.739l-.21-1.81-.235-.172a13.21 13.21 0 01-.287-4.067l.204-.637 1.561-3.863.21-.204 1.733-1.275.401-.427c.247-.214.472-.453.669-.714l.535-.574c.185.077.382.147.58.217l1.625.975.758-.102c.275.182.496.435.637.733a2.005 2.005 0 01.146 1.83l-1.153 1.154-.427.56a2.81 2.81 0 00-.943 1.275 3.248 3.248 0 001.829.102l1.535.083.587-.58a3.378 3.378 0 012.905.669l.681.689c-.962-.899-.484.535.039.159l-.039.045a5.358 5.358 0 00-1.108 1.102l-.166.166a3.591 3.591 0 000 .415v.197c.045.37.179.771.516.771h.102c.703.286 1.425.522 2.16.708h.083l.076-.255c.115-.376.204-.637.249-.886l.197-.669-.752-.746-.203-.21 2.344-1.275h2.109l2.026-1.428c.249.257.545.463.873.605l.509.504.969-.472c.255-.039.513-.06.771-.063a4.862 4.862 0 011.592 1.912l.567 1.154 1.275 1.064.751-.848c-.879 1.734.16 1.058.16.395a.551.551 0 00-.16-.395l1.912 1.913c.351.55.539 1.189.541 1.842l-.089 1.045-2.134-.427a2.774 2.774 0 001.624 1.275l1.338.733 1.319 2.282-1.21 1.224v.886c-.188.4-.352.81-.491 1.23a2.91 2.91 0 01-.389 1.236l-.184.255-.198.415c-.427.682-.93 1.415-1.325 2.173l-.707.708-2.122 2.549v.638c-.063.096-.114.191-.172.293v.88l-.452 2.129-.057.114-1.549 1.549-.592 3.066a2.728 2.728 0 01-.816.421l-1.777.446-.242.721a11.112 11.112 0 00-2.084 3.187l-.223.229-.101.637a21.974 21.974 0 00-.854 4.042l.089-.039c.51-.172 1.548-.216 1.644-.733l.178-.076-.242-1.192c.014-.504.201-.988.529-1.37l1.198-.734a12.33 12.33 0 012.656-.529c.414 0 .714-.363.911-.777.076-.115.13-.242.16-.376.077-.241.141-.486.191-.733l1.274-1.027a5.859 5.859 0 001.555-.828l.707-.268 1.006-1.97-.796-.796-.599-.045a.715.715 0 00-.166-.038c.841 0-.426-.446-.509 0 .2-.835.286-1.692.255-2.55l1.337-.089h1.275l.274 1.868.841.637-.204 1.02-.739.771.49 1.23.937 1.422.911.905-.37 2.135.758 1.587 2.148.797v1.116l2.866 2.071 1.358 1.352v2.632l1.509 2.868h1.676l.159 2.149h-.879l-.439 1.478-2.033 2.027-1.752 1.199.083 3.824-1.593.555-.56 2.071 1.197 1.199v1.753l-.637 1.434-2.153-.638-1.593.478-2.306 3.264-2.23.88v.873l.567 1.434.796 1.855 1.861 1.275.197 3.518 1.854 3.385v1.39l.472 2.658.592 4.111-1.593.465-1.064 1.728-.994.994.599 1.791.599-.599 1.988.797v1.727l.72.727-.72.637v1.861l1.86.995.599 2.926 2.192 2.186-.733 2.059-1.274 1.989.522 1.593v1.39l-.637.637v2.129l1.128.529h1.72l.873-.86h.994l.917 1.121 1.912-.733 1.458.638 1.16-1.16 1.561.102.07 1.275 1.497 1.491v1.351l-1.427.402v2.059l1.72-.128 1.791-.535 1.592 1.128 1.319 2.384.599 2.32.733.733-.637.638v1.536l1.662.79h1.523l1.16 1.16-.236 1.957-.828.829v1.447l1.216 1.217.638 1.434.197 1.275 1.332.466 1.847.79v2.582l-.395 2.658v2.989l-.325 3.187v.261l.249 5.042 2.548 2.55 2.287-.166 1.064-1.587.637-1.995h1.612l3.511-1.326.337-1.714 1.326-.6 1.395 1.39v1.861l1.191 1.651v-2.186l2.791-1.912v-3.717l1.987-1.988.797-2.391-.433-1.466-.166-.592 1.491-1.492.637-2.091 1.274-1.53 2.249.338 2.255-.267 2.39 1.121 2.057.268v1.912l.988.861v1.523l2.319.332 1.484-1.492v-1.625h1.701l1.154 1.16 1.427 1.555v1.524l1.312.134.867 2.39 3.007 3.015-.363 1.16 1.102 1.096.503 2.41 2.313.854 1.65 2.186 1.586.536v1.905l1.727.466v1.275l1.274 1.274 1.86.479 1.434-.479.745 1.218-1.274 1.593.688 1.333 2.179.58.637-1.594 1.274-1.275 1.274.345.848.854.108 1.804 1.274.478 1.224-1.702 1.694.854.797 2.059.688 1.217-.262 2.709 1.166.16 1.434 1.542h.847v.746l-1.593.956.905 1.377.529 2.288h1.828l.688 1.377 1.179 2.04a15.136 15.136 0 00-2.733 2.428l-.255.153-1.644 1.651-.739 2.218a5.268 5.268 0 00-.892 2.435l-.388.976 1.07 1.351.102.134.089-.077 1.172-.943c.326 0 .646.083.931.242l2.051 2.053a.979.979 0 01.064.114c.463 1.416.666 2.904.599 4.392l-.434.924-.637 4.571v.898a37.166 37.166 0 00-.637 3.659l-.503 1.275.37.72v.121a3.02 3.02 0 001.153 2.11l.063.121.701.772zM419.329 107.903l-.771-1.932-.866-1.447-1.153.485-1.16-2.027-.866-.867-1.058 1.256-.675 1.829v-1.345l.095-2.416-.675-1.345-.962.096-1.351 1.638.096 1.447-.574.963.383 2.6-1.16 1.16.102 2.601-.58 2.218-.484 2.218"/><path d="M419.335 107.903l-1.159 2.218-2.408 1.804-1.912.198-2.408 1.275-1.064.675-1.828 1.447-.81-.752m-3.637-19.881l-.867 1.064-.783 1.447-.676-.293.484-1.83v-1.912l-2.121.676s-1.274.293-1.542.389l-1.733.573-.675 1.447-.389 1.275-.866 1.058.293 1.275-1.638 1.275.771.669 1.153-.382.962 1.351.096 1.275.867 1.064 2.217.192.293 1.275 1.541-.963.771 1.275 2.116.771 2.026-.962.962-1.352-.771-1.542-1.275-1.74.962-.67.383-1.644-.478-1.83.191-1.829-2.274-1.402zm-8.034-12.8l-.236 1.594-1.433.637-2.154 1.434v1.996l.879.873-1.159 1.16-.752 1.472 1.032 1.435.401 1.434 1.829 1.593 1.676-1.593h1.114l1.67-.956 1.994-.638-.561-1.912v-2.39l1.198-1.04-1-.994-2.026-2.033-.72-1.594-1.752-.478zm-4.696 13.227l-1.357-.16.242 1.753v1.116l1.752.478.714.72 1.077-1.077.599-1.555-1.039-.797-1.988-.478z"/></g><g opacity=".4" fill="#9DBE39"><path d="M301.019 191.64l.797.262v3.614h-1.013l-.478 1.166-.847.427-.319 1.964 2.122 1.064v1.383l-1.963.797 1.644 1.645-2.548 1.274-1.912 1.913h-2.013l-.745 2.339h-3.613l-3.396.739-3.395 1.913v2.339l-2.714-.108h-.051l-2.039.318-1.115 1.275-1.988 1.039-1.994 2.008-1.835.242v-1.676l-1.35-.478-1.638 1.632-2.185 2.192-.956 1.836.402 2.307-2.549 1.594-.242 1.912-2.147 1.358-1.433 2.709.395 1.829-.873 1.677v1.434l-2.625 2.626-.357 1.874-.994.994-.56 1.518v1.67l-2.147 1.115v2.155l-1.198 2.944-2.147 1.913-1.593 2.39-1.433 1.434h-1.835l-1.752 1.517v2.709l1.357 2.148-.72 2.391-1.07 1.077v.758l1.153 1.192-1.325 1.275-1.319 1.077-1.829-.395-1.911 1.275.076 1.033.841.835-1.955 1.957-1.275-1.913h-1.42l-1.128 1.868-.478 1.995-1.752.873h-2.071l-.637-.637-.713 1.434v1.836l-.835.835-1.395 1.542 1.363 1.913 2.466 1.784h1.523l1.274 1.836 1.35-1.351.434 1.778-.485 1.613-1.274 2.377v1.275l-2.402.568-1.427 1.427-2.204-.809v-1.485l-1.185-1.186-1.727-.86-1.611-.485-2.32 1.721.434 2.046 1.025 1.027.319 2.855 1.351 2.155 2.637.267 1.128-.752 2.587.81.751 2.32v2.046h-1.236l-.771-1.026-1.777.159v.759l-1.644.561-2.179 2.186v1.185l-1.401 1.913v1.829h-1.153l-1.453 2.639-.268 1.562-1.669.758-.637 1.128h3.772l1.236-.484 1.726.752h1.077l.752 1.351-.535 1.345-1.995.969.16 1.345h1.134l.318 1.677.688 1.536 2.498 2.498.427 1.804 1.484 1.492-1.484 2.014-1.383 1.383h-2.338l-2.389.16-1.249-1.25-.834-1.733h-1.077l-1.141 1.147h-1.854l-2.102-2.065-.401-1.199-1.568-1.568v-2.69l-1.325-1.325h-2.44l-2.02.745-.745-1.593-2.013-1.594-1.81-.956-2.44 1.167-2.23.318-1.803-.529-1.274-2.447-1.809-1.594-1.274 2.129h-1.376v-1.702l1.274-1.275-.854-1.804-1.058-2.766-.426-2.868-1.593-1.913-2.549-.956-.745-1.804-1.376-1.402-2.549.427h-1.49v-2.02l-.739-2.123-2.606-.478-1.325 1.326-2.44.854-2.128-1.173h-2.23l-1.058 1.594h-4.676l-.529 1.172-1.382 1.377-.211 2.021-2.599-.478-1.542-1.543v-2.122l.688-2.072-1.115-1.115h-1.803l-.745 1.701-1.376 1.008h-2.071l-1.65 1.644-1.376 1.383v1.913l-1.803.745-1.911-.108-1.383 1.377-1.701 1.166.688 2.072 1.542 1.542-.637 2.76-1.383 1.384 1.383.847 2.013 1.913 1.274 1.274-.529 2.767.587 3.608v2.925l-1.115 1.109-1.064-1.166-1.593-.21.21 1.912.905 1.861 1.325 1.326-1.058 1.058-1.809.217h-3.606a22.41 22.41 0 01-2.287.159.866.866 0 01-.675-.229.716.716 0 01-.09-.147v-.051a.748.748 0 010-.37l-1.592-.427-.739-.739-1.912-.319v1.492l-1.484.637-1.81 2.123h-2.045l-2.229.637-1.275-.344-1.083 1.09v1.753l1.115 1.115.637 2.015-.535 2.02-.478 1.861-1.248 1.218v.746l-1.064.956-2.339 3.824v2.977l.638 3.608-.421 2.766.21 3.398-2.548 1.166-1.701-.739-2.44.847-2.338-.529-.319-2.02-1.166-3.506-.21-2.55-1.701-1.166v-1.383l-.848-2.231-1.49-1.913.955-1.593.637-1.804-1.592-1.702-.53-1.912-1.802-.21-.376-1.116-1.325-1.332-2.338-.319-1.485-1.485-.427-3.397-1.484-1.384.427-2.122-1.81-1.492-.955-2.441-1.593-.746-2.332-1.593-.745-2.55-1.593-2.441-.529-2.123-1.172-.217-.847-1.058-1.064-1.491-1.377.216-.853-2.549.318-4.889-.42-3.614-.854-1.804-1.058-1.594.21-3.187-1.273-1.166-.848-1.702.637-1.913-.535-2.122 1.172-1.173 1.275-.21 1.694 2.122 1.593.536.745-1.594 1.803-.746 2.447-.108h1.274l1.593.535.318-2.658-.853-1.593.427-1.383 1.274.216 1.166.848 1.274 1.167.955-.957 1.491.638 2.44.319 1.803.745.427-1.912-1.274-.956-1.803-.427-1.172-1.167-1.274-.427 1.592-1.695 2.339-1.065 2.02.848 1.802-.739 1.701 1.804 2.549 2.76 2.331-2.333 1.593-.956-.42-2.34 1.484-1.485 1.485.21-.102-1.701 3.924-.53.746-1.803.847-1.065-1.803-.848v-2.231l-1.389-1.568-.312-.344-.637-2.448-1.593-.956-1.695-1.912.637-2.231-.637-3.289-2.013-1.485-2.338-1.804-.74-2.441-1.586-1.275-.535-1.492 1.383-1.593 1.051-2.34v-2.231l-1.172-2.128-1.166-1.804 1.064-.848.637-1.594h1.274l.956-.854.739-2.868.217-1.696-.854-2.129-1.166-1.166-1.593-.21-1.166-1.275-.955-1.384-1.434 1.224-1.115-1.115-.956-1.594.956-1.702 2.013-2.02 1.383-1.594.529-1.912 1.593-.102 1.172 1.275.637 1.587 2.121.739 2.02-.637.529-2.123.637-2.339-1.593-1.593 1.064-.733-.108-1.811.637-2.549 1.166-2.76.854-2.34 2.121-.637.745-1.594 2.014-1.695v-3.614l-1.803-1.702-2.02-.529.637-1.594.535-1.702-1.484-1.485-.956-2.123.319-1.491 2.019-2.014 1.166-2.129-.528-1.913 1.701-.42 2.548-1.594v-2.231l1.058-1.275 2.656-.108 1.166-1.383.109-1.594 2.229-.847 1.803-2.442 2.447.102 2.121-1.275 2.867.638.427-1.594.956-.956 1.803.854 1.484 1.594 2.338.739.848 1.913-.37.376v.58l-.478 1.912.74-.14.955.694.421-.318h.427l.955-.427v-.848l.478-.587v-.796l-.268-.37-.739.797-.216-3.085-1.912-1.696v-3.614l1.702-.427.528-.529-2.331-.956-1.383-1.594h9.722l14.061-.108 4.46-1.594v-2.76l.745-7.011h2.975l2.549-2.021v-2.76l1.911-.746v-3.607l1.695-.109 3.721-2.977.573.275 1.23.58 3.93-7.324.262-1.97 3.243-3.238h5.415l1.695-2.977v-5.736l3.402-1.696 4.459-2.231 3.078 1.166h1.803l1.49 1.486 1.823-1.275-.446 2.224 1.803-.21 2.548.108v1.696l.535 1.912-1.172-.746-1.217-1.217-1.115 1.115.529 2.021v2.014l1.803.956 1.382 1.384v2.231l1.542.745v2.493l1.752 1.753.848 2.976v3.079l-.529 2.658.637 1.485.051 3.245 1.86 1.855-.108 2.339-.427 3.824-1.835 3.238-2.816 2.818h-2.975l-3.288.637-2.867-1.064-3.134-1.753-1.962-1.963v-2.869l-2.02-2.02-.956-2.231-.758-2.142-1.376-2.339-.745-3.927-1.485-.637.478-2.391 1.223-1.223-1.484-1.486-.688 1.855-1.02 1.014.427 2.333.051 2.709-1.166 1.173 1.542 1.536-.427 2.339-1.484 3.296-2.6.796-2.076 2.072-.803 3.767-1.963 1.97.638 2.231.955 2.76-1.535 2.709-.586.688-.797 1.224 1.383-1.912 2.172 2.18 2.339 2.333 2.656-1.913.529-2.651-1.382-1.384.216-2.339v-1.804l1.803-1.912h1.803l.637 4.781.586 3.136 1.854 1.855 1.173 2.447 3.026.899.898-.899-.745-1.81 1.803-1.485.108-3.716 3.294.529 3.077-1.167 2.548 1.377 2.867-.899h1.963l1.223 1.218 1.803 2.766-1.485 1.485v2.34l1.326-1.651 1.86-1.855 2.548-.536 2.122-3.078v-2.658l.847-1.804 2.765-1.383v-1.696l2.651-1.593v-2.658l-.421-2.55h1.803l.586 1.326 2.389 2.39 1.803 2.766v3.717l-.637 1.912-.955.956-1.593-1.594-2.23-.535-3.396 1.173v2.76l.848 2.549v2.129l2.44.638 2.338 1.058 2.657-1.275v-1.912l2.758-.638 2.657 1.275-.427-1.695 4.141.739 2.23-.427 4.033.536h2.338l1.166 2.122h1.064v-1.912l3.396-1.058h1.809l.746 2.76h-2.02l-.637 1.912-1.593.529 2.44 2.231h1.701l3.186-1.377 3.026.58 3.294 3.296 1.115-1.116h2.236l2.81-.905 1.115 1.116-.319 1.485-1.695 1.166v1.81l2.014 1.702.159-1.957.905-.905 2.121.529v-1.695l2.02-.319.427-2.549-.319-3.086 1.911-.956 1.644-.478 1.962 1.963.854-.854 2.173 2.709 4.517 4.52.49 1.007-.866 1.275-1.669 1.67 1.032.988.235.796z"/><path d="M338.844 127.287v2.314l-2.026 1.835-1.828 1.734-2.409.191-2.892 1.352-2.599-.963-1.256 1.25-2.988-.096h-3.854l-1.446 1.543h-2.982l-2.217 1.255.675 1.543-1.548.58-1.828-.198h-1.638l-.191 1.065-1.733-.485v1.734l-1.739 1.256-1.446 1.058v-1.638l-1.153 1.064.286 1.925h-1.153l-.822-.816v2.359l-.841-.842-2 2.002h-1.255l-.962 1.249-1.255 2.123h-2.02l-1.637 1.351v1.829l-1.638.676-.579 1.932-1.351 1.344v2.416l-.675 1.734.866 2.505-.771 2.505 1.064 1.638.478 1.74-.573.574-1.644.771v-1.249l-1.542-.867h-1.058l-1.153-1.74-.675.389-2.026-1.932-1.542-1.638.58-1.733 1.542-.485.579-.962-1.063-.867.095-2.314-.675-.191-.669-1.74-1.446-.096-1.16-1.638.389-2.123 1.541-2.116 1.829.191.58.676.675.287.287-1.25 2.217-.675 1.733-1.836-1.153-1.249 1.541-.969 1.733.675.485-1.447v-1.44h2.21l1.064 1.058 1.109-1.109.242-1.014 2.408-.478-.822-.822-2.07-.72v-.772l2.408-.675 2.504-.676 1.255-1.256h1.637v-1.153l2.313-.096-1.249-1.256 2.02-.095.771.771-.096-1.931.962-.963-1.057-1.256.675-1.058 1.153 1.16h1.446v-1.446l2.122.771 1.057-1.16 1.064-1.25h1.345l2.312-1.064 1.644.58h2.408l1.587-1.594 1.879.147.867 1.256h2.026l.962.962 1.732-.484h2.415l1.586-1.587 1.88-1.014 2.504-.962h2.312l1.351 2.116zM72.357 180.894l-3.103-7.12 1.65.369 1.421-.401.535-1.046 1.28.198 1.199 1.198.05 1.638.982.306.204 1.282 1.516.267.338-1.211-.829-.828.708-.708.458.453 1.446 1.217v1.823l-.197 1.581.84 1.383.842.574.306 2.059-.746 1.555-3.536 1.785-5.364-6.374z"/></g><path d="M262.23 292.91V294h-5.25v-7h5.11v1.09h-3.81v1.82h3.38v1.07h-3.38v1.93h3.95zm3.529-1.05h-.97V294h-1.25v-5.34h1.25v2.16h1l1.58-2.16h1.34l-1.94 2.57 2.07 2.77h-1.47l-1.61-2.14zm5.854-3.26c.787 0 1.387.19 1.8.57.42.373.63.94.63 1.7V294h-1.18v-.65a1.482 1.482 0 01-.66.54c-.28.12-.62.18-1.02.18s-.75-.067-1.05-.2a1.71 1.71 0 01-.7-.57 1.492 1.492 0 01-.24-.83c0-.48.177-.863.53-1.15.36-.293.924-.44 1.69-.44h1.38v-.08c0-.373-.113-.66-.34-.86-.22-.2-.55-.3-.99-.3-.3 0-.596.047-.89.14-.286.093-.53.223-.73.39l-.49-.91c.28-.213.617-.377 1.01-.49a4.51 4.51 0 011.25-.17zm-.17 4.56c.314 0 .59-.07.83-.21.247-.147.42-.353.52-.62v-.62h-1.29c-.72 0-1.08.237-1.08.71 0 .227.09.407.27.54.18.133.43.2.75.2zm8.377-3.44h-1.87V294h-1.25v-4.28h-1.88v-1.06h5v1.06zm5.672 1.64c0 .087-.006.21-.02.37h-4.19c.074.393.264.707.57.94.314.227.7.34 1.16.34.587 0 1.07-.193 1.45-.58l.67.77c-.24.287-.543.503-.91.65-.366.147-.78.22-1.24.22-.586 0-1.103-.117-1.55-.35a2.571 2.571 0 01-1.04-.97 2.81 2.81 0 01-.36-1.42c0-.52.117-.987.35-1.4.24-.42.57-.747.99-.98a2.88 2.88 0 011.42-.35c.52 0 .984.117 1.39.35.414.227.734.55.96.97.234.413.35.893.35 1.44zm-2.7-1.76c-.4 0-.74.12-1.02.36-.273.233-.44.547-.5.94h3.03a1.468 1.468 0 00-.49-.94c-.273-.24-.613-.36-1.02-.36zm7.028-1c.52 0 .983.113 1.39.34.413.227.736.547.97.96.233.413.35.89.35 1.43 0 .54-.117 1.02-.35 1.44a2.454 2.454 0 01-.97.96c-.407.227-.87.34-1.39.34-.72 0-1.29-.24-1.71-.72v2.59h-1.25v-7.28h1.19v.7c.206-.253.46-.443.76-.57a2.61 2.61 0 011.01-.19zm-.14 4.4c.46 0 .836-.153 1.13-.46.3-.307.45-.71.45-1.21s-.15-.903-.45-1.21c-.294-.307-.67-.46-1.13-.46-.3 0-.57.07-.81.21-.24.133-.43.327-.57.58a1.79 1.79 0 00-.21.88c0 .333.07.627.21.88.14.253.33.45.57.59.24.133.51.2.81.2zm4.094-4.34h1.25v3.52l2.95-3.52h1.14V294h-1.25v-3.52l-2.94 3.52h-1.15v-5.34zm7.021 0h1.25v2.17h2.69v-2.17h1.25V294h-1.25v-2.11h-2.69V294h-1.25v-5.34zm9.755.26c.507 0 .954.11 1.34.33.387.213.687.513.9.9.22.387.33.83.33 1.33 0 .513-.12.97-.36 1.37-.24.393-.576.7-1.01.92-.433.22-.926.33-1.48.33-.926 0-1.643-.307-2.15-.92-.506-.613-.76-1.497-.76-2.65 0-1.073.23-1.923.69-2.55.46-.627 1.164-1.04 2.11-1.24l2.48-.53.18 1.12-2.25.46c-.646.133-1.13.36-1.45.68-.32.32-.506.77-.56 1.35.24-.287.53-.507.87-.66a2.6 2.6 0 011.12-.24zm-.25 4.17c.46 0 .83-.147 1.11-.44.287-.3.43-.68.43-1.14 0-.46-.143-.83-.43-1.11-.28-.28-.65-.42-1.11-.42-.466 0-.843.14-1.13.42-.286.28-.43.65-.43 1.11 0 .467.144.847.43 1.14.294.293.67.44 1.13.44zm8.924-4.43l-2.5 5.77c-.234.58-.517.987-.85 1.22-.334.24-.737.36-1.21.36-.267 0-.53-.043-.79-.13a1.75 1.75 0 01-.64-.36l.5-.92c.12.113.26.203.42.27.166.067.333.1.5.1.22 0 .4-.057.54-.17.146-.113.28-.303.4-.57l.09-.21-2.33-5.36h1.3l1.68 3.95 1.69-3.95h1.2zm3.828-.06c.52 0 .983.113 1.39.34.413.227.737.547.97.96.233.413.35.89.35 1.43 0 .54-.117 1.02-.35 1.44a2.447 2.447 0 01-.97.96c-.407.227-.87.34-1.39.34-.72 0-1.29-.24-1.71-.72v2.59h-1.25v-7.28h1.19v.7a1.95 1.95 0 01.76-.57c.307-.127.643-.19 1.01-.19zm-.14 4.4c.46 0 .837-.153 1.13-.46.3-.307.45-.71.45-1.21s-.15-.903-.45-1.21c-.293-.307-.67-.46-1.13-.46-.3 0-.57.07-.81.21-.24.133-.43.327-.57.58a1.79 1.79 0 00-.21.88c0 .333.07.627.21.88.14.253.33.45.57.59.24.133.51.2.81.2zm8.194-3.28h-2.85V294h-1.25v-5.34h4.1v1.06zM99.41 237l-.01-4.64-2.3 3.84h-.58l-2.3-3.78V237h-1.23v-7h1.07l2.77 4.63 2.74-4.63h1.06l.02 7h-1.24zm5.439.07c-.54 0-1.027-.117-1.46-.35a2.602 2.602 0 01-1.02-.97 2.81 2.81 0 01-.36-1.42c0-.527.12-.997.36-1.41a2.602 2.602 0 011.02-.97c.433-.233.92-.35 1.46-.35.547 0 1.037.117 1.47.35.433.233.77.557 1.01.97.247.413.37.883.37 1.41 0 .527-.123 1-.37 1.42a2.53 2.53 0 01-1.01.97c-.433.233-.923.35-1.47.35zm0-1.07c.46 0 .84-.153 1.14-.46.3-.307.45-.71.45-1.21s-.15-.903-.45-1.21c-.3-.307-.68-.46-1.14-.46-.46 0-.84.153-1.14.46-.293.307-.44.71-.44 1.21s.147.903.44 1.21c.3.307.68.46 1.14.46zm6.515 1.07c-.554 0-1.05-.117-1.49-.35a2.576 2.576 0 01-1.03-.97 2.747 2.747 0 01-.37-1.42c0-.527.123-.997.37-1.41a2.589 2.589 0 011.02-.97c.44-.233.94-.35 1.5-.35.526 0 .986.107 1.38.32.4.213.7.52.9.92l-.96.56a1.48 1.48 0 00-.58-.55 1.51 1.51 0 00-.75-.19c-.467 0-.854.153-1.16.46-.307.3-.46.703-.46 1.21s.15.913.45 1.22c.306.3.696.45 1.17.45.273 0 .523-.06.75-.18a1.56 1.56 0 00.58-.56l.96.56c-.207.4-.51.71-.91.93-.394.213-.85.32-1.37.32zm5.6-2.21h-.97V237h-1.25v-5.34h1.25v2.16h1l1.58-2.16h1.34l-1.94 2.57 2.07 2.77h-1.47l-1.61-2.14zm7.832-.64c.66.2.99.627.99 1.28 0 .48-.18.85-.54 1.11-.36.26-.893.39-1.6.39h-2.72v-5.34h2.61c.653 0 1.163.12 1.53.36s.55.58.55 1.02c0 .273-.073.51-.22.71-.14.2-.34.357-.6.47zm-2.68-.33h1.31c.647 0 .97-.223.97-.67 0-.433-.323-.65-.97-.65h-1.31v1.32zm1.43 2.2c.687 0 1.03-.223 1.03-.67 0-.233-.08-.407-.24-.52-.16-.12-.41-.18-.75-.18h-1.47v1.37h1.43zm5.561-4.49c.787 0 1.387.19 1.8.57.42.373.63.94.63 1.7V237h-1.18v-.65a1.482 1.482 0 01-.66.54c-.28.12-.62.18-1.02.18s-.75-.067-1.05-.2a1.71 1.71 0 01-.7-.57 1.492 1.492 0 01-.24-.83c0-.48.177-.863.53-1.15.36-.293.924-.44 1.69-.44h1.38v-.08c0-.373-.113-.66-.34-.86-.22-.2-.55-.3-.99-.3-.3 0-.596.047-.89.14-.286.093-.53.223-.73.39l-.49-.91c.28-.213.617-.377 1.01-.49a4.51 4.51 0 011.25-.17zm-.17 4.56c.314 0 .59-.07.83-.21.247-.147.42-.353.52-.62v-.62h-1.29c-.72 0-1.08.237-1.08.71 0 .227.09.407.27.54.18.133.43.2.75.2zM111.41 379l-.01-4.64-2.3 3.84h-.58l-2.3-3.78V379h-1.23v-7h1.07l2.77 4.63 2.74-4.63h1.06l.02 7h-1.24zm5.049-5.4c.787 0 1.387.19 1.8.57.42.373.63.94.63 1.7V379h-1.18v-.65a1.482 1.482 0 01-.66.54c-.28.12-.62.18-1.02.18s-.75-.067-1.05-.2a1.71 1.71 0 01-.7-.57 1.492 1.492 0 01-.24-.83c0-.48.177-.863.53-1.15.36-.293.923-.44 1.69-.44h1.38v-.08c0-.373-.113-.66-.34-.86-.22-.2-.55-.3-.99-.3-.3 0-.597.047-.89.14-.287.093-.53.223-.73.39l-.49-.91c.28-.213.617-.377 1.01-.49.393-.113.81-.17 1.25-.17zm-.17 4.56c.313 0 .59-.07.83-.21.247-.147.42-.353.52-.62v-.62h-1.29c-.72 0-1.08.237-1.08.71 0 .227.09.407.27.54.18.133.43.2.75.2zm7.487.84l-1.37-1.85-1.38 1.85h-1.38l2.08-2.71-1.99-2.63h1.39l1.31 1.75 1.31-1.75h1.35l-2 2.61 2.09 2.73h-1.41zm4.197-5.4c.786 0 1.386.19 1.8.57.42.373.63.94.63 1.7V379h-1.18v-.65a1.493 1.493 0 01-.66.54c-.28.12-.62.18-1.02.18s-.75-.067-1.05-.2c-.3-.14-.534-.33-.7-.57a1.492 1.492 0 01-.24-.83c0-.48.176-.863.53-1.15.36-.293.923-.44 1.69-.44h1.38v-.08c0-.373-.114-.66-.34-.86-.22-.2-.55-.3-.99-.3-.3 0-.597.047-.89.14-.287.093-.53.223-.73.39l-.49-.91c.28-.213.616-.377 1.01-.49.393-.113.81-.17 1.25-.17zm-.17 4.56c.313 0 .59-.07.83-.21a1.19 1.19 0 00.52-.62v-.62h-1.29c-.72 0-1.08.237-1.08.71 0 .227.09.407.27.54.18.133.43.2.75.2zm8.676-4.5V379h-1.25v-2.07c-.513.247-1.05.37-1.61.37-.686 0-1.213-.157-1.58-.47-.366-.32-.55-.807-.55-1.46v-1.71h1.25v1.63c0 .34.1.593.3.76.2.167.484.25.85.25.467 0 .914-.1 1.34-.3v-2.34h1.25zm3.901 3.2h-.97V379h-1.25v-5.34h1.25v2.16h1l1.58-2.16h1.34l-1.94 2.57 2.07 2.77h-1.47l-1.61-2.14zm5.854-3.26c.787 0 1.387.19 1.8.57.42.373.63.94.63 1.7V379h-1.18v-.65a1.482 1.482 0 01-.66.54c-.28.12-.62.18-1.02.18s-.75-.067-1.05-.2a1.71 1.71 0 01-.7-.57 1.492 1.492 0 01-.24-.83c0-.48.177-.863.53-1.15.36-.293.924-.44 1.69-.44h1.38v-.08c0-.373-.113-.66-.34-.86-.22-.2-.55-.3-.99-.3-.3 0-.596.047-.89.14-.286.093-.53.223-.73.39l-.49-.91c.28-.213.617-.377 1.01-.49a4.51 4.51 0 011.25-.17zm-.17 4.56c.314 0 .59-.07.83-.21.247-.147.42-.353.52-.62v-.62h-1.29c-.72 0-1.08.237-1.08.71 0 .227.09.407.27.54.18.133.43.2.75.2zm8.987-4.5V379h-1.25v-4.28h-2l-.05 1.06c-.033.707-.1 1.3-.2 1.78-.093.473-.257.85-.49 1.13-.227.273-.54.41-.94.41a2.76 2.76 0 01-.69-.11l.06-1.05c.093.02.173.03.24.03a.63.63 0 00.57-.3c.127-.207.207-.45.24-.73.04-.287.073-.693.1-1.22l.09-2.06h4.32zm3.674-.06c.786 0 1.386.19 1.8.57.42.373.63.94.63 1.7V379h-1.18v-.65a1.493 1.493 0 01-.66.54c-.28.12-.62.18-1.02.18s-.75-.067-1.05-.2c-.3-.14-.534-.33-.7-.57a1.492 1.492 0 01-.24-.83c0-.48.176-.863.53-1.15.36-.293.923-.44 1.69-.44h1.38v-.08c0-.373-.114-.66-.34-.86-.22-.2-.55-.3-.99-.3-.3 0-.597.047-.89.14-.287.093-.53.223-.73.39l-.49-.91c.28-.213.616-.377 1.01-.49.393-.113.81-.17 1.25-.17zm-.17 4.56c.313 0 .59-.07.83-.21a1.19 1.19 0 00.52-.62v-.62h-1.29c-.72 0-1.08.237-1.08.71 0 .227.09.407.27.54.18.133.43.2.75.2zM41.86 289c.607 0 1.133.1 1.58.3.453.2.8.487 1.04.86s.36.817.36 1.33c0 .507-.12.95-.36 1.33-.24.373-.587.66-1.04.86-.447.2-.973.3-1.58.3h-1.58V296h-1.3v-7h2.88zm-.06 3.88c.567 0 .997-.12 1.29-.36.293-.24.44-.583.44-1.03 0-.447-.147-.79-.44-1.03-.293-.24-.723-.36-1.29-.36h-1.52v2.78h1.52zm6.49 3.19c-.54 0-1.026-.117-1.46-.35a2.598 2.598 0 01-1.02-.97 2.81 2.81 0 01-.36-1.42c0-.527.12-.997.36-1.41a2.598 2.598 0 011.02-.97c.434-.233.92-.35 1.46-.35.547 0 1.037.117 1.47.35.434.233.77.557 1.01.97.247.413.37.883.37 1.41 0 .527-.123 1-.37 1.42-.24.413-.576.737-1.01.97-.433.233-.923.35-1.47.35zm0-1.07c.46 0 .84-.153 1.14-.46.3-.307.45-.71.45-1.21s-.15-.903-.45-1.21c-.3-.307-.68-.46-1.14-.46-.46 0-.84.153-1.14.46-.293.307-.44.71-.44 1.21s.147.903.44 1.21c.3.307.68.46 1.14.46zm6.515 1.07c-.553 0-1.05-.117-1.49-.35a2.58 2.58 0 01-1.03-.97 2.75 2.75 0 01-.37-1.42c0-.527.123-.997.37-1.41a2.597 2.597 0 011.02-.97c.44-.233.94-.35 1.5-.35.527 0 .987.107 1.38.32.4.213.7.52.9.92l-.96.56a1.474 1.474 0 00-.58-.55 1.508 1.508 0 00-.75-.19c-.467 0-.853.153-1.16.46-.306.3-.46.703-.46 1.21s.15.913.45 1.22c.307.3.697.45 1.17.45.273 0 .523-.06.75-.18.233-.127.427-.313.58-.56l.96.56c-.206.4-.51.71-.91.93-.393.213-.85.32-1.37.32zm7.562-4.35h-1.87V296h-1.25v-4.28h-1.88v-1.06h5v1.06zm3.052 4.35c-.54 0-1.026-.117-1.46-.35a2.598 2.598 0 01-1.02-.97 2.81 2.81 0 01-.36-1.42c0-.527.12-.997.36-1.41a2.598 2.598 0 011.02-.97c.434-.233.92-.35 1.46-.35.547 0 1.037.117 1.47.35.434.233.77.557 1.01.97.247.413.37.883.37 1.41 0 .527-.123 1-.37 1.42-.24.413-.576.737-1.01.97-.433.233-.923.35-1.47.35zm0-1.07c.46 0 .84-.153 1.14-.46.3-.307.45-.71.45-1.21s-.15-.903-.45-1.21c-.3-.307-.68-.46-1.14-.46-.46 0-.84.153-1.14.46-.293.307-.44.71-.44 1.21s.147.903.44 1.21c.3.307.68.46 1.14.46zm7.955-1.78c.66.2.99.627.99 1.28 0 .48-.18.85-.54 1.11-.36.26-.893.39-1.6.39h-2.72v-5.34h2.61c.653 0 1.163.12 1.53.36s.55.58.55 1.02c0 .273-.073.51-.22.71-.14.2-.34.357-.6.47zm-2.68-.33h1.31c.647 0 .97-.223.97-.67 0-.433-.323-.65-.97-.65h-1.31v1.32zm1.43 2.2c.687 0 1.03-.223 1.03-.67 0-.233-.08-.407-.24-.52-.16-.12-.41-.18-.75-.18h-1.47v1.37h1.43zm3.282-2.39h2.75v1.04h-2.75v-1.04zm4.137-2.04h1.25v2.17h2.69v-2.17h1.25V296h-1.25v-2.11h-2.69V296h-1.25v-5.34zm8.855-.06c.787 0 1.387.19 1.8.57.42.373.63.94.63 1.7V296h-1.18v-.65a1.487 1.487 0 01-.66.54c-.28.12-.62.18-1.02.18s-.75-.067-1.05-.2a1.71 1.71 0 01-.7-.57 1.492 1.492 0 01-.24-.83c0-.48.177-.863.53-1.15.36-.293.924-.44 1.69-.44h1.38v-.08c0-.373-.113-.66-.34-.86-.22-.2-.55-.3-.99-.3-.3 0-.596.047-.89.14-.286.093-.53.223-.73.39l-.49-.91c.28-.213.617-.377 1.01-.49a4.51 4.51 0 011.25-.17zm-.17 4.56c.314 0 .59-.07.83-.21.247-.147.42-.353.52-.62v-.62h-1.29c-.72 0-1.08.237-1.08.71 0 .227.09.407.27.54.18.133.43.2.75.2zm3.857-2.46h2.75v1.04h-2.75v-1.04zm11.169 2.2v2.59h-1.2V296h-5.37v1.49h-1.21l.01-2.59h.3c.44-.02.747-.343.92-.97.18-.633.29-1.537.33-2.71l.08-2.22h5.13v5.9h1.01zm-5.08-3.56c-.033.907-.107 1.663-.22 2.27-.113.6-.293 1.03-.54 1.29h3.55v-4.8h-2.74l-.05 1.24zm8.446 4.73c-.54 0-1.026-.117-1.46-.35a2.602 2.602 0 01-1.02-.97 2.81 2.81 0 01-.36-1.42c0-.527.12-.997.36-1.41a2.602 2.602 0 011.02-.97c.434-.233.92-.35 1.46-.35.547 0 1.037.117 1.47.35.434.233.77.557 1.01.97.247.413.37.883.37 1.41 0 .527-.123 1-.37 1.42-.24.413-.576.737-1.01.97-.433.233-.923.35-1.47.35zm0-1.07c.46 0 .84-.153 1.14-.46.3-.307.45-.71.45-1.21s-.15-.903-.45-1.21c-.3-.307-.68-.46-1.14-.46-.46 0-.84.153-1.14.46-.293.307-.44.71-.44 1.21s.147.903.44 1.21c.3.307.68.46 1.14.46zm4.085-4.34h1.25v2.17h2.69v-2.17h1.25V296h-1.25v-2.11h-2.69V296h-1.25v-5.34zm11.905 0l-2.5 5.77c-.233.58-.516.987-.85 1.22-.333.24-.736.36-1.21.36-.266 0-.53-.043-.79-.13a1.758 1.758 0 01-.64-.36l.5-.92c.12.113.26.203.42.27.167.067.334.1.5.1.22 0 .4-.057.54-.17.147-.113.28-.303.4-.57l.09-.21-2.33-5.36h1.3l1.68 3.95 1.69-3.95h1.2zM367.2 208v7h-1.3v-3h-3.62v3h-1.3v-7h1.3v2.89h3.62V208h1.3zm4.204 7.07c-.54 0-1.027-.117-1.46-.35a2.589 2.589 0 01-1.02-.97 2.81 2.81 0 01-.36-1.42c0-.527.12-.997.36-1.41a2.589 2.589 0 011.02-.97c.433-.233.92-.35 1.46-.35.546 0 1.036.117 1.47.35.433.233.77.557 1.01.97.246.413.37.883.37 1.41 0 .527-.124 1-.37 1.42a2.53 2.53 0 01-1.01.97c-.434.233-.924.35-1.47.35zm0-1.07c.46 0 .84-.153 1.14-.46.3-.307.45-.71.45-1.21s-.15-.903-.45-1.21c-.3-.307-.68-.46-1.14-.46-.46 0-.84.153-1.14.46-.294.307-.44.71-.44 1.21s.146.903.44 1.21c.3.307.68.46 1.14.46zm7.044-4.4a2.8 2.8 0 011.39.34c.414.227.737.547.97.96.234.413.35.89.35 1.43 0 .54-.116 1.02-.35 1.44a2.44 2.44 0 01-.97.96 2.8 2.8 0 01-1.39.34c-.72 0-1.29-.24-1.71-.72v2.59h-1.25v-7.28h1.19v.7a1.95 1.95 0 01.76-.57c.307-.127.644-.19 1.01-.19zm-.14 4.4c.46 0 .837-.153 1.13-.46.3-.307.45-.71.45-1.21s-.15-.903-.45-1.21c-.293-.307-.67-.46-1.13-.46-.3 0-.57.07-.81.21-.24.133-.43.327-.57.58a1.79 1.79 0 00-.21.88c0 .333.07.627.21.88.14.253.33.45.57.59.24.133.51.2.81.2zm4.095-4.34h1.25v3.52l2.95-3.52h1.14V215h-1.25v-3.52l-2.94 3.52h-1.15v-5.34zm11.861 0V215h-1.25v-4.28h-2l-.05 1.06c-.033.707-.1 1.3-.2 1.78-.093.473-.257.85-.49 1.13-.227.273-.54.41-.94.41a2.76 2.76 0 01-.69-.11l.06-1.05c.093.02.173.03.24.03a.63.63 0 00.57-.3c.127-.207.207-.45.24-.73.04-.287.073-.693.1-1.22l.09-2.06h4.32zm4.363 1.76c.68 0 1.2.153 1.56.46.367.307.55.74.55 1.3 0 .587-.2 1.04-.6 1.36-.4.32-.963.477-1.69.47l-2.5-.01v-5.34h1.25v1.75l1.43.01zm-.29 2.67c.367.007.647-.07.84-.23.194-.16.29-.393.29-.7 0-.3-.093-.52-.28-.66-.186-.14-.47-.213-.85-.22l-1.14-.01v1.81l1.14.01zm5.929.98c-.553 0-1.05-.117-1.49-.35a2.583 2.583 0 01-1.03-.97 2.747 2.747 0 01-.37-1.42c0-.527.123-.997.37-1.41a2.602 2.602 0 011.02-.97c.44-.233.94-.35 1.5-.35.527 0 .987.107 1.38.32.4.213.7.52.9.92l-.96.56a1.473 1.473 0 00-.58-.55 1.51 1.51 0 00-.75-.19c-.467 0-.853.153-1.16.46-.307.3-.46.703-.46 1.21s.15.913.45 1.22c.307.3.697.45 1.17.45.273 0 .523-.06.75-.18.233-.127.427-.313.58-.56l.96.56c-.207.4-.51.71-.91.93-.393.213-.85.32-1.37.32zm5.601-2.21h-.97V215h-1.25v-5.34h1.25v2.16h1l1.58-2.16h1.34l-1.94 2.57 2.07 2.77h-1.47l-1.61-2.14zm59.193-56.76h-2.32v5.9h-1.29v-5.9h-2.31V155h5.92v1.1zm.854.56h1.25v3.52l2.95-3.52h1.14V162h-1.25v-3.52l-2.94 3.52h-1.15v-5.34zm9.242 3.2h-.97V162h-1.25v-5.34h1.25v2.16h1l1.58-2.16h1.34l-1.94 2.57 2.07 2.77h-1.47l-1.61-2.14zm6.216 2.21c-.554 0-1.05-.117-1.49-.35a2.576 2.576 0 01-1.03-.97 2.747 2.747 0 01-.37-1.42c0-.527.123-.997.37-1.41a2.589 2.589 0 011.02-.97c.44-.233.94-.35 1.5-.35.526 0 .986.107 1.38.32.4.213.7.52.9.92l-.96.56a1.48 1.48 0 00-.58-.55 1.51 1.51 0 00-.75-.19c-.467 0-.854.153-1.16.46-.307.3-.46.703-.46 1.21s.15.913.45 1.22c.306.3.696.45 1.17.45.273 0 .523-.06.75-.18a1.56 1.56 0 00.58-.56l.96.56c-.207.4-.51.71-.91.93-.394.213-.85.32-1.37.32zm3.38-5.41h1.25v3.52l2.95-3.52h1.14V162h-1.25v-3.52l-2.94 3.52h-1.15v-5.34zM118.2 172.1a4 4 0 01-1.92-.46 3.505 3.505 0 01-1.34-1.29 3.593 3.593 0 01-.48-1.85c0-.687.163-1.303.49-1.85a3.437 3.437 0 011.34-1.28 3.939 3.939 0 011.92-.47c.573 0 1.097.1 1.57.3.473.2.873.49 1.2.87l-.84.79a2.45 2.45 0 00-1.87-.82c-.48 0-.91.107-1.29.32-.38.207-.677.497-.89.87-.213.373-.32.797-.32 1.27s.107.897.32 1.27c.213.373.51.667.89.88.38.207.81.31 1.29.31.74 0 1.363-.277 1.87-.83l.84.8c-.327.38-.73.67-1.21.87-.473.2-.997.3-1.57.3zm5.788-5.5c.787 0 1.387.19 1.8.57.42.373.63.94.63 1.7V172h-1.18v-.65a1.482 1.482 0 01-.66.54c-.28.12-.62.18-1.02.18s-.75-.067-1.05-.2a1.71 1.71 0 01-.7-.57 1.492 1.492 0 01-.24-.83c0-.48.177-.863.53-1.15.36-.293.924-.44 1.69-.44h1.38v-.08c0-.373-.113-.66-.34-.86-.22-.2-.55-.3-.99-.3-.3 0-.596.047-.89.14-.286.093-.53.223-.73.39l-.49-.91c.28-.213.617-.377 1.01-.49a4.51 4.51 0 011.25-.17zm-.17 4.56c.314 0 .59-.07.83-.21.247-.147.42-.353.52-.62v-.62h-1.29c-.72 0-1.08.237-1.08.71 0 .227.09.407.27.54.18.133.43.2.75.2zm4.147-4.5h1.25v2.17h2.69v-2.17h1.25V172h-1.25v-2.11h-2.69V172h-1.25v-5.34zm9.085 3.2h-.97V172h-1.25v-5.34h1.25v2.16h1l1.58-2.16H140l-1.94 2.57 2.07 2.77h-1.47l-1.61-2.14zm8.124-2.14h-1.87V172h-1.25v-4.28h-1.88v-1.06h5v1.06zm.47.98h2.75v1.04h-2.75v-1.04zm10.477-3.7v7h-1.28v-5.9h-3.63v5.9h-1.28v-7h6.19zm6.834 4.36c0 .087-.006.21-.02.37h-4.19c.074.393.264.707.57.94.314.227.7.34 1.16.34.587 0 1.07-.193 1.45-.58l.67.77c-.24.287-.543.503-.91.65-.366.147-.78.22-1.24.22-.586 0-1.103-.117-1.55-.35a2.571 2.571 0 01-1.04-.97 2.81 2.81 0 01-.36-1.42c0-.52.117-.987.35-1.4.24-.42.57-.747.99-.98a2.88 2.88 0 011.42-.35c.52 0 .984.117 1.39.35.414.227.734.55.96.97.234.413.35.893.35 1.44zm-2.7-1.76c-.4 0-.74.12-1.02.36-.273.233-.44.547-.5.94h3.03a1.468 1.468 0 00-.49-.94c-.273-.24-.613-.36-1.02-.36zm8.102.12h-1.87V172h-1.25v-4.28h-1.88v-1.06h5v1.06zm5.672 1.64c0 .087-.006.21-.02.37h-4.19c.074.393.264.707.57.94.314.227.7.34 1.16.34.587 0 1.07-.193 1.45-.58l.67.77c-.24.287-.543.503-.91.65-.366.147-.78.22-1.24.22-.586 0-1.103-.117-1.55-.35a2.571 2.571 0 01-1.04-.97 2.81 2.81 0 01-.36-1.42c0-.52.117-.987.35-1.4.24-.42.57-.747.99-.98a2.88 2.88 0 011.42-.35c.52 0 .984.117 1.39.35.414.227.734.55.96.97.234.413.35.893.35 1.44zm-2.7-1.76c-.4 0-.74.12-1.02.36-.273.233-.44.547-.5.94h3.03a1.468 1.468 0 00-.49-.94c-.273-.24-.613-.36-1.02-.36zm7.028-1c.52 0 .983.113 1.39.34.413.227.736.547.97.96.233.413.35.89.35 1.43 0 .54-.117 1.02-.35 1.44a2.454 2.454 0 01-.97.96c-.407.227-.87.34-1.39.34-.72 0-1.29-.24-1.71-.72v2.59h-1.25v-7.28h1.19v.7c.206-.253.46-.443.76-.57a2.61 2.61 0 011.01-.19zm-.14 4.4c.46 0 .836-.153 1.13-.46.3-.307.45-.71.45-1.21s-.15-.903-.45-1.21c-.294-.307-.67-.46-1.13-.46-.3 0-.57.07-.81.21-.24.133-.43.327-.57.58a1.79 1.79 0 00-.21.88c0 .333.07.627.21.88.14.253.33.45.57.59.24.133.51.2.81.2zm6.984-4.08c.506 0 .953.11 1.34.33.386.213.686.513.9.9.22.387.33.83.33 1.33 0 .513-.12.97-.36 1.37-.24.393-.577.7-1.01.92-.434.22-.927.33-1.48.33-.927 0-1.644-.307-2.15-.92-.507-.613-.76-1.497-.76-2.65 0-1.073.23-1.923.69-2.55.46-.627 1.163-1.04 2.11-1.24l2.48-.53.18 1.12-2.25.46c-.647.133-1.13.36-1.45.68-.32.32-.507.77-.56 1.35.24-.287.53-.507.87-.66.34-.16.713-.24 1.12-.24zm-.25 4.17c.46 0 .83-.147 1.11-.44.286-.3.43-.68.43-1.14 0-.46-.144-.83-.43-1.11-.28-.28-.65-.42-1.11-.42-.467 0-.844.14-1.13.42-.287.28-.43.65-.43 1.11 0 .467.143.847.43 1.14.293.293.67.44 1.13.44zm8.923-4.43l-2.5 5.77c-.233.58-.517.987-.85 1.22-.333.24-.737.36-1.21.36-.267 0-.53-.043-.79-.13a1.758 1.758 0 01-.64-.36l.5-.92c.12.113.26.203.42.27.167.067.333.1.5.1.22 0 .4-.057.54-.17.147-.113.28-.303.4-.57l.09-.21-2.33-5.36h1.3l1.68 3.95 1.69-3.95h1.2zm3.828-.06a2.8 2.8 0 011.39.34c.414.227.737.547.97.96.234.413.35.89.35 1.43 0 .54-.116 1.02-.35 1.44a2.44 2.44 0 01-.97.96 2.8 2.8 0 01-1.39.34c-.72 0-1.29-.24-1.71-.72v2.59h-1.25v-7.28h1.19v.7a1.95 1.95 0 01.76-.57c.307-.127.644-.19 1.01-.19zm-.14 4.4c.46 0 .837-.153 1.13-.46.3-.307.45-.71.45-1.21s-.15-.903-.45-1.21c-.293-.307-.67-.46-1.13-.46-.3 0-.57.07-.81.21-.24.133-.43.327-.57.58a1.79 1.79 0 00-.21.88c0 .333.07.627.21.88.14.253.33.45.57.59.24.133.51.2.81.2zm8.194-3.28h-2.85V172h-1.25v-5.34h4.1v1.06zM655.59 351.36c.447.12.787.327 1.02.62.233.287.35.647.35 1.08 0 .613-.227 1.09-.68 1.43-.453.34-1.11.51-1.97.51h-3.32v-7h3.13c.787 0 1.4.157 1.84.47.44.313.66.757.66 1.33 0 .367-.09.683-.27.95-.173.267-.427.47-.76.61zm-3.32-.37h1.74c.42 0 .74-.083.96-.25.22-.167.33-.413.33-.74s-.11-.573-.33-.74c-.22-.173-.54-.26-.96-.26h-1.74v1.99zm2 3.01c.92 0 1.38-.347 1.38-1.04 0-.68-.46-1.02-1.38-1.02h-2V354h2zm8.871-4.34V355h-1.25v-4.28h-2l-.05 1.06c-.033.707-.1 1.3-.2 1.78-.093.473-.257.85-.49 1.13-.227.273-.54.41-.94.41a2.76 2.76 0 01-.69-.11l.06-1.05c.093.02.173.03.24.03a.63.63 0 00.57-.3c.127-.207.207-.45.24-.73.04-.287.073-.693.1-1.22l.09-2.06h4.32zm3.673-.06c.787 0 1.387.19 1.8.57.42.373.63.94.63 1.7V355h-1.18v-.65a1.482 1.482 0 01-.66.54c-.28.12-.62.18-1.02.18s-.75-.067-1.05-.2a1.71 1.71 0 01-.7-.57 1.492 1.492 0 01-.24-.83c0-.48.177-.863.53-1.15.36-.293.924-.44 1.69-.44h1.38v-.08c0-.373-.113-.66-.34-.86-.22-.2-.55-.3-.99-.3-.3 0-.596.047-.89.14-.286.093-.53.223-.73.39l-.49-.91c.28-.213.617-.377 1.01-.49a4.51 4.51 0 011.25-.17zm-.17 4.56c.314 0 .59-.07.83-.21.247-.147.42-.353.52-.62v-.62h-1.29c-.72 0-1.08.237-1.08.71 0 .227.09.407.27.54.18.133.43.2.75.2zm9.847-.22v2.25h-1.17V355h-4.12v1.19h-1.16v-2.25h.25c.34-.013.57-.23.69-.65.127-.427.21-1.027.25-1.8l.07-1.83h4.4v4.28h.79zm-4.12-2.36a10.667 10.667 0 01-.15 1.5c-.073.387-.206.673-.4.86h2.63v-3.22h-2.05l-.03.86zm5.237-1.92h1.25v3.52l2.95-3.52h1.14V355h-1.25v-3.52l-2.94 3.52h-1.15v-5.34zm10.891 2.56c.66.2.99.627.99 1.28 0 .48-.18.85-.54 1.11-.36.26-.893.39-1.6.39h-2.72v-5.34h2.61c.653 0 1.163.12 1.53.36s.55.58.55 1.02c0 .273-.073.51-.22.71-.14.2-.34.357-.6.47zm-2.68-.33h1.31c.647 0 .97-.223.97-.67 0-.433-.323-.65-.97-.65h-1.31v1.32zm1.43 2.2c.687 0 1.03-.223 1.03-.67 0-.233-.08-.407-.24-.52-.16-.12-.41-.18-.75-.18h-1.47v1.37h1.43zm5.951.98c-.54 0-1.026-.117-1.46-.35a2.602 2.602 0 01-1.02-.97 2.81 2.81 0 01-.36-1.42c0-.527.12-.997.36-1.41a2.602 2.602 0 011.02-.97c.434-.233.92-.35 1.46-.35.547 0 1.037.117 1.47.35.434.233.77.557 1.01.97.247.413.37.883.37 1.41 0 .527-.123 1-.37 1.42-.24.413-.576.737-1.01.97-.433.233-.923.35-1.47.35zm0-1.07c.46 0 .84-.153 1.14-.46.3-.307.45-.71.45-1.21s-.15-.903-.45-1.21c-.3-.307-.68-.46-1.14-.46-.46 0-.84.153-1.14.46-.293.307-.44.71-.44 1.21s.147.903.44 1.21c.3.307.68.46 1.14.46zm6.515 1.07c-.553 0-1.05-.117-1.49-.35a2.583 2.583 0 01-1.03-.97 2.757 2.757 0 01-.37-1.42c0-.527.124-.997.37-1.41a2.602 2.602 0 011.02-.97c.44-.233.94-.35 1.5-.35.527 0 .987.107 1.38.32.4.213.7.52.9.92l-.96.56a1.467 1.467 0 00-.58-.55 1.504 1.504 0 00-.75-.19c-.466 0-.853.153-1.16.46-.306.3-.46.703-.46 1.21s.15.913.45 1.22c.307.3.697.45 1.17.45.274 0 .524-.06.75-.18.234-.127.427-.313.58-.56l.96.56c-.206.4-.51.71-.91.93-.393.213-.85.32-1.37.32zm7.562-4.35h-1.87V355h-1.25v-4.28h-1.88v-1.06h5v1.06zm3.052 4.35c-.54 0-1.026-.117-1.46-.35a2.602 2.602 0 01-1.02-.97 2.81 2.81 0 01-.36-1.42c0-.527.12-.997.36-1.41a2.602 2.602 0 011.02-.97c.434-.233.92-.35 1.46-.35.547 0 1.037.117 1.47.35.434.233.77.557 1.01.97.247.413.37.883.37 1.41 0 .527-.123 1-.37 1.42-.24.413-.576.737-1.01.97-.433.233-.923.35-1.47.35zm0-1.07c.46 0 .84-.153 1.14-.46.3-.307.45-.71.45-1.21s-.15-.903-.45-1.21c-.3-.307-.68-.46-1.14-.46-.46 0-.84.153-1.14.46-.293.307-.44.71-.44 1.21s.147.903.44 1.21c.3.307.68.46 1.14.46zm6.305-1.14h-.97V355h-1.25v-5.34h1.25v2.16h1l1.58-2.16h1.34l-1.94 2.57 2.07 2.77h-1.47l-1.61-2.14zM557.33 212v7h-1.28v-1.95h-1.87l-1.3 1.95h-1.37l1.5-2.16c-.487-.18-.863-.463-1.13-.85-.26-.393-.39-.867-.39-1.42 0-.533.12-.993.36-1.38.24-.387.58-.68 1.02-.88.44-.207.957-.31 1.55-.31h2.91zm-2.87 1.1c-.533 0-.943.123-1.23.37-.28.247-.42.607-.42 1.08 0 .46.137.817.41 1.07.273.247.67.37 1.19.37h1.64v-2.89h-1.59zm6.924 3.76h-.97V219h-1.25v-5.34h1.25v2.16h1l1.58-2.16h1.34l-1.94 2.57 2.07 2.77h-1.47l-1.61-2.14zm8.699-3.2l-2.5 5.77c-.233.58-.517.987-.85 1.22-.333.24-.737.36-1.21.36-.267 0-.53-.043-.79-.13a1.758 1.758 0 01-.64-.36l.5-.92c.12.113.26.203.42.27.167.067.333.1.5.1.22 0 .4-.057.54-.17.147-.113.28-.303.4-.57l.09-.21-2.33-5.36h1.3l1.68 3.95 1.69-3.95h1.2zm5.137 1.06h-1.87V219h-1.25v-4.28h-1.88v-1.06h5v1.06zm3.103 4.35c-.554 0-1.05-.117-1.49-.35a2.576 2.576 0 01-1.03-.97 2.747 2.747 0 01-.37-1.42c0-.527.123-.997.37-1.41a2.589 2.589 0 011.02-.97c.44-.233.94-.35 1.5-.35.526 0 .986.107 1.38.32.4.213.7.52.9.92l-.96.56a1.48 1.48 0 00-.58-.55 1.51 1.51 0 00-.75-.19c-.467 0-.854.153-1.16.46-.307.3-.46.703-.46 1.21s.15.913.45 1.22c.306.3.696.45 1.17.45.273 0 .523-.06.75-.18a1.56 1.56 0 00.58-.56l.96.56c-.207.4-.51.71-.91.93-.394.213-.85.32-1.37.32zm5.6-2.21h-.97V219h-1.25v-5.34h1.25v2.16h1l1.58-2.16h1.34l-1.94 2.57 2.07 2.77h-1.47l-1.61-2.14zM667.2 58v7h-1.3v-3h-3.62v3h-1.3v-7h1.3v2.89h3.62V58h1.3zm3.814 1.6c.786 0 1.386.19 1.8.57.42.373.63.94.63 1.7V65h-1.18v-.65a1.49 1.49 0 01-.66.54c-.28.12-.62.18-1.02.18s-.75-.067-1.05-.2c-.3-.14-.534-.33-.7-.57a1.492 1.492 0 01-.24-.83c0-.48.176-.863.53-1.15.36-.293.923-.44 1.69-.44h1.38v-.08c0-.373-.114-.66-.34-.86-.22-.2-.55-.3-.99-.3-.3 0-.597.047-.89.14-.287.093-.53.223-.73.39l-.49-.91c.28-.213.616-.377 1.01-.49.393-.113.81-.17 1.25-.17zm-.17 4.56c.313 0 .59-.07.83-.21a1.19 1.19 0 00.52-.62v-.62h-1.29c-.72 0-1.08.237-1.08.71 0 .227.09.407.27.54.18.133.43.2.75.2zm8.246-3.44h-2.85V65h-1.25v-5.34h4.1v1.06zm3.056 4.35a3.03 3.03 0 01-1.46-.35 2.589 2.589 0 01-1.02-.97 2.81 2.81 0 01-.36-1.42c0-.527.12-.997.36-1.41a2.589 2.589 0 011.02-.97 3.03 3.03 0 011.46-.35c.546 0 1.036.117 1.47.35.433.233.77.557 1.01.97.246.413.37.883.37 1.41 0 .527-.124 1-.37 1.42a2.53 2.53 0 01-1.01.97c-.434.233-.924.35-1.47.35zm0-1.07c.46 0 .84-.153 1.14-.46.3-.307.45-.71.45-1.21s-.15-.903-.45-1.21c-.3-.307-.68-.46-1.14-.46-.46 0-.84.153-1.14.46-.294.307-.44.71-.44 1.21s.146.903.44 1.21c.3.307.68.46 1.14.46zm7.045-4.4c.52 0 .983.113 1.39.34.413.227.736.547.97.96.233.413.35.89.35 1.43 0 .54-.117 1.02-.35 1.44a2.45 2.45 0 01-.97.96c-.407.227-.87.34-1.39.34-.72 0-1.29-.24-1.71-.72v2.59h-1.25v-7.28h1.19v.7c.206-.253.46-.443.76-.57a2.61 2.61 0 011.01-.19zm-.14 4.4c.46 0 .836-.153 1.13-.46.3-.307.45-.71.45-1.21s-.15-.903-.45-1.21c-.294-.307-.67-.46-1.13-.46-.3 0-.57.07-.81.21-.24.133-.43.327-.57.58a1.79 1.79 0 00-.21.88c0 .333.07.627.21.88.14.253.33.45.57.59.24.133.51.2.81.2zm4.094-4.34h1.25v2.17h2.69v-2.17h1.25V65h-1.25v-2.11h-2.69V65h-1.25v-5.34zm9.465 1.76c.68 0 1.2.153 1.56.46.36.307.54.74.54 1.3 0 .587-.2 1.04-.6 1.36-.393.32-.953.477-1.68.47l-2.42-.01v-5.34h1.25v1.75l1.35.01zm2.79-1.76h1.25V65h-1.25v-5.34zm-3.08 4.43c.367.007.647-.07.84-.23.193-.16.29-.393.29-.7 0-.3-.093-.52-.28-.66-.187-.14-.47-.213-.85-.22l-1.06-.01v1.81l1.06.01zm6.01-4.43h1.25v3.52l2.95-3.52h1.14V65h-1.25v-3.52L709.48 65h-1.15v-5.34zm2.59-.63c-.54 0-.953-.123-1.24-.37-.28-.253-.423-.62-.43-1.1h.83c.007.24.08.43.22.57.147.14.35.21.61.21.254 0 .454-.07.6-.21.154-.14.234-.33.24-.57h.85c-.006.48-.153.847-.44 1.1-.286.247-.7.37-1.24.37zM402.56 317.05h-1.3V320h-1.28v-7h1.28v2.93h1.34l2.01-2.93h1.38l-2.39 3.39 2.48 3.61h-1.47l-2.05-2.95zm7.359-2.45c.52 0 .983.113 1.39.34.413.227.737.547.97.96.233.413.35.89.35 1.43 0 .54-.117 1.02-.35 1.44a2.447 2.447 0 01-.97.96c-.407.227-.87.34-1.39.34-.72 0-1.29-.24-1.71-.72v2.59h-1.25v-7.28h1.19v.7a1.95 1.95 0 01.76-.57c.307-.127.643-.19 1.01-.19zm-.14 4.4c.46 0 .837-.153 1.13-.46.3-.307.45-.71.45-1.21s-.15-.903-.45-1.21c-.293-.307-.67-.46-1.13-.46-.3 0-.57.07-.81.21-.24.133-.43.327-.57.58a1.79 1.79 0 00-.21.88c0 .333.07.627.21.88.14.253.33.45.57.59.24.133.51.2.81.2zm6.016-4.4c.787 0 1.387.19 1.8.57.42.373.63.94.63 1.7V320h-1.18v-.65a1.482 1.482 0 01-.66.54c-.28.12-.62.18-1.02.18s-.75-.067-1.05-.2a1.71 1.71 0 01-.7-.57 1.492 1.492 0 01-.24-.83c0-.48.177-.863.53-1.15.36-.293.923-.44 1.69-.44h1.38v-.08c0-.373-.113-.66-.34-.86-.22-.2-.55-.3-.99-.3-.3 0-.597.047-.89.14-.287.093-.53.223-.73.39l-.49-.91c.28-.213.617-.377 1.01-.49.393-.113.81-.17 1.25-.17zm-.17 4.56c.313 0 .59-.07.83-.21.247-.147.42-.353.52-.62v-.62h-1.29c-.72 0-1.08.237-1.08.71 0 .227.09.407.27.54.18.133.43.2.75.2zm6.577.91c-.554 0-1.05-.117-1.49-.35a2.576 2.576 0 01-1.03-.97 2.747 2.747 0 01-.37-1.42c0-.527.123-.997.37-1.41a2.589 2.589 0 011.02-.97c.44-.233.94-.35 1.5-.35.526 0 .986.107 1.38.32.4.213.7.52.9.92l-.96.56a1.48 1.48 0 00-.58-.55 1.51 1.51 0 00-.75-.19c-.467 0-.854.153-1.16.46-.307.3-.46.703-.46 1.21s.15.913.45 1.22c.306.3.696.45 1.17.45.273 0 .523-.06.75-.18a1.56 1.56 0 00.58-.56l.96.56c-.207.4-.51.71-.91.93-.394.213-.85.32-1.37.32zm3.38-5.41h1.25v2.17h2.69v-2.17h1.25V320h-1.25v-2.11h-2.69V320h-1.25v-5.34zm9.245 5.41c-.54 0-1.026-.117-1.46-.35a2.602 2.602 0 01-1.02-.97 2.81 2.81 0 01-.36-1.42c0-.527.12-.997.36-1.41a2.602 2.602 0 011.02-.97c.434-.233.92-.35 1.46-.35.547 0 1.037.117 1.47.35.434.233.77.557 1.01.97.247.413.37.883.37 1.41 0 .527-.123 1-.37 1.42-.24.413-.576.737-1.01.97-.433.233-.923.35-1.47.35zm0-1.07c.46 0 .84-.153 1.14-.46.3-.307.45-.71.45-1.21s-.15-.903-.45-1.21c-.3-.307-.68-.46-1.14-.46-.46 0-.84.153-1.14.46-.293.307-.44.71-.44 1.21s.147.903.44 1.21c.3.307.68.46 1.14.46zm8.419-4.34V320h-1.12v-1.61h-1.41l-1.09 1.61h-1.34l1.26-1.78c-.386-.133-.683-.337-.89-.61-.2-.28-.3-.623-.3-1.03 0-.613.217-1.087.65-1.42.434-.333 1.03-.5 1.79-.5h2.45zm-2.41 1.05c-.806 0-1.21.303-1.21.91 0 .6.39.9 1.17.9h1.33v-1.81h-1.29zm7.052-1.11c.52 0 .983.113 1.39.34.413.227.737.547.97.96.233.413.35.89.35 1.43 0 .54-.117 1.02-.35 1.44a2.447 2.447 0 01-.97.96c-.407.227-.87.34-1.39.34-.72 0-1.29-.24-1.71-.72v2.59h-1.25v-7.28h1.19v.7a1.95 1.95 0 01.76-.57c.307-.127.643-.19 1.01-.19zm-.14 4.4c.46 0 .837-.153 1.13-.46.3-.307.45-.71.45-1.21s-.15-.903-.45-1.21c-.293-.307-.67-.46-1.13-.46-.3 0-.57.07-.81.21-.24.133-.43.327-.57.58a1.79 1.79 0 00-.21.88c0 .333.07.627.21.88.14.253.33.45.57.59.24.133.51.2.81.2zm6.524 1.07c-.553 0-1.05-.117-1.49-.35a2.583 2.583 0 01-1.03-.97 2.747 2.747 0 01-.37-1.42c0-.527.123-.997.37-1.41a2.602 2.602 0 011.02-.97c.44-.233.94-.35 1.5-.35.527 0 .987.107 1.38.32.4.213.7.52.9.92l-.96.56a1.473 1.473 0 00-.58-.55 1.51 1.51 0 00-.75-.19c-.467 0-.853.153-1.16.46-.307.3-.46.703-.46 1.21s.15.913.45 1.22c.307.3.697.45 1.17.45.273 0 .523-.06.75-.18.233-.127.427-.313.58-.56l.96.56c-.207.4-.51.71-.91.93-.393.213-.85.32-1.37.32zm5.601-2.21h-.97V320h-1.25v-5.34h1.25v2.16h1l1.58-2.16h1.34l-1.94 2.57 2.07 2.77h-1.47l-1.61-2.14zM677.18 145v7h-1.28v-5.9h-3.63v5.9h-1.28v-7h6.19zm6.834 4.36c0 .087-.007.21-.02.37h-4.19c.073.393.263.707.57.94.313.227.7.34 1.16.34.586 0 1.07-.193 1.45-.58l.67.77c-.24.287-.544.503-.91.65a3.31 3.31 0 01-1.24.22c-.587 0-1.104-.117-1.55-.35a2.559 2.559 0 01-1.04-.97 2.81 2.81 0 01-.36-1.42c0-.52.116-.987.35-1.4.24-.42.57-.747.99-.98.42-.233.893-.35 1.42-.35.52 0 .983.117 1.39.35.413.227.733.55.96.97.233.413.35.893.35 1.44zm-2.7-1.76c-.4 0-.74.12-1.02.36-.274.233-.44.547-.5.94h3.03a1.477 1.477 0 00-.49-.94c-.274-.24-.614-.36-1.02-.36zm8.102.12h-1.87V152h-1.25v-4.28h-1.88v-1.06h5v1.06zm3.866-1.12a2.8 2.8 0 011.39.34c.414.227.737.547.97.96.234.413.35.89.35 1.43 0 .54-.116 1.02-.35 1.44a2.44 2.44 0 01-.97.96 2.8 2.8 0 01-1.39.34c-.72 0-1.29-.24-1.71-.72v2.59h-1.25v-7.28h1.19v.7a1.95 1.95 0 01.76-.57c.307-.127.644-.19 1.01-.19zm-.14 4.4c.46 0 .837-.153 1.13-.46.3-.307.45-.71.45-1.21s-.15-.903-.45-1.21c-.293-.307-.67-.46-1.13-.46-.3 0-.57.07-.81.21-.24.133-.43.327-.57.58a1.79 1.79 0 00-.21.88c0 .333.07.627.21.88.14.253.33.45.57.59.24.133.51.2.81.2zm6.474 1.07c-.54 0-1.026-.117-1.46-.35a2.602 2.602 0 01-1.02-.97 2.81 2.81 0 01-.36-1.42c0-.527.12-.997.36-1.41a2.602 2.602 0 011.02-.97c.434-.233.92-.35 1.46-.35.547 0 1.037.117 1.47.35.434.233.77.557 1.01.97.247.413.37.883.37 1.41 0 .527-.123 1-.37 1.42-.24.413-.576.737-1.01.97-.433.233-.923.35-1.47.35zm0-1.07c.46 0 .84-.153 1.14-.46.3-.307.45-.71.45-1.21s-.15-.903-.45-1.21c-.3-.307-.68-.46-1.14-.46-.46 0-.84.153-1.14.46-.293.307-.44.71-.44 1.21s.147.903.44 1.21c.3.307.68.46 1.14.46zm9.205-4.34V152h-1.24v-4.28h-2.63V152h-1.25v-5.34h5.12zm3.677-.06c.787 0 1.387.19 1.8.57.42.373.63.94.63 1.7V152h-1.18v-.65a1.482 1.482 0 01-.66.54c-.28.12-.62.18-1.02.18s-.75-.067-1.05-.2a1.71 1.71 0 01-.7-.57 1.492 1.492 0 01-.24-.83c0-.48.177-.863.53-1.15.36-.293.923-.44 1.69-.44h1.38v-.08c0-.373-.113-.66-.34-.86-.22-.2-.55-.3-.99-.3-.3 0-.597.047-.89.14-.287.093-.53.223-.73.39l-.49-.91c.28-.213.617-.377 1.01-.49.393-.113.81-.17 1.25-.17zm-.17 4.56c.313 0 .59-.07.83-.21.247-.147.42-.353.52-.62v-.62h-1.29c-.72 0-1.08.237-1.08.71 0 .227.09.407.27.54.18.133.43.2.75.2zm8.987-4.5V152h-1.25v-4.28h-2l-.05 1.06c-.034.707-.1 1.3-.2 1.78-.094.473-.257.85-.49 1.13-.227.273-.54.41-.94.41a2.76 2.76 0 01-.69-.11l.06-1.05c.093.02.173.03.24.03a.63.63 0 00.57-.3c.126-.207.206-.45.24-.73.04-.287.073-.693.1-1.22l.09-2.06h4.32zm4.063 5.41c-.54 0-1.026-.117-1.46-.35a2.602 2.602 0 01-1.02-.97 2.81 2.81 0 01-.36-1.42c0-.527.12-.997.36-1.41a2.602 2.602 0 011.02-.97c.434-.233.92-.35 1.46-.35.547 0 1.037.117 1.47.35.434.233.77.557 1.01.97.247.413.37.883.37 1.41 0 .527-.123 1-.37 1.42-.24.413-.576.737-1.01.97-.433.233-.923.35-1.47.35zm0-1.07c.46 0 .84-.153 1.14-.46.3-.307.45-.71.45-1.21s-.15-.903-.45-1.21c-.3-.307-.68-.46-1.14-.46-.46 0-.84.153-1.14.46-.293.307-.44.71-.44 1.21s.147.903.44 1.21c.3.307.68.46 1.14.46zm7.955-1.78c.66.2.99.627.99 1.28 0 .48-.18.85-.54 1.11-.36.26-.893.39-1.6.39h-2.72v-5.34h2.61c.653 0 1.163.12 1.53.36s.55.58.55 1.02c0 .273-.073.51-.22.71-.14.2-.34.357-.6.47zm-2.68-.33h1.31c.647 0 .97-.223.97-.67 0-.433-.323-.65-.97-.65h-1.31v1.32zm1.43 2.2c.687 0 1.03-.223 1.03-.67 0-.233-.08-.407-.24-.52-.16-.12-.41-.18-.75-.18h-1.47v1.37h1.43zm6.001.98c-.553 0-1.05-.117-1.49-.35a2.583 2.583 0 01-1.03-.97 2.757 2.757 0 01-.37-1.42c0-.527.124-.997.37-1.41a2.602 2.602 0 011.02-.97c.44-.233.94-.35 1.5-.35.527 0 .987.107 1.38.32.4.213.7.52.9.92l-.96.56a1.467 1.467 0 00-.58-.55 1.504 1.504 0 00-.75-.19c-.466 0-.853.153-1.16.46-.306.3-.46.703-.46 1.21s.15.913.45 1.22c.307.3.697.45 1.17.45.274 0 .524-.06.75-.18.234-.127.427-.313.58-.56l.96.56c-.206.4-.51.71-.91.93-.393.213-.85.32-1.37.32zm5.601-2.21h-.97V152h-1.25v-5.34h1.25v2.16h1l1.58-2.16h1.34l-1.94 2.57 2.07 2.77h-1.47l-1.61-2.14zm3.418-1.16h2.75v1.04h-2.75v-1.04zm-73.543 12.35h-1.3V164h-1.28v-7h1.28v2.93h1.34l2.01-2.93h1.38l-2.39 3.39 2.48 3.61h-1.47l-2.05-2.95zm6.321-2.45c.786 0 1.386.19 1.8.57.42.373.63.94.63 1.7V164h-1.18v-.65a1.493 1.493 0 01-.66.54c-.28.12-.62.18-1.02.18s-.75-.067-1.05-.2c-.3-.14-.534-.33-.7-.57a1.492 1.492 0 01-.24-.83c0-.48.176-.863.53-1.15.36-.293.923-.44 1.69-.44h1.38v-.08c0-.373-.114-.66-.34-.86-.22-.2-.55-.3-.99-.3-.3 0-.597.047-.89.14-.287.093-.53.223-.73.39l-.49-.91c.28-.213.616-.377 1.01-.49.393-.113.81-.17 1.25-.17zm-.17 4.56c.313 0 .59-.07.83-.21a1.19 1.19 0 00.52-.62v-.62h-1.29c-.72 0-1.08.237-1.08.71 0 .227.09.407.27.54.18.133.43.2.75.2zm9.397.84v-3.54l-1.8 2.98h-.54l-1.77-2.99V164h-1.14v-5.34h1.31l1.9 3.34 1.99-3.34h1.17l.01 5.34h-1.13zm7.336-5.34V164h-1.25v-2.07c-.513.247-1.05.37-1.61.37-.686 0-1.213-.157-1.58-.47-.366-.32-.55-.807-.55-1.46v-1.71h1.25v1.63c0 .34.1.593.3.76.2.167.484.25.85.25.467 0 .914-.1 1.34-.3v-2.34h1.25zm3.671-.06c.787 0 1.387.19 1.8.57.42.373.63.94.63 1.7V164h-1.18v-.65a1.482 1.482 0 01-.66.54c-.28.12-.62.18-1.02.18s-.75-.067-1.05-.2a1.71 1.71 0 01-.7-.57 1.492 1.492 0 01-.24-.83c0-.48.177-.863.53-1.15.36-.293.923-.44 1.69-.44h1.38v-.08c0-.373-.113-.66-.34-.86-.22-.2-.55-.3-.99-.3-.3 0-.597.047-.89.14-.287.093-.53.223-.73.39l-.49-.91c.28-.213.617-.377 1.01-.49.393-.113.81-.17 1.25-.17zm-.17 4.56c.313 0 .59-.07.83-.21.247-.147.42-.353.52-.62v-.62h-1.29c-.72 0-1.08.237-1.08.71 0 .227.09.407.27.54.18.133.43.2.75.2zm8.377-3.44h-1.87V164h-1.25v-4.28h-1.88v-1.06h5v1.06zm3.102 4.35c-.553 0-1.05-.117-1.49-.35a2.583 2.583 0 01-1.03-.97 2.757 2.757 0 01-.37-1.42c0-.527.124-.997.37-1.41a2.602 2.602 0 011.02-.97c.44-.233.94-.35 1.5-.35.527 0 .987.107 1.38.32.4.213.7.52.9.92l-.96.56a1.467 1.467 0 00-.58-.55 1.504 1.504 0 00-.75-.19c-.466 0-.853.153-1.16.46-.306.3-.46.703-.46 1.21s.15.913.45 1.22c.307.3.697.45 1.17.45.274 0 .524-.06.75-.18.234-.127.427-.313.58-.56l.96.56c-.206.4-.51.71-.91.93-.393.213-.85.32-1.37.32zm5.601-2.21h-.97V164h-1.25v-5.34h1.25v2.16h1l1.58-2.16h1.34l-1.94 2.57 2.07 2.77h-1.47l-1.61-2.14zm3.961-3.2h1.25v3.52l2.95-3.52h1.14V164h-1.25v-3.52l-2.94 3.52h-1.15v-5.34zm7.022 0h1.25v3.52l2.95-3.52h1.14V164h-1.25v-3.52l-2.94 3.52h-1.15v-5.34zm2.59-.63c-.54 0-.953-.123-1.24-.37-.28-.253-.423-.62-.43-1.1h.83c.007.24.08.43.22.57.147.14.35.21.61.21.253 0 .453-.07.6-.21.153-.14.233-.33.24-.57h.85c-.007.48-.153.847-.44 1.1-.287.247-.7.37-1.24.37z" fill="#68727E"/><circle cx="143" cy="178" r="4" fill="#68727E"/><circle cx="139" cy="234" r="4" fill="#68727E"/><circle cx="249" cy="290" r="4" fill="#68727E"/><circle cx="352" cy="211" r="4" fill="#68727E"/><circle cx="403" cy="329" r="4" fill="#68727E"/><circle cx="493" cy="150" r="4" fill="#68727E"/><circle cx="644" cy="351" r="4" fill="#68727E"/><circle cx="674" cy="172" r="4" fill="#68727E"/><circle cx="544" cy="215" r="4" fill="#68727E"/><circle cx="653" cy="61" r="4" fill="#68727E"/><circle cx="101" cy="305" r="4" fill="#68727E"/><circle cx="108" cy="365" r="4" fill="#68727E"/></svg>