<svg width="70" height="70" fill="none" xmlns="http://www.w3.org/2000/svg"><g filter="url(#filter0_d)"><path d="M10 35c0-13.807 11.193-25 25-25s25 11.193 25 25-11.193 25-25 25-25-11.193-25-25z" fill="#fff"/></g><path d="M46.012 40.75a.254.254 0 00-.393 0c-.677.799-2.9 3-2.9 5.005 0 1.74 1.386 3.151 3.093 3.151 1.709 0 3.094-1.418 3.094-3.15 0-2.006-2.21-4.207-2.894-5.006zm-2.069-3.194L29.03 22.762a2.321 2.321 0 00-3.288 0l-.331.331a2.32 2.32 0 000 3.288l3.409 3.409 3.673-3.674-9.862 9.848a1.805 1.805 0 00.019 2.578l8.456 8.121a1.808 1.808 0 002.508-.006c2.436-2.36 7.624-7.38 8.166-7.921.374-.374 1.173-.458 1.85-.458h.019a.42.42 0 00.294-.722v0z" stroke="#9DBE39" stroke-width="2" stroke-miterlimit="10"/><defs><filter id="filter0_d" x="0" y="0" width="70" height="70" filterUnits="userSpaceOnUse" color-interpolation-filters="sRGB"><feFlood flood-opacity="0" result="BackgroundImageFix"/><feColorMatrix in="SourceAlpha" values="0 0 0 0 0 0 0 0 0 0 0 0 0 0 0 0 0 0 127 0"/><feOffset/><feGaussianBlur stdDeviation="5"/><feColorMatrix values="0 0 0 0 0 0 0 0 0 0 0 0 0 0 0 0 0 0 0.1 0"/><feBlend in2="BackgroundImageFix" result="effect1_dropShadow"/><feBlend in="SourceGraphic" in2="effect1_dropShadow" result="shape"/></filter></defs></svg>