<svg width="36" height="36" fill="none" xmlns="http://www.w3.org/2000/svg"><path d="M29.468 23.727a.277.277 0 00-.429 0c-.738.872-3.164 3.273-3.164 5.46 0 1.899 1.512 3.438 3.375 3.438s3.375-1.547 3.375-3.438c0-2.187-2.412-4.588-3.157-5.46zm-2.258-3.484L10.942 4.103a2.532 2.532 0 00-3.586 0l-.362.362a2.531 2.531 0 000 3.586l3.719 3.72 4.008-4.009L3.96 18.506a1.969 1.969 0 00.021 2.813l9.225 8.86a1.973 1.973 0 002.736-.008c2.657-2.573 8.317-8.05 8.908-8.641.408-.408 1.28-.5 2.018-.5h.021a.46.46 0 00.322-.787v0z" stroke="#9DBE39" stroke-width="2" stroke-miterlimit="10"/></svg>