<svg width="41" height="41" fill="none" xmlns="http://www.w3.org/2000/svg"><path d="M32.192 13.453c-.235 3.257-2.65 5.766-5.285 5.766-2.635 0-5.055-2.508-5.286-5.766-.24-3.388 2.112-5.765 5.286-5.765 3.173 0 5.525 2.439 5.285 5.765z" stroke="#9DBE39" stroke-width="2" stroke-linecap="round" stroke-linejoin="round"/><path d="M26.906 24.344c-5.219 0-10.237 2.592-11.494 7.64-.167.668.252 1.328.938 1.328h21.113c.686 0 1.102-.66.938-1.328-1.257-5.129-6.276-7.64-11.495-7.64z" stroke="#9DBE39" stroke-width="2" stroke-miterlimit="10"/><path d="M16.016 14.89c-.187 2.6-2.14 4.65-4.244 4.65-2.104 0-4.06-2.049-4.244-4.65-.191-2.706 1.709-4.64 4.244-4.64 2.535 0 4.436 1.983 4.244 4.64z" stroke="#9DBE39" stroke-width="2" stroke-linecap="round" stroke-linejoin="round"/><path d="M16.496 24.504c-1.445-.662-3.037-.917-4.725-.917-4.164 0-8.176 2.07-9.18 6.102-.133.533.202 1.06.75 1.06h8.99" stroke="#9DBE39" stroke-width="2" stroke-miterlimit="10" stroke-linecap="round"/></svg>