<svg width="28" height="26" fill="none" xmlns="http://www.w3.org/2000/svg"><path d="M6 13.66c-1.703 0-3.08-.618-4.13-1.855C.82 10.568.295 8.958.295 6.975S.82 3.382 1.87 2.145C2.92.908 4.297.29 6 .29c1.703 0 3.068.618 4.095 1.855 1.05 1.213 1.575 2.823 1.575 4.83s-.525 3.628-1.575 4.865C9.068 13.053 7.703 13.66 6 13.66zM20.77.5h2.695L6.735 25H4.04L20.77.5zM6 11.665c1.073 0 1.913-.408 2.52-1.225.607-.84.91-1.995.91-3.465 0-1.47-.303-2.613-.91-3.43-.607-.84-1.447-1.26-2.52-1.26-1.05 0-1.89.42-2.52 1.26-.607.84-.91 1.983-.91 3.43s.303 2.59.91 3.43c.63.84 1.47 1.26 2.52 1.26zM21.505 25.21c-1.703 0-3.08-.607-4.13-1.82-1.027-1.237-1.54-2.858-1.54-4.865s.513-3.617 1.54-4.83c1.05-1.237 2.427-1.855 4.13-1.855 1.703 0 3.08.618 4.13 1.855 1.05 1.237 1.575 2.847 1.575 4.83s-.525 3.593-1.575 4.83c-1.05 1.237-2.427 1.855-4.13 1.855zm0-1.995c1.05 0 1.878-.42 2.485-1.26.63-.84.945-1.983.945-3.43s-.315-2.59-.945-3.43c-.607-.84-1.435-1.26-2.485-1.26-1.073 0-1.913.42-2.52 1.26-.607.817-.91 1.96-.91 3.43 0 1.47.303 2.625.91 3.465.607.817 1.447 1.225 2.52 1.225z" fill="#68727E"/></svg>