<svg width="50" height="50" fill="none" xmlns="http://www.w3.org/2000/svg"><rect width="50" height="50" rx="25" fill="#9DBE39"/><g clip-path="url(#clip0)" fill="#fff"><path d="M36.469 16.855a.685.685 0 00.073-.887 14.817 14.817 0 00-3.001-3.02.68.68 0 00-.885.072l-1.111 1.116a.662.662 0 01-.805.1 11.988 11.988 0 00-3.317-1.296v-2.1a.68.68 0 00-.567-.675 13.988 13.988 0 00-4.262 0 .675.675 0 00-.567.674v2.1a11.975 11.975 0 00-3.316 1.3.661.661 0 01-.806-.1l-1.111-1.116a.681.681 0 00-.885-.072 14.82 14.82 0 00-3 3.02.685.685 0 00.072.886l1.109 1.113a.667.667 0 01.098.808c-.42.738-.762 1.519-1.02 2.329a1.411 1.411 0 01-.945.936h-1.385a.673.673 0 00-.671.568 14.224 14.224 0 000 4.342.678.678 0 00.67.569h1.386a1.401 1.401 0 01.945.934c.258.811.601 1.593 1.023 2.332a.669.669 0 01-.099.808l-1.108 1.112a.686.686 0 00-.073.887 14.829 14.829 0 003.001 3.02.68.68 0 00.884-.073l1.112-1.115a.662.662 0 01.805-.1c.57.328 1.164.609 1.778.84a13.003 13.003 0 01-.54-4.977 7.997 7.997 0 01-2.616-3.403 8.028 8.028 0 01-.484-4.271c.514-3.37 3.258-6.123 6.615-6.64a7.941 7.941 0 013.963.375 7.968 7.968 0 013.288 2.253 12.978 12.978 0 015.006.16 12.37 12.37 0 00-.46-.888.668.668 0 01.099-.809l1.107-1.112z"/><path d="M40.89 28.833a.447.447 0 00-.441-.374h-.912a.923.923 0 01-.621-.616 8.04 8.04 0 00-.675-1.536.44.44 0 01.067-.532l.73-.733a.451.451 0 00.05-.584 9.764 9.764 0 00-1.977-1.99.447.447 0 00-.582.048l-.736.736a.436.436 0 01-.53.067 7.898 7.898 0 00-2.183-.858V21.08a.448.448 0 00-.373-.444 9.205 9.205 0 00-2.808 0 .445.445 0 00-.373.444v1.382a7.899 7.899 0 00-2.183.856.437.437 0 01-.532-.068l-.731-.734a.448.448 0 00-.583-.047 9.77 9.77 0 00-1.979 1.99.453.453 0 00.048.584l.73.732a.44.44 0 01.068.533 8.04 8.04 0 00-.675 1.535.93.93 0 01-.621.617h-.913a.444.444 0 00-.442.374 9.353 9.353 0 000 2.86.447.447 0 00.442.375h.912a.925.925 0 01.62.616c.171.534.398 1.049.676 1.535a.44.44 0 01-.068.533l-.73.733a.452.452 0 00-.048.584 9.77 9.77 0 001.977 1.988.447.447 0 00.582-.047l.733-.735a.436.436 0 01.53-.067 7.879 7.879 0 002.184.855v1.383a.448.448 0 00.373.444c.93.143 1.877.143 2.808 0a.444.444 0 00.373-.444v-1.383a7.877 7.877 0 002.184-.855.435.435 0 01.53.067l.735.734a.447.447 0 00.582.048 9.766 9.766 0 001.98-1.988.452.452 0 00-.049-.584l-.73-.732a.44.44 0 01-.067-.533 8.04 8.04 0 00.675-1.535.928.928 0 01.621-.617h.912a.444.444 0 00.442-.374 9.353 9.353 0 000-2.86h-.002zm-6.959 1.854a2.677 2.677 0 01-1.809 2.12 2.653 2.653 0 01-2.704-.652 2.676 2.676 0 01-.65-2.716 2.673 2.673 0 012.113-1.815 2.665 2.665 0 012.298.755 2.686 2.686 0 01.752 2.308z"/></g><defs><clipPath id="clip0"><path fill="#fff" d="M10 10h31v30H10z"/></clipPath></defs></svg>