<svg width="70" height="70" viewBox="0 0 70 70" fill="none" xmlns="http://www.w3.org/2000/svg">
<g filter="url(#filter0_d)">
<path d="M10 35C10 21.1929 21.1929 10 35 10V10C48.8071 10 60 21.1929 60 35V35C60 48.8071 48.8071 60 35 60V60C21.1929 60 10 48.8071 10 35V35Z" fill="white"/>
</g>
<path d="M46.0123 40.7497C45.9885 40.7206 45.9585 40.6971 45.9245 40.681C45.8905 40.6649 45.8533 40.6566 45.8157 40.6566C45.7781 40.6566 45.7409 40.6649 45.7069 40.681C45.6729 40.6971 45.643 40.7206 45.6191 40.7497C44.9424 41.549 42.7188 43.75 42.7188 45.7552C42.7188 47.4954 44.1045 48.9063 45.8125 48.9063C47.5205 48.9063 48.9062 47.4883 48.9062 45.7552C48.9062 43.75 46.6955 41.549 46.0123 40.7497Z" stroke="#9DBE39" stroke-width="2" stroke-miterlimit="10"/>
<path d="M43.9434 37.5561L29.0296 22.7615C28.814 22.5452 28.5579 22.3735 28.2759 22.2564C27.9938 22.1393 27.6914 22.079 27.3861 22.079C27.0807 22.079 26.7783 22.1393 26.4963 22.2564C26.2142 22.3735 25.9581 22.5452 25.7425 22.7615L25.4106 23.0934C25.1943 23.309 25.0226 23.5651 24.9055 23.8472C24.7884 24.1292 24.7281 24.4316 24.7281 24.737C24.7281 25.0424 24.7884 25.3448 24.9055 25.6268C25.0226 25.9088 25.1943 26.165 25.4106 26.3805L28.8195 29.7895L32.4933 26.1156L22.6307 35.9641C22.4605 36.1334 22.3257 36.335 22.2344 36.557C22.143 36.7791 22.0969 37.0171 22.0987 37.2572C22.1005 37.4973 22.1502 37.7346 22.2449 37.9553C22.3395 38.1759 22.4773 38.3755 22.65 38.5422L31.1063 46.6633C31.444 46.9866 31.8937 47.1665 32.3612 47.1653C32.8287 47.1641 33.2775 46.9819 33.6135 46.6568C36.0498 44.2979 41.2383 39.277 41.7797 38.7356C42.1536 38.3617 42.9528 38.2779 43.6295 38.2779H43.6489C43.7326 38.278 43.8144 38.2531 43.8838 38.2065C43.9533 38.1598 44.0073 38.0935 44.0389 38.0161C44.0705 37.9386 44.0783 37.8534 44.0613 37.7715C44.0443 37.6896 44.0033 37.6146 43.9434 37.5561V37.5561Z" stroke="#9DBE39" stroke-width="2" stroke-miterlimit="10"/>
<defs>
<filter id="filter0_d" x="0" y="0" width="70" height="70" filterUnits="userSpaceOnUse" color-interpolation-filters="sRGB">
<feFlood flood-opacity="0" result="BackgroundImageFix"/>
<feColorMatrix in="SourceAlpha" type="matrix" values="0 0 0 0 0 0 0 0 0 0 0 0 0 0 0 0 0 0 127 0"/>
<feOffset/>
<feGaussianBlur stdDeviation="5"/>
<feColorMatrix type="matrix" values="0 0 0 0 0 0 0 0 0 0 0 0 0 0 0 0 0 0 0.1 0"/>
<feBlend mode="normal" in2="BackgroundImageFix" result="effect1_dropShadow"/>
<feBlend mode="normal" in="SourceGraphic" in2="effect1_dropShadow" result="shape"/>
</filter>
</defs>
</svg>
