<svg width="41" height="41" viewBox="0 0 41 41" fill="none" xmlns="http://www.w3.org/2000/svg">
<path d="M32.1917 13.4531C31.957 16.7099 29.5411 19.2188 26.9065 19.2188C24.272 19.2188 21.852 16.7107 21.6214 13.4531C21.3811 10.065 23.733 7.6875 26.9065 7.6875C30.08 7.6875 32.4319 10.1267 32.1917 13.4531Z" stroke="#9DBE39" stroke-width="2" stroke-linecap="round" stroke-linejoin="round"/>
<path d="M26.9059 24.3438C21.6872 24.3438 16.6687 26.9359 15.4115 31.984C15.245 32.6519 15.6638 33.3125 16.35 33.3125H37.4626C38.1489 33.3125 38.5653 32.6519 38.4011 31.984C37.1439 26.855 32.1254 24.3438 26.9059 24.3438Z" stroke="#9DBE39" stroke-width="2" stroke-miterlimit="10"/>
<path d="M16.0162 14.8897C15.8288 17.4907 13.8765 19.5391 11.7721 19.5391C9.66761 19.5391 7.71211 17.4915 7.52793 14.8897C7.33654 12.1839 9.23679 10.25 11.7721 10.25C14.3073 10.25 16.2076 12.2335 16.0162 14.8897Z" stroke="#9DBE39" stroke-width="2" stroke-linecap="round" stroke-linejoin="round"/>
<path d="M16.4959 24.5038C15.0505 23.8416 13.4585 23.5869 11.7713 23.5869C7.60723 23.5869 3.59531 25.6569 2.59033 29.6889C2.45821 30.2222 2.79293 30.7499 3.34067 30.7499H12.3318" stroke="#9DBE39" stroke-width="2" stroke-miterlimit="10" stroke-linecap="round"/>
</svg>
