<svg width="28" height="26" viewBox="0 0 28 26" fill="none" xmlns="http://www.w3.org/2000/svg">
<path d="M6 13.66C4.29667 13.66 2.92 13.0417 1.87 11.805C0.82 10.5683 0.295 8.95833 0.295 6.975C0.295 4.99167 0.82 3.38167 1.87 2.145C2.92 0.908332 4.29667 0.289999 6 0.289999C7.70333 0.289999 9.06833 0.908332 10.095 2.145C11.145 3.35833 11.67 4.96833 11.67 6.975C11.67 8.98167 11.145 10.6033 10.095 11.84C9.06833 13.0533 7.70333 13.66 6 13.66ZM20.77 0.499998H23.465L6.735 25H4.04L20.77 0.499998ZM6 11.665C7.07333 11.665 7.91333 11.2567 8.52 10.44C9.12667 9.6 9.43 8.445 9.43 6.975C9.43 5.505 9.12667 4.36167 8.52 3.545C7.91333 2.705 7.07333 2.285 6 2.285C4.95 2.285 4.11 2.705 3.48 3.545C2.87333 4.385 2.57 5.52833 2.57 6.975C2.57 8.42167 2.87333 9.565 3.48 10.405C4.11 11.245 4.95 11.665 6 11.665ZM21.505 25.21C19.8017 25.21 18.425 24.6033 17.375 23.39C16.3483 22.1533 15.835 20.5317 15.835 18.525C15.835 16.5183 16.3483 14.9083 17.375 13.695C18.425 12.4583 19.8017 11.84 21.505 11.84C23.2083 11.84 24.585 12.4583 25.635 13.695C26.685 14.9317 27.21 16.5417 27.21 18.525C27.21 20.5083 26.685 22.1183 25.635 23.355C24.585 24.5917 23.2083 25.21 21.505 25.21ZM21.505 23.215C22.555 23.215 23.3833 22.795 23.99 21.955C24.62 21.115 24.935 19.9717 24.935 18.525C24.935 17.0783 24.62 15.935 23.99 15.095C23.3833 14.255 22.555 13.835 21.505 13.835C20.4317 13.835 19.5917 14.255 18.985 15.095C18.3783 15.9117 18.075 17.055 18.075 18.525C18.075 19.995 18.3783 21.15 18.985 21.99C19.5917 22.8067 20.4317 23.215 21.505 23.215Z" fill="#68727E"/>
</svg>
