<svg width="33" height="30" viewBox="0 0 33 30" fill="none" xmlns="http://www.w3.org/2000/svg">
<path d="M28.0625 7.40625H4.9375C3.02176 7.40625 1.46875 8.95926 1.46875 10.875V24.75C1.46875 26.6657 3.02176 28.2188 4.9375 28.2188H28.0625C29.9782 28.2188 31.5312 26.6657 31.5312 24.75V10.875C31.5312 8.95926 29.9782 7.40625 28.0625 7.40625Z" stroke="#68727E" stroke-width="2" stroke-linejoin="round"/>
<path d="M27.7272 7.40631V5.23834C27.727 4.70661 27.6095 4.18148 27.383 3.7004C27.1565 3.21933 26.8266 2.79417 26.4169 2.45526C26.0072 2.11636 25.5277 1.87206 25.0127 1.73979C24.4977 1.60753 23.9598 1.59056 23.4375 1.6901L4.40563 4.93844C3.57914 5.09594 2.83353 5.53692 2.29738 6.18534C1.76124 6.83375 1.46818 7.64893 1.46875 8.49029V12.0313" stroke="#68727E" stroke-width="2" stroke-linejoin="round"/>
<path d="M24.5938 20.125C24.1364 20.125 23.6893 19.9894 23.309 19.7353C22.9287 19.4812 22.6323 19.12 22.4573 18.6975C22.2823 18.2749 22.2365 17.8099 22.3257 17.3614C22.4149 16.9128 22.6352 16.5007 22.9586 16.1773C23.282 15.8539 23.694 15.6337 24.1426 15.5444C24.5912 15.4552 25.0562 15.501 25.4787 15.676C25.9013 15.8511 26.2624 16.1475 26.5165 16.5277C26.7706 16.908 26.9063 17.3551 26.9063 17.8125C26.9063 18.4258 26.6626 19.014 26.2289 19.4477C25.7953 19.8814 25.2071 20.125 24.5938 20.125Z" fill="#68727E"/>
</svg>
