<svg width="50" height="50" viewBox="0 0 50 50" fill="none" xmlns="http://www.w3.org/2000/svg">
<rect width="50" height="50" rx="25" fill="#9DBE39"/>
<path d="M38.0437 19.4517L26.6522 26.2544C26.5947 26.2887 26.5471 26.3372 26.5141 26.3953C26.481 26.4533 26.4637 26.5189 26.4638 26.5856V39.2584C26.4637 39.3262 26.4816 39.3928 26.5156 39.4515C26.5496 39.5101 26.5985 39.5589 26.6575 39.5927C26.7164 39.6266 26.7833 39.6443 26.8513 39.6442C26.9194 39.6441 26.9862 39.6262 27.0451 39.5921L38.4365 33.0437C38.4953 33.0098 38.5441 32.9611 38.5781 32.9026C38.612 32.844 38.6299 32.7776 38.63 32.71V19.7795C38.6293 19.7116 38.6107 19.6451 38.5759 19.5866C38.5412 19.5282 38.4916 19.4799 38.4321 19.4467C38.3726 19.4134 38.3054 19.3964 38.2372 19.3972C38.169 19.3981 38.1022 19.4169 38.0437 19.4517ZM12.9477 19.4517C12.8889 19.4168 12.8219 19.398 12.7535 19.3973C12.6851 19.3965 12.6177 19.4137 12.5581 19.4473C12.4986 19.4808 12.449 19.5295 12.4145 19.5883C12.3799 19.6471 12.3616 19.7139 12.3613 19.782V32.7159C12.3614 32.7836 12.3794 32.8501 12.4135 32.9087C12.4476 32.9673 12.4967 33.0159 12.5556 33.0496L23.9471 39.598C24.0059 39.6319 24.0727 39.6497 24.1406 39.6497C24.2085 39.6497 24.2752 39.6318 24.3341 39.598C24.3929 39.5642 24.4417 39.5156 24.4757 39.457C24.5096 39.3984 24.5275 39.332 24.5275 39.2643V26.5915C24.5275 26.5249 24.5102 26.4594 24.4774 26.4014C24.4445 26.3434 24.3972 26.2948 24.34 26.2604L12.9477 19.4517ZM19.9013 31.1951L19.3252 30.8868V32.824C19.3252 33.0842 19.113 33.1814 18.8525 33.042L17.3795 32.2563C17.1182 32.1169 16.9069 31.7933 16.9069 31.5331V29.5899L16.3307 29.2824C15.9251 29.0661 15.7079 28.4764 15.9735 28.3133L17.7554 27.215C17.9438 27.1001 18.2806 27.2792 18.469 27.5969L20.2509 30.5987C20.5267 31.0507 20.3061 31.4089 19.9013 31.1951Z" fill="white"/>
<path d="M29.9531 12.8466L25.6893 10.3966C25.6304 10.3629 25.5637 10.3452 25.4958 10.3452C25.4279 10.3452 25.3612 10.3629 25.3023 10.3966L13.7717 17.0244C13.7133 17.0581 13.6648 17.1062 13.6309 17.1642C13.5969 17.2223 13.5787 17.2881 13.5781 17.3552C13.5775 17.4223 13.5945 17.4885 13.6274 17.5471C13.6603 17.6056 13.708 17.6547 13.7658 17.6893L18.1662 20.3177C18.2264 20.3537 18.2954 20.3728 18.3656 20.3728C18.4359 20.3728 18.5048 20.3537 18.565 20.3177L29.959 13.5115C30.0168 13.4769 30.0645 13.4279 30.0974 13.3693C30.1303 13.3107 30.1473 13.2445 30.1467 13.1774C30.1461 13.1103 30.1279 13.0445 30.0939 12.9865C30.06 12.9284 30.0115 12.8803 29.9531 12.8466ZM37.6458 17.038L35.7044 12.8255C35.6817 12.7762 35.6487 12.7323 35.6077 12.6966C35.5668 12.6608 35.5187 12.6341 35.4666 12.6182C35.4145 12.6022 35.3597 12.5974 35.3056 12.604C35.2515 12.6106 35.1995 12.6285 35.1529 12.6565L23.6214 19.5446C23.5408 19.5925 23.4806 19.668 23.4518 19.7569C23.4231 19.8459 23.4279 19.9422 23.4653 20.0279L25.3201 24.2927C25.3421 24.3431 25.3746 24.3882 25.4155 24.4251C25.4564 24.462 25.5047 24.4897 25.5573 24.5065C25.6098 24.5233 25.6653 24.5287 25.7201 24.5225C25.7749 24.5162 25.8278 24.4983 25.8751 24.4701L37.4973 17.5297C37.5783 17.4801 37.6382 17.4026 37.6656 17.3119C37.6929 17.2213 37.6859 17.1238 37.6458 17.038Z" fill="white"/>
<path d="M14.9121 25.124L22.2043 28.3049L21.3974 34.5703L16.6864 33.3495L14.9121 30.5539V25.124Z" fill="white"/>
</svg>
