<svg width="33" height="33" viewBox="0 0 33 33" fill="none" xmlns="http://www.w3.org/2000/svg">
<path d="M11.3438 26.8125V30.9375" stroke="#9DBE39" stroke-width="2" stroke-linecap="round" stroke-linejoin="round"/>
<path d="M5.15625 2.0625H17.5312C18.0783 2.0625 18.6029 2.2798 18.9897 2.66659C19.3765 3.05339 19.5938 3.57799 19.5938 4.125V30.6797C19.5938 30.7481 19.5666 30.8136 19.5182 30.862C19.4699 30.9103 19.4043 30.9375 19.3359 30.9375H3.09375V4.125C3.09375 3.57799 3.31105 3.05339 3.69784 2.66659C4.08464 2.2798 4.60924 2.0625 5.15625 2.0625V2.0625Z" stroke="#9DBE39" stroke-width="2" stroke-linecap="round" stroke-linejoin="round"/>
<path d="M20.625 12.375H27.8438C28.3908 12.375 28.9154 12.5923 29.3022 12.9791C29.689 13.3659 29.9062 13.8905 29.9062 14.4375V30.9375H19.5938V13.4063C19.5938 13.1327 19.7024 12.8704 19.8958 12.677C20.0892 12.4836 20.3515 12.375 20.625 12.375Z" stroke="#9DBE39" stroke-width="2" stroke-linecap="round" stroke-linejoin="round"/>
<path d="M6.32124 27.8354C6.10766 27.8633 5.89069 27.8237 5.70079 27.722C5.51089 27.6204 5.35759 27.4618 5.26241 27.2686C5.16722 27.0754 5.13493 26.8572 5.17006 26.6447C5.20519 26.4322 5.30599 26.236 5.4583 26.0837C5.61061 25.9314 5.80679 25.8306 6.0193 25.7954C6.23181 25.7603 6.44999 25.7926 6.64322 25.8878C6.83644 25.983 6.99501 26.1363 7.09667 26.3262C7.19833 26.5161 7.23798 26.733 7.21004 26.9466C7.18057 27.172 7.07744 27.3813 6.91671 27.5421C6.75597 27.7028 6.54663 27.8059 6.32124 27.8354Z" fill="#9DBE39"/>
<path d="M6.32124 22.6792C6.10766 22.7071 5.89069 22.6674 5.70079 22.5658C5.51089 22.4641 5.35759 22.3056 5.26241 22.1123C5.16722 21.9191 5.13493 21.7009 5.17006 21.4884C5.20519 21.2759 5.30599 21.0797 5.4583 20.9274C5.61061 20.7751 5.80679 20.6743 6.0193 20.6392C6.23181 20.604 6.44999 20.6363 6.64322 20.7315C6.83644 20.8267 6.99501 20.98 7.09667 21.1699C7.19833 21.3598 7.23798 21.5768 7.21004 21.7903C7.18057 22.0157 7.07744 22.2251 6.91671 22.3858C6.75597 22.5466 6.54663 22.6497 6.32124 22.6792Z" fill="#9DBE39"/>
<path d="M6.32124 17.5229C6.10766 17.5508 5.89069 17.5112 5.70079 17.4095C5.51089 17.3079 5.35759 17.1493 5.26241 16.9561C5.16722 16.7629 5.13493 16.5447 5.17006 16.3322C5.20519 16.1197 5.30599 15.9235 5.4583 15.7712C5.61061 15.6189 5.80679 15.5181 6.0193 15.4829C6.23181 15.4478 6.44999 15.4801 6.64322 15.5753C6.83644 15.6705 6.99501 15.8238 7.09667 16.0137C7.19833 16.2036 7.23798 16.4205 7.21004 16.6341C7.18057 16.8595 7.07744 17.0688 6.91671 17.2296C6.75597 17.3903 6.54663 17.4934 6.32124 17.5229Z" fill="#9DBE39"/>
<path d="M6.32124 12.3667C6.10766 12.3946 5.89069 12.3549 5.70079 12.2533C5.51089 12.1516 5.35759 11.9931 5.26241 11.7998C5.16722 11.6066 5.13493 11.3884 5.17006 11.1759C5.20519 10.9634 5.30599 10.7672 5.4583 10.6149C5.61061 10.4626 5.80679 10.3618 6.0193 10.3267C6.23181 10.2915 6.44999 10.3238 6.64322 10.419C6.83644 10.5142 6.99501 10.6675 7.09667 10.8574C7.19833 11.0473 7.23798 11.2643 7.21004 11.4779C7.18057 11.7032 7.07744 11.9126 6.91671 12.0733C6.75597 12.2341 6.54663 12.3372 6.32124 12.3667Z" fill="#9DBE39"/>
<path d="M6.32124 7.21041C6.10766 7.23834 5.89069 7.1987 5.70079 7.09704C5.51089 6.99538 5.35759 6.83681 5.26241 6.64358C5.16722 6.45036 5.13493 6.23218 5.17006 6.01967C5.20519 5.80715 5.30599 5.61097 5.4583 5.45866C5.61061 5.30635 5.80679 5.20556 6.0193 5.17043C6.23181 5.13529 6.44999 5.16759 6.64322 5.26277C6.83644 5.35796 6.99501 5.51126 7.09667 5.70116C7.19833 5.89106 7.23798 6.10802 7.21004 6.3216C7.18057 6.547 7.07744 6.75634 6.91671 6.91707C6.75597 7.07781 6.54663 7.18093 6.32124 7.21041Z" fill="#9DBE39"/>
<path d="M11.4775 22.6792C11.2639 22.7071 11.0469 22.6674 10.857 22.5658C10.6671 22.4641 10.5138 22.3056 10.4187 22.1123C10.3235 21.9191 10.2912 21.7009 10.3263 21.4884C10.3614 21.2759 10.4622 21.0797 10.6145 20.9274C10.7669 20.7751 10.963 20.6743 11.1755 20.6392C11.3881 20.604 11.6062 20.6363 11.7995 20.7315C11.9927 20.8267 12.1513 20.98 12.2529 21.1699C12.3546 21.3598 12.3942 21.5768 12.3663 21.7903C12.3368 22.0157 12.2337 22.2251 12.073 22.3858C11.9122 22.5466 11.7029 22.6497 11.4775 22.6792Z" fill="#9DBE39"/>
<path d="M11.4775 17.5229C11.2639 17.5508 11.0469 17.5112 10.857 17.4095C10.6671 17.3079 10.5138 17.1493 10.4187 16.9561C10.3235 16.7629 10.2912 16.5447 10.3263 16.3322C10.3614 16.1197 10.4622 15.9235 10.6145 15.7712C10.7669 15.6189 10.963 15.5181 11.1755 15.4829C11.3881 15.4478 11.6062 15.4801 11.7995 15.5753C11.9927 15.6705 12.1513 15.8238 12.2529 16.0137C12.3546 16.2036 12.3942 16.4205 12.3663 16.6341C12.3368 16.8595 12.2337 17.0688 12.073 17.2296C11.9122 17.3903 11.7029 17.4934 11.4775 17.5229Z" fill="#9DBE39"/>
<path d="M11.4775 12.3667C11.2639 12.3946 11.0469 12.3549 10.857 12.2533C10.6671 12.1516 10.5138 11.9931 10.4187 11.7998C10.3235 11.6066 10.2912 11.3884 10.3263 11.1759C10.3614 10.9634 10.4622 10.7672 10.6145 10.6149C10.7669 10.4626 10.963 10.3618 11.1755 10.3267C11.3881 10.2915 11.6062 10.3238 11.7995 10.419C11.9927 10.5142 12.1513 10.6675 12.2529 10.8574C12.3546 11.0473 12.3942 11.2643 12.3663 11.4779C12.3368 11.7032 12.2337 11.9126 12.073 12.0733C11.9122 12.2341 11.7029 12.3372 11.4775 12.3667Z" fill="#9DBE39"/>
<path d="M11.4775 7.21041C11.2639 7.23834 11.0469 7.1987 10.857 7.09704C10.6671 6.99538 10.5138 6.83681 10.4187 6.64358C10.3235 6.45036 10.2912 6.23218 10.3263 6.01967C10.3614 5.80715 10.4622 5.61097 10.6145 5.45866C10.7669 5.30635 10.963 5.20556 11.1755 5.17043C11.3881 5.13529 11.6062 5.16759 11.7995 5.26277C11.9927 5.35796 12.1513 5.51126 12.2529 5.70116C12.3546 5.89106 12.3942 6.10802 12.3663 6.3216C12.3368 6.547 12.2337 6.75634 12.073 6.91707C11.9122 7.07781 11.7029 7.18093 11.4775 7.21041Z" fill="#9DBE39"/>
<path d="M16.6337 27.8354C16.4202 27.8633 16.2032 27.8237 16.0133 27.722C15.8234 27.6204 15.6701 27.4618 15.5749 27.2686C15.4797 27.0754 15.4474 26.8572 15.4826 26.6447C15.5177 26.4322 15.6185 26.236 15.7708 26.0837C15.9231 25.9314 16.1193 25.8306 16.3318 25.7954C16.5443 25.7603 16.7625 25.7926 16.9557 25.8878C17.1489 25.983 17.3075 26.1363 17.4092 26.3262C17.5108 26.5161 17.5505 26.733 17.5225 26.9466C17.4931 27.172 17.3899 27.3813 17.2292 27.5421C17.0685 27.7028 16.8591 27.8059 16.6337 27.8354Z" fill="#9DBE39"/>
<path d="M16.6337 22.6792C16.4202 22.7071 16.2032 22.6674 16.0133 22.5658C15.8234 22.4641 15.6701 22.3056 15.5749 22.1123C15.4797 21.9191 15.4474 21.7009 15.4826 21.4884C15.5177 21.2759 15.6185 21.0797 15.7708 20.9274C15.9231 20.7751 16.1193 20.6743 16.3318 20.6392C16.5443 20.604 16.7625 20.6363 16.9557 20.7315C17.1489 20.8267 17.3075 20.98 17.4092 21.1699C17.5108 21.3598 17.5505 21.5768 17.5225 21.7903C17.4931 22.0157 17.3899 22.2251 17.2292 22.3858C17.0685 22.5466 16.8591 22.6497 16.6337 22.6792Z" fill="#9DBE39"/>
<path d="M16.6337 17.5229C16.4202 17.5508 16.2032 17.5112 16.0133 17.4095C15.8234 17.3079 15.6701 17.1493 15.5749 16.9561C15.4797 16.7629 15.4474 16.5447 15.4826 16.3322C15.5177 16.1197 15.6185 15.9235 15.7708 15.7712C15.9231 15.6189 16.1193 15.5181 16.3318 15.4829C16.5443 15.4478 16.7625 15.4801 16.9557 15.5753C17.1489 15.6705 17.3075 15.8238 17.4092 16.0137C17.5108 16.2036 17.5505 16.4205 17.5225 16.6341C17.4931 16.8595 17.3899 17.0688 17.2292 17.2296C17.0685 17.3903 16.8591 17.4934 16.6337 17.5229Z" fill="#9DBE39"/>
<path d="M17.231 12.0737C17.6325 11.6722 17.6309 11.0197 17.2274 10.6162C16.8239 10.2127 16.1714 10.2111 15.7699 10.6126C15.3684 11.014 15.3701 11.6666 15.7735 12.07C16.177 12.4735 16.8296 12.4752 17.231 12.0737Z" fill="#9DBE39"/>
<path d="M16.6337 7.21041C16.4202 7.23834 16.2032 7.1987 16.0133 7.09704C15.8234 6.99538 15.6701 6.83681 15.5749 6.64358C15.4797 6.45036 15.4474 6.23218 15.4826 6.01967C15.5177 5.80715 15.6185 5.61097 15.7708 5.45866C15.9231 5.30635 16.1193 5.20556 16.3318 5.17043C16.5443 5.13529 16.7625 5.16759 16.9557 5.26277C17.1489 5.35796 17.3075 5.51126 17.4092 5.70116C17.5108 5.89106 17.5505 6.10802 17.5225 6.3216C17.4931 6.547 17.3899 6.75634 17.2292 6.91707C17.0685 7.07781 16.8591 7.18093 16.6337 7.21041Z" fill="#9DBE39"/>
<path d="M25.7813 25.7812C25.5773 25.7812 25.3779 25.8417 25.2083 25.955C25.0387 26.0684 24.9066 26.2294 24.8285 26.4179C24.7504 26.6063 24.73 26.8136 24.7698 27.0137C24.8096 27.2137 24.9078 27.3975 25.052 27.5417C25.1963 27.6859 25.38 27.7841 25.5801 27.8239C25.7801 27.8637 25.9875 27.8433 26.1759 27.7653C26.3643 27.6872 26.5254 27.555 26.6387 27.3854C26.752 27.2158 26.8125 27.0165 26.8125 26.8125C26.8125 26.539 26.7039 26.2767 26.5105 26.0833C26.3171 25.8899 26.0548 25.7812 25.7813 25.7812Z" fill="#9DBE39"/>
<path d="M25.7813 20.625C25.5773 20.625 25.3779 20.6855 25.2083 20.7988C25.0387 20.9121 24.9066 21.0732 24.8285 21.2616C24.7504 21.45 24.73 21.6574 24.7698 21.8574C24.8096 22.0575 24.9078 22.2412 25.052 22.3855C25.1963 22.5297 25.38 22.6279 25.5801 22.6677C25.7801 22.7075 25.9875 22.6871 26.1759 22.609C26.3643 22.5309 26.5254 22.3988 26.6387 22.2292C26.752 22.0596 26.8125 21.8602 26.8125 21.6562C26.8125 21.3827 26.7039 21.1204 26.5105 20.927C26.3171 20.7336 26.0548 20.625 25.7813 20.625Z" fill="#9DBE39"/>
<path d="M25.7813 15.4688C25.5773 15.4688 25.3779 15.5292 25.2083 15.6425C25.0387 15.7559 24.9066 15.9169 24.8285 16.1054C24.7504 16.2938 24.73 16.5011 24.7698 16.7012C24.8096 16.9012 24.9078 17.085 25.052 17.2292C25.1963 17.3734 25.38 17.4716 25.5801 17.5114C25.7801 17.5512 25.9875 17.5308 26.1759 17.4528C26.3643 17.3747 26.5254 17.2425 26.6387 17.0729C26.752 16.9033 26.8125 16.704 26.8125 16.5C26.8125 16.2265 26.7039 15.9642 26.5105 15.7708C26.3171 15.5774 26.0548 15.4688 25.7813 15.4688Z" fill="#9DBE39"/>
<path d="M21.6563 25.7812C21.4523 25.7812 21.2529 25.8417 21.0833 25.955C20.9137 26.0684 20.7816 26.2294 20.7035 26.4179C20.6254 26.6063 20.605 26.8136 20.6448 27.0137C20.6846 27.2137 20.7828 27.3975 20.927 27.5417C21.0713 27.6859 21.255 27.7841 21.4551 27.8239C21.6551 27.8637 21.8625 27.8433 22.0509 27.7653C22.2393 27.6872 22.4004 27.555 22.5137 27.3854C22.627 27.2158 22.6875 27.0165 22.6875 26.8125C22.6875 26.539 22.5789 26.2767 22.3855 26.0833C22.1921 25.8899 21.9298 25.7812 21.6563 25.7812Z" fill="#9DBE39"/>
<path d="M21.6563 15.4688C21.4523 15.4688 21.2529 15.5292 21.0833 15.6425C20.9137 15.7559 20.7816 15.9169 20.7035 16.1054C20.6254 16.2938 20.605 16.5011 20.6448 16.7012C20.6846 16.9012 20.7828 17.085 20.927 17.2292C21.0713 17.3734 21.255 17.4716 21.4551 17.5114C21.6551 17.5512 21.8625 17.5308 22.0509 17.4528C22.2393 17.3747 22.4004 17.2425 22.5137 17.0729C22.627 16.9033 22.6875 16.704 22.6875 16.5C22.6875 16.2265 22.5789 15.9642 22.3855 15.7708C22.1921 15.5774 21.9298 15.4688 21.6563 15.4688Z" fill="#9DBE39"/>
<path d="M22.0313 20.63C21.8273 20.63 21.6279 20.6905 21.4583 20.8038C21.2887 20.9171 21.1566 21.0782 21.0785 21.2666C21.0004 21.455 20.98 21.6624 21.0198 21.8624C21.0596 22.0625 21.1578 22.2462 21.302 22.3905C21.4463 22.5347 21.63 22.6329 21.8301 22.6727C22.0301 22.7125 22.2375 22.6921 22.4259 22.614C22.6143 22.536 22.7754 22.4038 22.8887 22.2342C23.002 22.0646 23.0625 21.8652 23.0625 21.6613C23.0625 21.3878 22.9539 21.1254 22.7605 20.9321C22.5671 20.7387 22.3048 20.63 22.0313 20.63Z" fill="#9DBE39"/>
</svg>
