<svg width="32" height="30" viewBox="0 0 32 30" fill="none" xmlns="http://www.w3.org/2000/svg">
<g clip-path="url(#clip0)">
<path d="M25.4133 19.6283C25.3918 19.5225 25.3538 19.4203 25.3004 19.3252C25.2406 19.2177 25.0645 18.9177 24.832 18.5189L25.4133 19.6283Z" fill="#9DBE39"/>
<path d="M16.5889 8.89453L18.7986 9.50405L21.6551 10.2931L23.866 10.9026C24.049 10.9555 24.2415 10.9717 24.4314 10.9502C24.6214 10.9287 24.8046 10.8701 24.9695 10.7779C25.1344 10.6857 25.2776 10.562 25.3899 10.4145C25.5022 10.2671 25.5813 10.0991 25.6221 9.92115L26.1311 7.7905C26.3105 7.038 26.6062 5.7953 26.7868 5.03743L27.2958 2.90786C27.4775 2.15536 26.9572 1.90165 26.1536 2.35315L24.7666 3.12931C24.2587 2.30693 23.7509 1.48886 23.5545 1.19431C23.1031 0.514908 22.2499 -0.00539185 20.5637 0.00428314L13.8848 0.0408294L16.6769 4.6859C16.7471 4.75443 16.8054 4.83317 16.8496 4.91918C16.9816 5.17503 17.4883 6.0533 17.9917 6.9219L16.6374 7.67977C15.8225 8.1259 15.8034 8.67738 16.5889 8.89453Z" fill="#9DBE39"/>
<path d="M8.85841 1.58453C8.14176 2.6176 6.32586 5.3653 6.32586 5.3653C6.22866 5.51085 6.1634 5.67363 6.13401 5.84384C6.10461 6.01405 6.11169 6.18816 6.15482 6.3557C6.19795 6.52323 6.27623 6.68072 6.38496 6.81867C6.49368 6.95662 6.63059 7.07219 6.78745 7.1584L11.242 9.6309C11.563 9.80741 11.9435 9.8581 12.303 9.77223C12.6625 9.68637 12.9729 9.47069 13.1685 9.17079L15.9132 4.88907C16.1525 4.51282 16.4414 4.45907 16.6739 4.67945L13.8851 0.0322266L12.2758 0.0408218C11.1156 0.0515718 9.79288 0.242927 8.85841 1.58453Z" fill="#9DBE39"/>
<path d="M0.979644 18.9544C1.48187 19.8778 2.87116 22.2568 3.88914 23.9993L7.04919 19.1016C7.4205 18.4986 8.11119 17.3816 8.68564 16.4561L10.3018 17.3085C11.1223 17.7385 11.6301 17.4795 11.4304 16.727L10.8661 14.6092C10.6663 13.8567 10.3379 12.6258 10.137 11.8733L9.57271 9.75559C9.52711 9.57864 9.44357 9.41258 9.32735 9.26786C9.21113 9.12314 9.06474 9.00289 8.89738 8.91465C8.73002 8.82641 8.54531 8.7721 8.35485 8.75513C8.16439 8.73816 7.97231 8.7589 7.79067 8.81604L5.5967 9.47824L2.76281 10.3382L0.569966 11.0004C-0.209888 11.2359 -0.17716 11.783 0.643324 12.2152L1.83511 12.8441C1.21552 13.9578 0.504508 15.2768 0.322805 15.6509C-0.00335654 16.3378 0.19979 17.5182 0.979644 18.9544Z" fill="#9DBE39"/>
<path d="M7.04579 19.1017L3.88574 23.9994C4.45004 24.9669 4.90147 25.7441 5.02449 25.9591C5.36306 26.56 5.83481 27.7372 8.84814 27.721L13.2282 27.6963C13.5966 27.6937 13.949 27.5525 14.2084 27.3034C14.4678 27.0542 14.6133 26.7174 14.613 26.3665L14.5836 21.4613C14.58 21.1101 14.4305 20.7746 14.1678 20.5282C13.9051 20.2818 13.5506 20.1446 13.1819 20.1466L7.2004 20.1788C6.66094 20.1788 6.5921 19.8424 6.7817 19.5263L7.04579 19.1017Z" fill="#9DBE39"/>
<path d="M25.4138 19.6284L28.0231 24.5734C28.9362 22.976 30.4868 20.2025 31.1211 19.0038C31.9687 17.3999 32.2091 16.0089 31.8175 15.2779C31.4258 14.5469 29.4937 10.9908 29.4937 10.9908C29.4137 10.8387 29.3011 10.7043 29.1632 10.5963C29.0253 10.4882 28.8652 10.4089 28.6931 10.3634C28.5211 10.3179 28.3409 10.3073 28.1643 10.3322C27.9876 10.3572 27.8185 10.4171 27.6676 10.5081L23.2424 13.0881C22.9272 13.2771 22.6992 13.5731 22.6047 13.9163C22.5102 14.2595 22.5562 14.624 22.7335 14.936C22.7335 14.936 24.0787 17.2301 24.827 18.5136C25.0595 18.9125 25.2355 19.2145 25.2953 19.3199C25.3512 19.4163 25.3912 19.5204 25.4138 19.6284Z" fill="#9DBE39"/>
<path d="M27.3774 25.6795C27.4801 25.514 27.7159 25.1087 28.0229 24.5712L25.4136 19.6262C25.4678 19.9143 25.3154 20.11 24.9396 20.1111L22.2411 20.1261L22.2265 18.5932C22.2174 17.702 21.7276 17.4107 21.1374 17.9482L19.475 19.4596L17.3307 21.4118L15.6615 22.9233C15.5219 23.0474 15.4109 23.1978 15.3355 23.365C15.2602 23.5321 15.2221 23.7124 15.2237 23.8943C15.2253 24.0762 15.2665 24.2558 15.3448 24.4217C15.4231 24.5877 15.5367 24.7363 15.6784 24.8583L17.3713 26.3407L19.5562 28.2563L21.2491 29.7398C21.8495 30.2666 22.3348 29.9688 22.3258 29.0787L22.3111 27.621L24.3787 27.6092C26.2555 27.5995 26.9665 26.3374 27.3774 25.6795Z" fill="#9DBE39"/>
</g>
<defs>
<clipPath id="clip0">
<rect width="32" height="30" fill="white"/>
</clipPath>
</defs>
</svg>
