<svg width="50" height="50" viewBox="0 0 50 50" fill="none" xmlns="http://www.w3.org/2000/svg">
<rect width="50" height="50" rx="25" fill="#9DBE39"/>
<g clip-path="url(#clip0)">
<path d="M32.649 29.0113C32.6316 28.9195 32.6007 28.831 32.5573 28.7486C32.5087 28.6554 32.3657 28.3955 32.1768 28.0498L32.649 29.0113Z" fill="#FDFFF9"/>
<path d="M25.4783 19.7087L27.2738 20.2369L29.5946 20.9207L31.391 21.449C31.5397 21.4948 31.6961 21.5089 31.8504 21.4902C32.0047 21.4716 32.1536 21.4208 32.2876 21.3409C32.4216 21.261 32.5379 21.1538 32.6292 21.026C32.7204 20.8982 32.7846 20.7526 32.8178 20.5984L33.2314 18.7518C33.3772 18.0997 33.6174 17.0227 33.7641 16.3658L34.1777 14.5202C34.3253 13.868 33.9026 13.6482 33.2497 14.0395L32.1228 14.7121C31.7101 13.9994 31.2975 13.2904 31.1379 13.0351C30.7711 12.4463 30.0779 11.9954 28.7079 12.0038L23.2812 12.0355L25.5499 16.0612C25.6069 16.1206 25.6543 16.1888 25.6902 16.2634C25.7974 16.4851 26.2092 17.2463 26.6181 17.999L25.5178 18.6559C24.8557 19.0425 24.8401 19.5205 25.4783 19.7087Z" fill="#FDFFF9"/>
<path d="M19.1978 13.3732C18.6155 14.2685 17.1401 16.6498 17.1401 16.6498C17.0611 16.776 17.0081 16.917 16.9842 17.0646C16.9603 17.2121 16.9661 17.363 17.0011 17.5082C17.0361 17.6534 17.0997 17.7899 17.1881 17.9094C17.2764 18.029 17.3877 18.1291 17.5151 18.2038L21.1344 20.3467C21.3952 20.4997 21.7044 20.5436 21.9965 20.4692C22.2886 20.3948 22.5408 20.2078 22.6997 19.9479L24.9298 16.2371C25.1242 15.911 25.3589 15.8644 25.5478 16.0554L23.282 12.0278L21.9744 12.0353C21.0317 12.0446 19.957 12.2104 19.1978 13.3732Z" fill="#FDFFF9"/>
<path d="M12.7971 28.4271C13.2051 29.2274 14.3339 31.2891 15.161 32.7994L17.7286 28.5547C18.0302 28.032 18.5914 27.064 19.0582 26.2619L20.3713 27.0007C21.0379 27.3734 21.4506 27.1488 21.2883 26.4967L20.8298 24.6613C20.6675 24.0091 20.4006 22.9424 20.2374 22.2902L19.7789 20.4548C19.7419 20.3014 19.674 20.1575 19.5796 20.0321C19.4851 19.9067 19.3662 19.8025 19.2302 19.726C19.0942 19.6495 18.9442 19.6024 18.7894 19.5877C18.6347 19.573 18.4786 19.591 18.331 19.6405L16.5484 20.2144L14.2459 20.9598L12.4642 21.5337C11.8306 21.7377 11.8572 22.2119 12.5238 22.5865L13.4921 23.1315C12.9887 24.0967 12.411 25.2398 12.2634 25.5641C11.9984 26.1594 12.1634 27.1824 12.7971 28.4271Z" fill="#FDFFF9"/>
<path d="M17.7248 28.5549L15.1572 32.7996C15.6157 33.6381 15.9825 34.3117 16.0825 34.498C16.3575 35.0188 16.7408 36.039 19.1892 36.025L22.748 36.0036C23.0473 36.0014 23.3336 35.879 23.5444 35.663C23.7552 35.4471 23.8733 35.1553 23.8731 34.8511L23.8493 30.5999C23.8464 30.2956 23.7249 30.0048 23.5114 29.7913C23.298 29.5777 23.0099 29.4588 22.7104 29.4605L17.8504 29.4885C17.4121 29.4885 17.3561 29.1969 17.5102 28.9229L17.7248 28.5549Z" fill="#FDFFF9"/>
<path d="M32.6486 29.0112L34.7687 33.2969C35.5105 31.9124 36.7704 29.5087 37.2858 28.4699C37.9744 27.0799 38.1698 25.8743 37.8516 25.2407C37.5334 24.6072 35.9635 21.5253 35.9635 21.5253C35.8985 21.3935 35.807 21.277 35.695 21.1833C35.583 21.0897 35.4529 21.0209 35.3131 20.9815C35.1733 20.9421 35.0269 20.9329 34.8834 20.9545C34.7398 20.9761 34.6024 21.028 34.4798 21.1069L30.8844 23.3429C30.6282 23.5067 30.443 23.7633 30.3662 24.0607C30.2894 24.3581 30.3268 24.6741 30.4708 24.9445C30.4708 24.9445 31.5638 26.9327 32.1718 28.0451C32.3607 28.3907 32.5037 28.6525 32.5523 28.7438C32.5977 28.8274 32.6302 28.9176 32.6486 29.0112Z" fill="#FDFFF9"/>
<path d="M34.244 34.2557C34.3275 34.1122 34.5191 33.761 34.7686 33.2951L32.6485 29.0095C32.6925 29.2591 32.5687 29.4287 32.2634 29.4296L30.0709 29.4427L30.0589 28.1141C30.0516 27.3418 29.6536 27.0893 29.1741 27.5551L27.8234 28.865L26.0811 30.557L24.7249 31.8669C24.6115 31.9745 24.5213 32.1049 24.4601 32.2497C24.3988 32.3946 24.3679 32.5508 24.3692 32.7084C24.3705 32.8661 24.404 33.0218 24.4676 33.1656C24.5312 33.3094 24.6235 33.4382 24.7386 33.5439L26.1141 34.8286L27.8894 36.4889L29.2648 37.7746C29.7527 38.2311 30.147 37.973 30.1396 37.2016L30.1277 35.9383L31.8076 35.928C33.3326 35.9196 33.9103 34.8258 34.244 34.2557Z" fill="#FDFFF9"/>
</g>
<defs>
<clipPath id="clip0">
<rect width="26" height="26" fill="white" transform="translate(12 12)"/>
</clipPath>
</defs>
</svg>
