<svg width="50" height="50" viewBox="0 0 50 50" fill="none" xmlns="http://www.w3.org/2000/svg">
<rect width="50" height="50" rx="25" fill="#9DBE39"/>
<path d="M34.2656 20.3749L26.6484 19.789L27.7715 15.4238C28.0645 14.1249 27.7334 13.3793 26.6743 13.0507L24.9805 12.5698C24.9404 12.5591 24.898 12.5615 24.8593 12.5766C24.8207 12.5917 24.7879 12.6187 24.7656 12.6537L18.4668 22.5336C18.4319 22.5904 18.383 22.6374 18.3248 22.6699C18.2666 22.7025 18.201 22.7196 18.1343 22.7197H12.7812V32.8749H18.5239C18.7758 32.8749 19.0261 32.9154 19.2651 32.995L22.9907 34.2367C23.389 34.3696 23.8062 34.4374 24.2261 34.4374H32.9141C33.8418 34.4374 34.4521 33.7773 34.6343 32.8671L36.2188 25.9208V22.3281C36.2188 21.2509 35.3398 20.4726 34.2656 20.3749Z" fill="white"/>
</svg>
