<svg width="93" height="74" viewBox="0 0 93 74" fill="none" xmlns="http://www.w3.org/2000/svg">
<path fill-rule="evenodd" clip-rule="evenodd" d="M54.3966 15.2673C30.1792 7.59862 14.3226 7.23814 0.176758 15.7867C10.1273 12.0176 20.8336 10.8155 30.9196 12.9825C41.7754 15.3153 52.0518 21.2241 63.9242 22.3687C72.6567 23.2104 82.1414 19.9502 88.5821 12.7577C91.1026 9.94344 91.2017 9.59525 92.7615 7.16213C90.5683 7.61506 90.5561 7.75136 89.0328 7.88063C67.3069 9.72702 51.977 -5.32594 48.334 2.27645C46.6516 5.78743 48.3371 8.27215 52.7245 10.3205C55.4808 11.6075 65.2734 13.3905 65.3547 13.2916C61.7045 12.2157 57.7737 10.5312 57.0342 8.73014C56.3434 7.04713 57.4947 5.62801 59.7669 6.08734C67.1136 7.57295 74.6045 11.3076 85.2117 10.5935C78.0365 19.702 62.5848 17.8601 54.3966 15.2673Z" fill="#9DBE39"/>
<path fill-rule="evenodd" clip-rule="evenodd" d="M3.21797 71.8746V73.7751H2.71582V69.8738H3.21797V71.4344H5.32711V69.8738H5.82925V73.7751H5.32711V71.8746H3.21797Z" fill="#68727E"/>
<path fill-rule="evenodd" clip-rule="evenodd" d="M8.67359 70.2445C7.76174 70.2445 7.46067 70.492 7.46067 71.8206C7.46067 73.0875 7.76174 73.4039 8.67359 73.4039C9.59295 73.4039 9.89432 73.0875 9.89432 71.8206C9.89432 70.492 9.59295 70.2445 8.67359 70.2445ZM8.67359 73.8831C7.46068 73.8831 6.9043 73.4039 6.9043 71.8049C6.9043 70.2138 7.46822 69.7656 8.67359 69.7656C9.88647 69.7656 10.4506 70.2138 10.4506 71.8049C10.4506 73.4039 9.89432 73.8831 8.67359 73.8831Z" fill="#68727E"/>
<path fill-rule="evenodd" clip-rule="evenodd" d="M14.1745 72.6543C14.1745 72.1832 13.9891 71.8973 13.5486 71.8973H12.0268V73.3112H13.5718C14.0276 73.3112 14.1745 73.1022 14.1745 72.6543ZM14.0818 70.87C14.0818 70.4759 13.9584 70.3368 13.5101 70.3368H12.0268V71.4572H13.5101C13.9584 71.4572 14.0818 71.2098 14.0818 70.87ZM14.7308 72.67C14.7308 73.4038 14.3443 73.7747 13.6567 73.7747H11.5244V69.8733H13.5871C14.4448 69.8733 14.6149 70.3137 14.6149 70.8005C14.6149 71.264 14.5144 71.6117 13.8425 71.6656C14.5375 71.6887 14.7308 72.1447 14.7308 72.67Z" fill="#68727E"/>
<path fill-rule="evenodd" clip-rule="evenodd" d="M17.4519 70.2445C16.5401 70.2445 16.239 70.492 16.239 71.8206C16.239 73.0875 16.5401 73.4039 17.4519 73.4039C18.3712 73.4039 18.6726 73.0875 18.6726 71.8206C18.6726 70.492 18.3712 70.2445 17.4519 70.2445ZM17.4519 73.8831C16.239 73.8831 15.6826 73.4039 15.6826 71.8049C15.6826 70.2138 16.2465 69.7656 17.4519 69.7656C18.6648 69.7656 19.2289 70.2138 19.2289 71.8049C19.2289 73.4039 18.6726 73.8831 17.4519 73.8831Z" fill="#68727E"/>
<path fill-rule="evenodd" clip-rule="evenodd" d="M20.7663 71.4187H22.976C22.9296 70.4456 22.6746 70.237 21.956 70.237C21.1372 70.237 20.828 70.4995 20.7663 71.4187ZM23.5476 71.8745H20.7587C20.7663 73.1414 21.1679 73.412 22.0719 73.412C22.3501 73.412 22.86 73.3269 23.1924 73.2034L23.3083 73.6667C22.9064 73.7904 22.3501 73.8831 22.0256 73.8831C20.8436 73.8831 20.2021 73.4039 20.2021 71.8049C20.2021 70.2752 20.7972 69.7656 21.956 69.7656C23.0608 69.7656 23.5476 70.2138 23.5476 71.8745Z" fill="#68727E"/>
<path fill-rule="evenodd" clip-rule="evenodd" d="M29.2202 73.7749C28.355 72.2376 27.7598 71.952 27.2348 71.8669V73.7749H26.7324V69.8735H27.2348V71.751C27.5744 71.4653 28.2698 70.7546 29.0658 69.8735H29.7148C28.8029 70.8855 28.2237 71.4884 27.9763 71.6507C28.4014 71.8129 28.7876 71.9827 29.8383 73.7749H29.2202Z" fill="#68727E"/>
<path fill-rule="evenodd" clip-rule="evenodd" d="M32.9371 73.2498V71.8281C32.6514 71.7586 32.2728 71.7278 31.8865 71.7278C31.1062 71.7278 30.8434 71.8128 30.8434 72.5313C30.8434 73.3114 31.0674 73.4273 31.8865 73.4273C32.2649 73.4273 32.6358 73.3578 32.9371 73.2498ZM33.4393 73.574C33.0146 73.7674 32.3576 73.8833 31.8633 73.8833C30.7432 73.8833 30.2793 73.5817 30.2793 72.5698C30.2793 71.4576 30.9517 71.2796 31.8248 71.2796C32.2339 71.2796 32.5355 71.3185 32.9371 71.4034C32.9371 70.4456 32.69 70.2445 31.786 70.2445C31.4151 70.2445 30.9747 70.2987 30.6658 70.4299L30.5189 69.9588C30.8202 69.8737 31.2913 69.7656 31.817 69.7656C32.9525 69.7656 33.4393 70.0979 33.4393 71.2796V73.574Z" fill="#68727E"/>
<path fill-rule="evenodd" clip-rule="evenodd" d="M34.3896 70.685V69.8738H34.8918V70.5845C34.8918 71.7741 35.139 72.0137 35.9195 72.0137C36.4756 72.0137 37.0012 71.8205 37.0012 71.4652V69.8738H37.5031V73.7748H37.0012V72.1759C36.8079 72.3306 36.3597 72.4928 35.8654 72.4928C34.8069 72.4928 34.3896 72.1064 34.3896 70.685Z" fill="#68727E"/>
<path fill-rule="evenodd" clip-rule="evenodd" d="M39.1423 71.4187H41.352C41.3056 70.4456 41.0506 70.237 40.3321 70.237C39.5132 70.237 39.2043 70.4995 39.1423 71.4187ZM41.9237 71.8745H39.1348C39.1423 73.1414 39.5439 73.412 40.448 73.412C40.7261 73.412 41.2361 73.3269 41.5684 73.2034L41.6843 73.6667C41.2824 73.7904 40.7261 73.8831 40.4016 73.8831C39.2197 73.8831 38.5781 73.4039 38.5781 71.8049C38.5781 70.2752 39.1733 69.7656 40.3321 69.7656C41.4369 69.7656 41.9237 70.2138 41.9237 71.8745Z" fill="#68727E"/>
<path fill-rule="evenodd" clip-rule="evenodd" d="M45.7947 73.6667C45.5012 73.7982 45.0144 73.8831 44.682 73.8831C43.4691 73.8831 42.7969 73.4042 42.7969 71.8049C42.7969 70.2138 43.477 69.7656 44.682 69.7656C45.0065 69.7656 45.5165 69.8506 45.7947 69.9588L45.6324 70.43C45.3542 70.2984 45.0065 70.2445 44.682 70.2445C43.7704 70.2445 43.3533 70.492 43.3533 71.8206C43.3533 73.0876 43.7704 73.4042 44.682 73.4042C45.0144 73.4042 45.3542 73.3269 45.6324 73.2035L45.7947 73.6667Z" fill="#68727E"/>
<path fill-rule="evenodd" clip-rule="evenodd" d="M48.0203 73.7749H47.5178V70.3371H45.9883V69.8735H49.5502V70.3371H48.0203V73.7749Z" fill="#68727E"/>
<path fill-rule="evenodd" clip-rule="evenodd" d="M52.8657 72.6543C52.8657 72.1832 52.6805 71.8973 52.2401 71.8973H50.718V73.3112H52.2633C52.719 73.3112 52.8657 73.1022 52.8657 72.6543ZM52.7732 70.87C52.7732 70.4759 52.6495 70.3368 52.2012 70.3368H50.718V71.4572H52.2012C52.6495 71.4572 52.7732 71.2098 52.7732 70.87ZM53.422 72.67C53.422 73.4038 53.0357 73.7747 52.3479 73.7747H50.2158V69.8733H52.2786C53.1362 69.8733 53.306 70.3137 53.306 70.8005C53.306 71.264 53.2058 71.6117 52.5336 71.6656C53.229 71.6887 53.422 72.1447 53.422 72.67Z" fill="#68727E"/>
<path fill-rule="evenodd" clip-rule="evenodd" d="M56.1423 70.2445C55.2304 70.2445 54.9291 70.492 54.9291 71.8206C54.9291 73.0875 55.2304 73.4039 56.1423 73.4039C57.0617 73.4039 57.363 73.0875 57.363 71.8206C57.363 70.492 57.0617 70.2445 56.1423 70.2445ZM56.1423 73.8831C54.9291 73.8831 54.373 73.4039 54.373 71.8049C54.373 70.2138 54.9372 69.7656 56.1423 69.7656C57.3552 69.7656 57.919 70.2138 57.919 71.8049C57.919 73.4039 57.363 73.8831 56.1423 73.8831Z" fill="#68727E"/>
<path fill-rule="evenodd" clip-rule="evenodd" d="M61.7053 70.3373V73.7752H61.2031V69.8738H64.3169V73.7752H63.8147V70.3373H61.7053Z" fill="#68727E"/>
<path fill-rule="evenodd" clip-rule="evenodd" d="M65.9557 71.4187H68.1651C68.1188 70.4456 67.864 70.237 67.1454 70.237C66.3263 70.237 66.0175 70.4995 65.9557 71.4187ZM68.7371 71.8745H65.9479C65.9557 73.1414 66.3573 73.412 67.2613 73.412C67.5395 73.412 68.0495 73.3269 68.3818 73.2034L68.4977 73.6667C68.0958 73.7904 67.5395 73.8831 67.215 73.8831C66.0329 73.8831 65.3916 73.4039 65.3916 71.8049C65.3916 70.2752 65.9865 69.7656 67.1454 69.7656C68.2503 69.7656 68.7371 70.2138 68.7371 71.8745Z" fill="#68727E"/>
<path fill-rule="evenodd" clip-rule="evenodd" d="M69.4873 70.685V69.8738H69.9898V70.5845C69.9898 71.7741 70.2369 72.0137 71.0172 72.0137C71.5735 72.0137 72.0989 71.8205 72.0989 71.4652V69.8738H72.601V73.7748H72.0989V72.1759C71.9056 72.3306 71.4576 72.4928 70.963 72.4928C69.9046 72.4928 69.4873 72.1064 69.4873 70.685Z" fill="#68727E"/>
<path fill-rule="evenodd" clip-rule="evenodd" d="M76.2868 73.2498V71.8281C76.0009 71.7586 75.6221 71.7278 75.2359 71.7278C74.4556 71.7278 74.193 71.8128 74.193 72.5313C74.193 73.3114 74.4171 73.4273 75.2359 73.4273C75.6146 73.4273 75.9855 73.3578 76.2868 73.2498ZM76.789 73.574C76.3639 73.7674 75.7073 73.8833 75.2127 73.8833C74.0925 73.8833 73.6289 73.5817 73.6289 72.5698C73.6289 71.4576 74.3012 71.2796 75.1741 71.2796C75.5836 71.2796 75.8852 71.3185 76.2868 71.4034C76.2868 70.4456 76.0394 70.2445 75.1357 70.2445C74.7648 70.2445 74.3243 70.2987 74.0152 70.4299L73.8686 69.9588C74.1699 69.8737 74.641 69.7656 75.1664 69.7656C76.3022 69.7656 76.789 70.0979 76.789 71.2796V73.574Z" fill="#68727E"/>
<path fill-rule="evenodd" clip-rule="evenodd" d="M79.4861 73.7749H78.9837V70.3371H77.4541V69.8735H81.0161V70.3371H79.4861V73.7749Z" fill="#68727E"/>
<path fill-rule="evenodd" clip-rule="evenodd" d="M84.2922 70.7082C83.6895 71.7587 82.9092 72.8402 82.1828 73.7748H81.6807V69.8738H82.1828V73.0488C82.9168 72.0907 83.62 71.0017 84.2922 69.8738H84.7943V73.7748H84.2922V70.7082Z" fill="#68727E"/>
<path fill-rule="evenodd" clip-rule="evenodd" d="M22.7879 34.3784C22.7633 33.6219 22.4455 33.0595 21.835 32.6926C21.4926 32.4728 21.0222 32.3326 20.4241 32.2715C19.8249 32.2108 19.098 32.1793 18.2435 32.1793H12.2694C11.4136 32.1793 10.6867 32.2108 10.0885 32.2715C9.48938 32.3326 9.01914 32.4728 8.67752 32.6926C8.06646 33.0595 7.74835 33.6219 7.72462 34.3784H22.7879ZM7.68804 38.0064C7.71155 38.2752 7.77994 38.538 7.88945 38.7944C7.99971 39.051 8.16454 39.2649 8.38431 39.4355C8.72589 39.7044 9.20929 39.8881 9.83183 39.9856C10.4546 40.0836 11.3287 40.1319 12.4523 40.1319H28.6522V44.493H11.3899C9.48327 44.493 7.88325 44.3036 6.58882 43.9247C5.29271 43.546 4.2303 42.9531 3.40003 42.1476C1.98208 40.7798 1.27441 38.7762 1.27441 36.1376C1.27441 34.7453 1.49418 33.5789 1.93379 32.6376C2.3734 31.6979 2.94727 30.9098 3.65669 30.2741C4.58499 29.4193 5.81301 28.808 7.33955 28.4419C8.8669 28.0749 10.5956 27.8921 12.526 27.8921H17.5103C19.5376 27.8921 21.2973 28.0515 22.7879 28.3685C24.2783 28.6863 25.5371 29.309 26.5626 30.2372C27.2957 30.8976 27.8763 31.7398 28.3036 32.7663C28.7312 33.7917 28.9457 35.0008 28.9457 36.3942C28.9457 36.6632 28.9326 36.9503 28.9088 37.2552C28.8845 37.5606 28.8476 37.8112 28.7985 38.0064H7.68804Z" fill="#68727E"/>
<path fill-rule="evenodd" clip-rule="evenodd" d="M57.205 44.4929H42.3619C40.3826 44.4929 38.7027 44.3036 37.3223 43.9246C35.9421 43.546 34.799 42.9174 33.8953 42.0375C33.1867 41.3291 32.6368 40.4805 32.2461 39.4908C31.8554 38.5014 31.6602 37.3839 31.6602 36.1379C31.6602 34.9162 31.8615 33.8171 32.2645 32.8389C32.6675 31.8627 33.2235 31.0193 33.9321 30.3109C34.8358 29.4315 35.9781 28.8083 37.3592 28.4421C38.7393 28.0753 40.4192 27.8921 42.3984 27.8921H57.205V32.3993H43.3882C42.2881 32.3993 41.3782 32.4608 40.6575 32.5834C39.9366 32.7051 39.3683 32.9615 38.953 33.3521C38.2936 33.988 37.9635 34.9405 37.9635 36.2105C37.9635 37.5056 38.2936 38.4593 38.953 39.0697C39.3683 39.4604 39.9366 39.7106 40.6575 39.8203C41.3782 39.9303 42.2881 39.9856 43.3882 39.9856H57.205V44.4929Z" fill="#68727E"/>
<path fill-rule="evenodd" clip-rule="evenodd" d="M80.1298 35.8442C80.1298 36.699 80.0625 37.3767 79.9285 37.8777C79.7936 38.3786 79.5797 38.7763 79.2864 39.0695C78.9203 39.4356 78.4072 39.6735 77.7478 39.784C77.0881 39.8933 76.2202 39.9488 75.1455 39.9488H66.5685V36.5404C66.5685 35.6859 66.6365 35.0078 66.7702 34.5069C66.9048 34.006 67.1187 33.6086 67.4123 33.3151C67.7781 32.949 68.2914 32.711 68.9511 32.6005C69.6105 32.4913 70.4782 32.436 71.5529 32.436H80.1298V35.8442ZM70.3436 27.8918C68.0962 27.8918 66.3306 28.0697 65.0474 28.4236C63.7652 28.7782 62.7695 29.321 62.061 30.0541C61.4259 30.6899 60.9863 31.4595 60.7411 32.3623C60.4976 33.267 60.375 34.4764 60.375 35.9906V44.4927H76.3551C78.6024 44.4927 80.3683 44.3148 81.651 43.9613C82.9332 43.6064 83.9291 43.0635 84.6376 42.3305C85.2727 41.6949 85.7123 40.9251 85.9575 40.022C86.2008 39.1175 86.3236 37.9081 86.3236 36.394V27.8918H70.3436Z" fill="#68727E"/>
<path fill-rule="evenodd" clip-rule="evenodd" d="M15.6896 54.0418C15.6896 54.6389 15.5642 55.0723 15.3201 55.3267C15.1609 55.4856 14.9397 55.6009 14.6626 55.6691C14.3608 55.7433 13.9279 55.7804 13.3757 55.7804H6.17731V52.32H13.3757C13.9279 52.32 14.3608 52.3575 14.6629 52.4315C14.9388 52.4993 15.1598 52.6143 15.317 52.7704C15.5642 53.0277 15.6896 53.4552 15.6896 54.0418ZM18.0846 50.6714C17.6305 50.2537 17.0416 49.9344 16.335 49.7231C15.6404 49.5145 14.747 49.4087 13.6802 49.4087H2.60645V62.1565H6.17731V58.6916H13.6802C14.7484 58.6916 15.6421 58.5833 16.3367 58.368C17.0443 58.1499 17.6325 57.8284 18.0841 57.4121C18.5064 57.0262 18.8211 56.5378 19.0194 55.9608C19.213 55.3982 19.3112 54.7523 19.3112 54.0418C19.3112 53.3304 19.213 52.6845 19.0194 52.1218C18.8211 51.5457 18.5063 51.0574 18.0846 50.6714Z" fill="#68727E"/>
<path fill-rule="evenodd" clip-rule="evenodd" d="M25.3788 52.32H32.6451C33.1975 52.32 33.6301 52.3575 33.932 52.4315C34.2079 52.4993 34.4288 52.6143 34.5861 52.7704C34.8332 53.0277 34.9586 53.4552 34.9586 54.0418C34.9586 54.6389 34.8332 55.0723 34.5892 55.3267C34.4302 55.4856 34.2088 55.6009 33.9317 55.6691C33.6301 55.7433 33.1975 55.7804 32.6451 55.7804H25.3788V52.32ZM35.835 58.6645C35.7071 58.5727 35.5714 58.4866 35.4284 58.4065C36.2271 58.1984 36.8731 57.8648 37.3531 57.4121C37.776 57.0262 38.0907 56.5378 38.2882 55.9614C38.482 55.3982 38.5803 54.7528 38.5803 54.0418C38.5803 53.3298 38.482 52.6845 38.2885 52.1221C38.0907 51.5457 37.776 51.0574 37.354 50.6714C36.8996 50.2539 36.3112 49.9344 35.6043 49.7231C34.9095 49.5145 34.0161 49.4087 32.9492 49.4087H21.8076V62.1565H25.3788V58.6916H29.6194C29.9793 58.6916 30.2969 58.7081 30.5622 58.7401C30.8167 58.772 31.0585 58.832 31.2811 58.92C31.5009 59.0066 31.7271 59.1359 31.9528 59.3029C32.1868 59.478 32.463 59.7063 32.773 59.9825L35.1728 62.1565H39.7505L36.8969 59.5442C36.5002 59.1817 36.1433 58.886 35.835 58.6645Z" fill="#68727E"/>
<path fill-rule="evenodd" clip-rule="evenodd" d="M41.9395 62.1565H45.5106V49.4089H41.9395V62.1565Z" fill="#68727E"/>
<path fill-rule="evenodd" clip-rule="evenodd" d="M63.3225 57.8224L52.1466 49.4087H48.9209V62.1565H52.3731V53.6744L63.6844 62.1565H66.7747V49.4087H63.3225V57.8224Z" fill="#68727E"/>
<path fill-rule="evenodd" clip-rule="evenodd" d="M69.1709 49.4087V52.3201H75.7295V62.1562H79.3006V52.3201H85.859V49.4087H69.1709Z" fill="#68727E"/>
</svg>
