<svg width="36" height="36" viewBox="0 0 36 36" fill="none" xmlns="http://www.w3.org/2000/svg">
<path d="M29.468 23.7269C29.442 23.6951 29.4093 23.6695 29.3722 23.6519C29.3351 23.6344 29.2946 23.6252 29.2535 23.6252C29.2125 23.6252 29.1719 23.6344 29.1349 23.6519C29.0978 23.6695 29.065 23.6951 29.0391 23.7269C28.3008 24.5988 25.875 26.9999 25.875 29.1874C25.875 31.0858 27.3867 32.6249 29.25 32.6249C31.1133 32.6249 32.625 31.0781 32.625 29.1874C32.625 26.9999 30.2133 24.5988 29.468 23.7269Z" stroke="#9DBE39" stroke-width="2" stroke-miterlimit="10"/>
<path d="M27.2106 20.2429L10.941 4.10338C10.7058 3.8674 10.4264 3.68017 10.1187 3.55241C9.811 3.42465 9.48113 3.35889 9.14798 3.35889C8.81484 3.35889 8.48496 3.42465 8.17729 3.55241C7.86961 3.68017 7.59018 3.8674 7.35501 4.10338L6.9929 4.46549C6.75693 4.70065 6.56969 4.98009 6.44193 5.28776C6.31417 5.59544 6.24841 5.92531 6.24841 6.25846C6.24841 6.59161 6.31417 6.92148 6.44193 7.22916C6.56969 7.53683 6.75693 7.81627 6.9929 8.05143L10.7117 11.7703L14.7195 7.76244L3.96033 18.5062C3.77461 18.6909 3.62761 18.9108 3.52795 19.153C3.42829 19.3953 3.37797 19.655 3.37994 19.9169C3.3819 20.1788 3.43611 20.4377 3.53939 20.6784C3.64268 20.9191 3.79295 21.1368 3.98142 21.3187L13.2064 30.1781C13.5748 30.5307 14.0654 30.727 14.5754 30.7257C15.0854 30.7244 15.575 30.5256 15.9416 30.171C18.5994 27.5976 24.2595 22.1203 24.8502 21.5296C25.258 21.1218 26.1299 21.0304 26.8681 21.0304H26.8892C26.9805 21.0305 27.0698 21.0034 27.1456 20.9525C27.2214 20.9016 27.2803 20.8293 27.3148 20.7447C27.3492 20.6602 27.3578 20.5673 27.3392 20.4779C27.3206 20.3885 27.2758 20.3067 27.2106 20.2429V20.2429Z" stroke="#9DBE39" stroke-width="2" stroke-miterlimit="10"/>
</svg>
