<svg width="50" height="50" viewBox="0 0 50 50" fill="none" xmlns="http://www.w3.org/2000/svg">
<rect width="50" height="50" rx="25" fill="#9DBE39"/>
<g clip-path="url(#clip0)">
<path d="M36.4688 16.8546C36.5842 16.7398 36.6549 16.5875 36.6682 16.425C36.6816 16.2625 36.6367 16.1006 36.5417 15.9684C35.6914 14.822 34.6807 13.8048 33.5407 12.9484C33.4089 12.8525 33.2473 12.8071 33.0851 12.8203C32.9228 12.8335 32.7706 12.9043 32.6558 13.0202L31.5448 14.1362C31.4405 14.24 31.3049 14.3061 31.1591 14.3241C31.0134 14.3421 30.8658 14.3111 30.7396 14.2358C29.7044 13.6409 28.5867 13.204 27.4234 12.9396V10.8391C27.4245 10.6773 27.3679 10.5206 27.2639 10.397C27.16 10.2735 27.0154 10.1914 26.8564 10.1655C25.4438 9.94775 24.0064 9.94775 22.5939 10.1655C22.4348 10.1914 22.2903 10.2735 22.1863 10.397C22.0823 10.5206 22.0258 10.6773 22.0269 10.8391V12.9396C20.8633 13.2047 19.7456 13.6425 18.7107 14.2385C18.5844 14.3138 18.4368 14.3448 18.2911 14.3268C18.1453 14.3088 18.0097 14.2427 17.9054 14.1389L16.7937 13.0229C16.679 12.9071 16.5269 12.8362 16.3648 12.8231C16.2027 12.8099 16.0412 12.8553 15.9095 12.9511C14.7696 13.8075 13.7588 14.8247 12.9085 15.9711C12.8134 16.1032 12.7684 16.2652 12.7818 16.4277C12.7952 16.5903 12.866 16.7426 12.9814 16.8573L14.0897 17.9699C14.1929 18.0748 14.2586 18.211 14.2764 18.3572C14.2942 18.5035 14.2632 18.6516 14.1883 18.7783C13.7678 19.5163 13.4257 20.2967 13.1677 21.1065C13.0994 21.3287 12.9773 21.5305 12.8125 21.6939C12.6476 21.8573 12.445 21.9772 12.2227 22.0429H10.8377C10.6768 22.0417 10.5207 22.0983 10.3977 22.2024C10.2747 22.3065 10.1928 22.4513 10.1667 22.6107C9.94443 24.0497 9.94443 25.5144 10.1667 26.9533C10.1926 27.1129 10.2745 27.2578 10.3975 27.3621C10.5206 27.4663 10.6767 27.523 10.8377 27.5218H12.2227C12.4448 27.5873 12.6473 27.7068 12.8121 27.8699C12.977 28.0329 13.0992 28.2343 13.1677 28.4562C13.4263 29.2673 13.7693 30.0488 14.191 30.7878C14.2659 30.9145 14.2969 31.0626 14.2791 31.2088C14.2613 31.3551 14.1956 31.4913 14.0924 31.5961L12.9841 32.7081C12.8686 32.8229 12.7978 32.9754 12.7844 33.138C12.771 33.3007 12.816 33.4627 12.9112 33.595C13.7617 34.7411 14.7724 35.758 15.9122 36.6143C16.0438 36.7104 16.2053 36.7559 16.3675 36.7428C16.5297 36.7296 16.6819 36.6585 16.7964 36.5425L17.9081 35.4272C18.0124 35.3234 18.148 35.2573 18.2938 35.2393C18.4395 35.2212 18.5871 35.2523 18.7134 35.3276C19.2824 35.6552 19.877 35.936 20.4913 36.1671C20.1009 34.9128 19.9029 33.6061 19.904 32.292C19.904 31.9207 19.9196 31.5535 19.9506 31.1903C18.7858 30.3166 17.8812 29.1397 17.3349 27.787C16.7885 26.4343 16.6212 24.9573 16.8511 23.516C17.3654 20.1463 20.1086 17.3926 23.4659 16.8756C24.7974 16.6621 26.1611 16.7913 27.4293 17.2509C28.6975 17.7106 29.8288 18.4858 30.7173 19.504C32.3805 19.232 34.0805 19.2866 35.723 19.6646C35.5812 19.361 35.428 19.0647 35.2633 18.7756C35.1883 18.6489 35.1573 18.5008 35.1752 18.3545C35.193 18.2083 35.2587 18.072 35.3619 17.9672L36.4688 16.8546Z" fill="white"/>
<path d="M40.8902 28.8334C40.873 28.7285 40.8191 28.6332 40.7382 28.5647C40.6573 28.4961 40.5547 28.4588 40.4488 28.4594H39.5369C39.3907 28.416 39.2575 28.337 39.1492 28.2294C39.0408 28.1219 38.9607 27.989 38.9159 27.8428C38.745 27.3087 38.5187 26.7941 38.2409 26.3074C38.1919 26.2236 38.1719 26.1259 38.1841 26.0295C38.1963 25.9331 38.24 25.8436 38.3084 25.7748L39.0381 25.0423C39.1145 24.9668 39.1615 24.8664 39.1705 24.7591C39.1796 24.6518 39.1501 24.5449 39.0873 24.4576C38.5273 23.7027 37.8616 23.0329 37.111 22.4689C37.0243 22.4055 36.9178 22.3755 36.811 22.3842C36.7041 22.3929 36.6039 22.4397 36.5285 22.5163L35.7934 23.2515C35.7249 23.3201 35.6357 23.364 35.5397 23.3762C35.4437 23.3885 35.3463 23.3684 35.2629 23.3192C34.5817 22.9261 33.846 22.637 33.08 22.4614V21.0791C33.0807 20.9726 33.0435 20.8694 32.9751 20.788C32.9066 20.7066 32.8114 20.6524 32.7067 20.6353C31.7762 20.4917 30.8293 20.4917 29.8988 20.6353C29.7941 20.6524 29.6989 20.7066 29.6304 20.788C29.562 20.8694 29.5248 20.9726 29.5255 21.0791V22.4614C28.7596 22.6364 28.0239 22.9248 27.3426 23.3172C27.2591 23.3665 27.1616 23.3865 27.0655 23.3743C26.9694 23.362 26.88 23.3181 26.8114 23.2494L26.0797 22.5149C26.0043 22.4384 25.9041 22.3915 25.7972 22.3828C25.6903 22.3741 25.5839 22.4042 25.4972 22.4675C24.7455 23.0318 24.079 23.702 23.5181 24.4576C23.4556 24.5447 23.426 24.6514 23.4348 24.7585C23.4436 24.8655 23.4901 24.9659 23.5661 25.0416L24.2964 25.7741C24.3648 25.8429 24.4085 25.9325 24.4207 26.0288C24.4329 26.1252 24.4129 26.2229 24.3639 26.3067C24.0861 26.7934 23.8598 27.308 23.6889 27.8421C23.6439 27.9882 23.5637 28.1209 23.4554 28.2285C23.3471 28.3361 23.214 28.4151 23.0679 28.4587H22.1547C22.0487 28.4579 21.9459 28.4952 21.8648 28.5638C21.7838 28.6323 21.7298 28.7277 21.7126 28.8327C21.5659 29.7806 21.5659 30.7456 21.7126 31.6935C21.7298 31.7985 21.7838 31.8939 21.8648 31.9624C21.9459 32.031 22.0487 32.0683 22.1547 32.0675H23.0666C23.2126 32.1111 23.3457 32.1901 23.454 32.2977C23.5624 32.4053 23.6426 32.538 23.6876 32.6841C23.8585 33.2182 24.0847 33.7328 24.3626 34.2195C24.4116 34.3033 24.4316 34.401 24.4193 34.4974C24.4071 34.5937 24.3634 34.6833 24.2951 34.7521L23.5647 35.4846C23.4888 35.5603 23.4422 35.6607 23.4335 35.7677C23.4247 35.8748 23.4542 35.9815 23.5168 36.0686C24.0771 36.8235 24.743 37.4933 25.4938 38.0573C25.5805 38.1207 25.687 38.1507 25.7938 38.142C25.9007 38.1333 26.0009 38.0865 26.0763 38.0099L26.8087 37.2754C26.8772 37.2068 26.9664 37.1629 27.0624 37.1507C27.1584 37.1384 27.2558 37.1584 27.3392 37.2077C28.0206 37.6004 28.7566 37.8888 29.5228 38.0634V39.4457C29.5221 39.5522 29.5593 39.6555 29.6277 39.7369C29.6962 39.8183 29.7914 39.8724 29.8961 39.8895C30.8266 40.0332 31.7735 40.0332 32.704 39.8895C32.8087 39.8724 32.9039 39.8183 32.9723 39.7369C33.0408 39.6555 33.078 39.5522 33.0773 39.4457V38.0634C33.8435 37.8888 34.5795 37.6004 35.2608 37.2077C35.3443 37.1584 35.4416 37.1384 35.5376 37.1507C35.6336 37.1629 35.7229 37.2068 35.7914 37.2754L36.5258 38.0092C36.6012 38.0858 36.7014 38.1327 36.8083 38.1414C36.9151 38.1501 37.0216 38.12 37.1083 38.0567C37.8598 37.4933 38.5263 36.8239 39.0873 36.0693C39.15 35.9822 39.1797 35.8755 39.1709 35.7684C39.1621 35.6613 39.1155 35.5609 39.0394 35.4852L38.3098 34.7528C38.2414 34.684 38.1977 34.5944 38.1855 34.498C38.1733 34.4017 38.1932 34.304 38.2423 34.2202C38.5201 33.7335 38.7463 33.2189 38.9172 32.6848C38.962 32.5385 39.0422 32.4057 39.1505 32.2981C39.2589 32.1905 39.3921 32.1115 39.5382 32.0682H40.4501C40.556 32.0688 40.6586 32.0315 40.7396 31.9629C40.8205 31.8943 40.8744 31.799 40.8916 31.6942C41.0383 30.7463 41.0383 29.7813 40.8916 28.8334H40.8902ZM33.9311 30.6866C33.8536 31.1732 33.6436 31.6288 33.3243 32.0031C33.0051 32.3774 32.589 32.6559 32.122 32.8077C31.655 32.9596 31.1553 32.979 30.6781 32.8637C30.2008 32.7485 29.7646 32.5031 29.4175 32.1546C29.0704 31.8061 28.8261 31.3681 28.7114 30.889C28.5966 30.4099 28.6161 29.9083 28.7675 29.4395C28.9189 28.9708 29.1963 28.5531 29.5693 28.2328C29.9422 27.9124 30.3961 27.7017 30.8809 27.6239C31.2962 27.5597 31.7207 27.5946 32.12 27.7258C32.5193 27.857 32.8823 28.0808 33.1793 28.3791C33.4764 28.6774 33.6993 29.0418 33.8299 29.4427C33.9605 29.8436 33.9952 30.2697 33.9311 30.6866Z" fill="white"/>
</g>
<defs>
<clipPath id="clip0">
<rect x="10" y="10" width="31" height="30" fill="white"/>
</clipPath>
</defs>
</svg>
